G04 #@! TF.GenerationSoftware,KiCad,Pcbnew,5.0.2+dfsg1-1~bpo9+1*
G04 #@! TF.CreationDate,2019-05-11T00:02:52+03:00*
G04 #@! TF.ProjectId,dled-esp32-controller,646c6564-2d65-4737-9033-322d636f6e74,rev?*
G04 #@! TF.SameCoordinates,Original*
G04 #@! TF.FileFunction,Legend,Bot*
G04 #@! TF.FilePolarity,Positive*
%FSLAX46Y46*%
G04 Gerber Fmt 4.6, Leading zero omitted, Abs format (unit mm)*
G04 Created by KiCad (PCBNEW 5.0.2+dfsg1-1~bpo9+1) date Sb 11 mai 2019 00:02:52 +0300*
%MOMM*%
%LPD*%
G01*
G04 APERTURE LIST*
%ADD10C,0.280000*%
%ADD11C,0.200000*%
G04 APERTURE END LIST*
D10*
X54701333Y-65491428D02*
X54701333Y-66543809D01*
X54763238Y-66667619D01*
X54825142Y-66729523D01*
X54948952Y-66791428D01*
X55134666Y-66791428D01*
X55258476Y-66729523D01*
X54701333Y-66296190D02*
X54825142Y-66358095D01*
X55072761Y-66358095D01*
X55196571Y-66296190D01*
X55258476Y-66234285D01*
X55320380Y-66110476D01*
X55320380Y-65739047D01*
X55258476Y-65615238D01*
X55196571Y-65553333D01*
X55072761Y-65491428D01*
X54825142Y-65491428D01*
X54701333Y-65553333D01*
X54082285Y-66358095D02*
X54082285Y-65491428D01*
X54082285Y-65058095D02*
X54144190Y-65120000D01*
X54082285Y-65181904D01*
X54020380Y-65120000D01*
X54082285Y-65058095D01*
X54082285Y-65181904D01*
X53648952Y-65491428D02*
X53153714Y-65491428D01*
X53463238Y-65058095D02*
X53463238Y-66172380D01*
X53401333Y-66296190D01*
X53277523Y-66358095D01*
X53153714Y-66358095D01*
X52720380Y-66358095D02*
X52720380Y-65058095D01*
X52163238Y-66358095D02*
X52163238Y-65677142D01*
X52225142Y-65553333D01*
X52348952Y-65491428D01*
X52534666Y-65491428D01*
X52658476Y-65553333D01*
X52720380Y-65615238D01*
X50987047Y-65491428D02*
X50987047Y-66358095D01*
X51544190Y-65491428D02*
X51544190Y-66172380D01*
X51482285Y-66296190D01*
X51358476Y-66358095D01*
X51172761Y-66358095D01*
X51048952Y-66296190D01*
X50987047Y-66234285D01*
X50368000Y-66358095D02*
X50368000Y-65058095D01*
X50368000Y-65553333D02*
X50244190Y-65491428D01*
X49996571Y-65491428D01*
X49872761Y-65553333D01*
X49810857Y-65615238D01*
X49748952Y-65739047D01*
X49748952Y-66110476D01*
X49810857Y-66234285D01*
X49872761Y-66296190D01*
X49996571Y-66358095D01*
X50244190Y-66358095D01*
X50368000Y-66296190D01*
X49191809Y-66234285D02*
X49129904Y-66296190D01*
X49191809Y-66358095D01*
X49253714Y-66296190D01*
X49191809Y-66234285D01*
X49191809Y-66358095D01*
X48015619Y-66296190D02*
X48139428Y-66358095D01*
X48387047Y-66358095D01*
X48510857Y-66296190D01*
X48572761Y-66234285D01*
X48634666Y-66110476D01*
X48634666Y-65739047D01*
X48572761Y-65615238D01*
X48510857Y-65553333D01*
X48387047Y-65491428D01*
X48139428Y-65491428D01*
X48015619Y-65553333D01*
X47272761Y-66358095D02*
X47396571Y-66296190D01*
X47458476Y-66234285D01*
X47520380Y-66110476D01*
X47520380Y-65739047D01*
X47458476Y-65615238D01*
X47396571Y-65553333D01*
X47272761Y-65491428D01*
X47087047Y-65491428D01*
X46963238Y-65553333D01*
X46901333Y-65615238D01*
X46839428Y-65739047D01*
X46839428Y-66110476D01*
X46901333Y-66234285D01*
X46963238Y-66296190D01*
X47087047Y-66358095D01*
X47272761Y-66358095D01*
X46282285Y-66358095D02*
X46282285Y-65491428D01*
X46282285Y-65615238D02*
X46220380Y-65553333D01*
X46096571Y-65491428D01*
X45910857Y-65491428D01*
X45787047Y-65553333D01*
X45725142Y-65677142D01*
X45725142Y-66358095D01*
X45725142Y-65677142D02*
X45663238Y-65553333D01*
X45539428Y-65491428D01*
X45353714Y-65491428D01*
X45229904Y-65553333D01*
X45168000Y-65677142D01*
X45168000Y-66358095D01*
X51544190Y-68464285D02*
X51606095Y-68526190D01*
X51791809Y-68588095D01*
X51915619Y-68588095D01*
X52101333Y-68526190D01*
X52225142Y-68402380D01*
X52287047Y-68278571D01*
X52348952Y-68030952D01*
X52348952Y-67845238D01*
X52287047Y-67597619D01*
X52225142Y-67473809D01*
X52101333Y-67350000D01*
X51915619Y-67288095D01*
X51791809Y-67288095D01*
X51606095Y-67350000D01*
X51544190Y-67411904D01*
X50429904Y-68588095D02*
X50429904Y-67907142D01*
X50491809Y-67783333D01*
X50615619Y-67721428D01*
X50863238Y-67721428D01*
X50987047Y-67783333D01*
X50429904Y-68526190D02*
X50553714Y-68588095D01*
X50863238Y-68588095D01*
X50987047Y-68526190D01*
X51048952Y-68402380D01*
X51048952Y-68278571D01*
X50987047Y-68154761D01*
X50863238Y-68092857D01*
X50553714Y-68092857D01*
X50429904Y-68030952D01*
X49625142Y-68588095D02*
X49748952Y-68526190D01*
X49810857Y-68402380D01*
X49810857Y-67288095D01*
X49129904Y-68588095D02*
X49129904Y-67721428D01*
X49129904Y-67288095D02*
X49191809Y-67350000D01*
X49129904Y-67411904D01*
X49068000Y-67350000D01*
X49129904Y-67288095D01*
X49129904Y-67411904D01*
X48510857Y-67721428D02*
X48510857Y-68588095D01*
X48510857Y-67845238D02*
X48448952Y-67783333D01*
X48325142Y-67721428D01*
X48139428Y-67721428D01*
X48015619Y-67783333D01*
X47953714Y-67907142D01*
X47953714Y-68588095D01*
X46591809Y-68588095D02*
X47025142Y-67969047D01*
X47334666Y-68588095D02*
X47334666Y-67288095D01*
X46839428Y-67288095D01*
X46715619Y-67350000D01*
X46653714Y-67411904D01*
X46591809Y-67535714D01*
X46591809Y-67721428D01*
X46653714Y-67845238D01*
X46715619Y-67907142D01*
X46839428Y-67969047D01*
X47334666Y-67969047D01*
X45477523Y-68588095D02*
X45477523Y-67907142D01*
X45539428Y-67783333D01*
X45663238Y-67721428D01*
X45910857Y-67721428D01*
X46034666Y-67783333D01*
X45477523Y-68526190D02*
X45601333Y-68588095D01*
X45910857Y-68588095D01*
X46034666Y-68526190D01*
X46096571Y-68402380D01*
X46096571Y-68278571D01*
X46034666Y-68154761D01*
X45910857Y-68092857D01*
X45601333Y-68092857D01*
X45477523Y-68030952D01*
X44301333Y-68588095D02*
X44301333Y-67288095D01*
X44301333Y-68526190D02*
X44425142Y-68588095D01*
X44672761Y-68588095D01*
X44796571Y-68526190D01*
X44858476Y-68464285D01*
X44920380Y-68340476D01*
X44920380Y-67969047D01*
X44858476Y-67845238D01*
X44796571Y-67783333D01*
X44672761Y-67721428D01*
X44425142Y-67721428D01*
X44301333Y-67783333D01*
X43496571Y-68588095D02*
X43620380Y-68526190D01*
X43682285Y-68464285D01*
X43744190Y-68340476D01*
X43744190Y-67969047D01*
X43682285Y-67845238D01*
X43620380Y-67783333D01*
X43496571Y-67721428D01*
X43310857Y-67721428D01*
X43187047Y-67783333D01*
X43125142Y-67845238D01*
X43063238Y-67969047D01*
X43063238Y-68340476D01*
X43125142Y-68464285D01*
X43187047Y-68526190D01*
X43310857Y-68588095D01*
X43496571Y-68588095D01*
X42506095Y-67721428D02*
X42506095Y-68588095D01*
X42506095Y-67845238D02*
X42444190Y-67783333D01*
X42320380Y-67721428D01*
X42134666Y-67721428D01*
X42010857Y-67783333D01*
X41948952Y-67907142D01*
X41948952Y-68588095D01*
X41329904Y-68588095D02*
X41329904Y-67721428D01*
X41329904Y-67288095D02*
X41391809Y-67350000D01*
X41329904Y-67411904D01*
X41268000Y-67350000D01*
X41329904Y-67288095D01*
X41329904Y-67411904D01*
X48758476Y-70818095D02*
X48758476Y-69518095D01*
X48758476Y-70756190D02*
X48882285Y-70818095D01*
X49129904Y-70818095D01*
X49253714Y-70756190D01*
X49315619Y-70694285D01*
X49377523Y-70570476D01*
X49377523Y-70199047D01*
X49315619Y-70075238D01*
X49253714Y-70013333D01*
X49129904Y-69951428D01*
X48882285Y-69951428D01*
X48758476Y-70013333D01*
X47953714Y-70818095D02*
X48077523Y-70756190D01*
X48139428Y-70632380D01*
X48139428Y-69518095D01*
X46963238Y-70756190D02*
X47087047Y-70818095D01*
X47334666Y-70818095D01*
X47458476Y-70756190D01*
X47520380Y-70632380D01*
X47520380Y-70137142D01*
X47458476Y-70013333D01*
X47334666Y-69951428D01*
X47087047Y-69951428D01*
X46963238Y-70013333D01*
X46901333Y-70137142D01*
X46901333Y-70260952D01*
X47520380Y-70384761D01*
X45787047Y-70818095D02*
X45787047Y-69518095D01*
X45787047Y-70756190D02*
X45910857Y-70818095D01*
X46158476Y-70818095D01*
X46282285Y-70756190D01*
X46344190Y-70694285D01*
X46406095Y-70570476D01*
X46406095Y-70199047D01*
X46344190Y-70075238D01*
X46282285Y-70013333D01*
X46158476Y-69951428D01*
X45910857Y-69951428D01*
X45787047Y-70013333D01*
X45168000Y-70322857D02*
X44177523Y-70322857D01*
X43063238Y-70756190D02*
X43187047Y-70818095D01*
X43434666Y-70818095D01*
X43558476Y-70756190D01*
X43620380Y-70632380D01*
X43620380Y-70137142D01*
X43558476Y-70013333D01*
X43434666Y-69951428D01*
X43187047Y-69951428D01*
X43063238Y-70013333D01*
X43001333Y-70137142D01*
X43001333Y-70260952D01*
X43620380Y-70384761D01*
X42506095Y-70756190D02*
X42382285Y-70818095D01*
X42134666Y-70818095D01*
X42010857Y-70756190D01*
X41948952Y-70632380D01*
X41948952Y-70570476D01*
X42010857Y-70446666D01*
X42134666Y-70384761D01*
X42320380Y-70384761D01*
X42444190Y-70322857D01*
X42506095Y-70199047D01*
X42506095Y-70137142D01*
X42444190Y-70013333D01*
X42320380Y-69951428D01*
X42134666Y-69951428D01*
X42010857Y-70013333D01*
X41391809Y-69951428D02*
X41391809Y-71251428D01*
X41391809Y-70013333D02*
X41268000Y-69951428D01*
X41020380Y-69951428D01*
X40896571Y-70013333D01*
X40834666Y-70075238D01*
X40772761Y-70199047D01*
X40772761Y-70570476D01*
X40834666Y-70694285D01*
X40896571Y-70756190D01*
X41020380Y-70818095D01*
X41268000Y-70818095D01*
X41391809Y-70756190D01*
X40339428Y-69518095D02*
X39534666Y-69518095D01*
X39968000Y-70013333D01*
X39782285Y-70013333D01*
X39658476Y-70075238D01*
X39596571Y-70137142D01*
X39534666Y-70260952D01*
X39534666Y-70570476D01*
X39596571Y-70694285D01*
X39658476Y-70756190D01*
X39782285Y-70818095D01*
X40153714Y-70818095D01*
X40277523Y-70756190D01*
X40339428Y-70694285D01*
X39039428Y-69641904D02*
X38977523Y-69580000D01*
X38853714Y-69518095D01*
X38544190Y-69518095D01*
X38420380Y-69580000D01*
X38358476Y-69641904D01*
X38296571Y-69765714D01*
X38296571Y-69889523D01*
X38358476Y-70075238D01*
X39101333Y-70818095D01*
X38296571Y-70818095D01*
X37739428Y-70322857D02*
X36748952Y-70322857D01*
X35572761Y-70756190D02*
X35696571Y-70818095D01*
X35944190Y-70818095D01*
X36068000Y-70756190D01*
X36129904Y-70694285D01*
X36191809Y-70570476D01*
X36191809Y-70199047D01*
X36129904Y-70075238D01*
X36068000Y-70013333D01*
X35944190Y-69951428D01*
X35696571Y-69951428D01*
X35572761Y-70013333D01*
X34829904Y-70818095D02*
X34953714Y-70756190D01*
X35015619Y-70694285D01*
X35077523Y-70570476D01*
X35077523Y-70199047D01*
X35015619Y-70075238D01*
X34953714Y-70013333D01*
X34829904Y-69951428D01*
X34644190Y-69951428D01*
X34520380Y-70013333D01*
X34458476Y-70075238D01*
X34396571Y-70199047D01*
X34396571Y-70570476D01*
X34458476Y-70694285D01*
X34520380Y-70756190D01*
X34644190Y-70818095D01*
X34829904Y-70818095D01*
X33839428Y-69951428D02*
X33839428Y-70818095D01*
X33839428Y-70075238D02*
X33777523Y-70013333D01*
X33653714Y-69951428D01*
X33468000Y-69951428D01*
X33344190Y-70013333D01*
X33282285Y-70137142D01*
X33282285Y-70818095D01*
X32848952Y-69951428D02*
X32353714Y-69951428D01*
X32663238Y-69518095D02*
X32663238Y-70632380D01*
X32601333Y-70756190D01*
X32477523Y-70818095D01*
X32353714Y-70818095D01*
X31920380Y-70818095D02*
X31920380Y-69951428D01*
X31920380Y-70199047D02*
X31858476Y-70075238D01*
X31796571Y-70013333D01*
X31672761Y-69951428D01*
X31548952Y-69951428D01*
X30929904Y-70818095D02*
X31053714Y-70756190D01*
X31115619Y-70694285D01*
X31177523Y-70570476D01*
X31177523Y-70199047D01*
X31115619Y-70075238D01*
X31053714Y-70013333D01*
X30929904Y-69951428D01*
X30744190Y-69951428D01*
X30620380Y-70013333D01*
X30558476Y-70075238D01*
X30496571Y-70199047D01*
X30496571Y-70570476D01*
X30558476Y-70694285D01*
X30620380Y-70756190D01*
X30744190Y-70818095D01*
X30929904Y-70818095D01*
X29753714Y-70818095D02*
X29877523Y-70756190D01*
X29939428Y-70632380D01*
X29939428Y-69518095D01*
X29072761Y-70818095D02*
X29196571Y-70756190D01*
X29258476Y-70632380D01*
X29258476Y-69518095D01*
X28082285Y-70756190D02*
X28206095Y-70818095D01*
X28453714Y-70818095D01*
X28577523Y-70756190D01*
X28639428Y-70632380D01*
X28639428Y-70137142D01*
X28577523Y-70013333D01*
X28453714Y-69951428D01*
X28206095Y-69951428D01*
X28082285Y-70013333D01*
X28020380Y-70137142D01*
X28020380Y-70260952D01*
X28639428Y-70384761D01*
X27463238Y-70818095D02*
X27463238Y-69951428D01*
X27463238Y-70199047D02*
X27401333Y-70075238D01*
X27339428Y-70013333D01*
X27215619Y-69951428D01*
X27091809Y-69951428D01*
D11*
X69250000Y-85202380D02*
X69250000Y-84202380D01*
X69250000Y-85154761D02*
X69345238Y-85202380D01*
X69535714Y-85202380D01*
X69630952Y-85154761D01*
X69678571Y-85107142D01*
X69726190Y-85011904D01*
X69726190Y-84726190D01*
X69678571Y-84630952D01*
X69630952Y-84583333D01*
X69535714Y-84535714D01*
X69345238Y-84535714D01*
X69250000Y-84583333D01*
X68392857Y-85154761D02*
X68488095Y-85202380D01*
X68678571Y-85202380D01*
X68773809Y-85154761D01*
X68821428Y-85059523D01*
X68821428Y-84678571D01*
X68773809Y-84583333D01*
X68678571Y-84535714D01*
X68488095Y-84535714D01*
X68392857Y-84583333D01*
X68345238Y-84678571D01*
X68345238Y-84773809D01*
X68821428Y-84869047D01*
X67964285Y-85154761D02*
X67869047Y-85202380D01*
X67678571Y-85202380D01*
X67583333Y-85154761D01*
X67535714Y-85059523D01*
X67535714Y-85011904D01*
X67583333Y-84916666D01*
X67678571Y-84869047D01*
X67821428Y-84869047D01*
X67916666Y-84821428D01*
X67964285Y-84726190D01*
X67964285Y-84678571D01*
X67916666Y-84583333D01*
X67821428Y-84535714D01*
X67678571Y-84535714D01*
X67583333Y-84583333D01*
X67107142Y-85202380D02*
X67107142Y-84535714D01*
X67107142Y-84202380D02*
X67154761Y-84250000D01*
X67107142Y-84297619D01*
X67059523Y-84250000D01*
X67107142Y-84202380D01*
X67107142Y-84297619D01*
X66202380Y-84535714D02*
X66202380Y-85345238D01*
X66250000Y-85440476D01*
X66297619Y-85488095D01*
X66392857Y-85535714D01*
X66535714Y-85535714D01*
X66630952Y-85488095D01*
X66202380Y-85154761D02*
X66297619Y-85202380D01*
X66488095Y-85202380D01*
X66583333Y-85154761D01*
X66630952Y-85107142D01*
X66678571Y-85011904D01*
X66678571Y-84726190D01*
X66630952Y-84630952D01*
X66583333Y-84583333D01*
X66488095Y-84535714D01*
X66297619Y-84535714D01*
X66202380Y-84583333D01*
X65726190Y-84535714D02*
X65726190Y-85202380D01*
X65726190Y-84630952D02*
X65678571Y-84583333D01*
X65583333Y-84535714D01*
X65440476Y-84535714D01*
X65345238Y-84583333D01*
X65297619Y-84678571D01*
X65297619Y-85202380D01*
X64440476Y-85154761D02*
X64535714Y-85202380D01*
X64726190Y-85202380D01*
X64821428Y-85154761D01*
X64869047Y-85059523D01*
X64869047Y-84678571D01*
X64821428Y-84583333D01*
X64726190Y-84535714D01*
X64535714Y-84535714D01*
X64440476Y-84583333D01*
X64392857Y-84678571D01*
X64392857Y-84773809D01*
X64869047Y-84869047D01*
X63535714Y-85202380D02*
X63535714Y-84202380D01*
X63535714Y-85154761D02*
X63630952Y-85202380D01*
X63821428Y-85202380D01*
X63916666Y-85154761D01*
X63964285Y-85107142D01*
X64011904Y-85011904D01*
X64011904Y-84726190D01*
X63964285Y-84630952D01*
X63916666Y-84583333D01*
X63821428Y-84535714D01*
X63630952Y-84535714D01*
X63535714Y-84583333D01*
X62392857Y-84535714D02*
X62202380Y-85202380D01*
X62011904Y-84726190D01*
X61821428Y-85202380D01*
X61630952Y-84535714D01*
X61250000Y-85202380D02*
X61250000Y-84535714D01*
X61250000Y-84202380D02*
X61297619Y-84250000D01*
X61250000Y-84297619D01*
X61202380Y-84250000D01*
X61250000Y-84202380D01*
X61250000Y-84297619D01*
X60916666Y-84535714D02*
X60535714Y-84535714D01*
X60773809Y-84202380D02*
X60773809Y-85059523D01*
X60726190Y-85154761D01*
X60630952Y-85202380D01*
X60535714Y-85202380D01*
X60202380Y-85202380D02*
X60202380Y-84202380D01*
X59773809Y-85202380D02*
X59773809Y-84678571D01*
X59821428Y-84583333D01*
X59916666Y-84535714D01*
X60059523Y-84535714D01*
X60154761Y-84583333D01*
X60202380Y-84630952D01*
X58535714Y-85202380D02*
X58535714Y-84202380D01*
X57964285Y-85202380D02*
X58392857Y-84630952D01*
X57964285Y-84202380D02*
X58535714Y-84773809D01*
X57535714Y-85202380D02*
X57535714Y-84535714D01*
X57535714Y-84202380D02*
X57583333Y-84250000D01*
X57535714Y-84297619D01*
X57488095Y-84250000D01*
X57535714Y-84202380D01*
X57535714Y-84297619D01*
X56488095Y-85107142D02*
X56535714Y-85154761D01*
X56678571Y-85202380D01*
X56773809Y-85202380D01*
X56916666Y-85154761D01*
X57011904Y-85059523D01*
X57059523Y-84964285D01*
X57107142Y-84773809D01*
X57107142Y-84630952D01*
X57059523Y-84440476D01*
X57011904Y-84345238D01*
X56916666Y-84250000D01*
X56773809Y-84202380D01*
X56678571Y-84202380D01*
X56535714Y-84250000D01*
X56488095Y-84297619D01*
X55630952Y-85202380D02*
X55630952Y-84678571D01*
X55678571Y-84583333D01*
X55773809Y-84535714D01*
X55964285Y-84535714D01*
X56059523Y-84583333D01*
X55630952Y-85154761D02*
X55726190Y-85202380D01*
X55964285Y-85202380D01*
X56059523Y-85154761D01*
X56107142Y-85059523D01*
X56107142Y-84964285D01*
X56059523Y-84869047D01*
X55964285Y-84821428D01*
X55726190Y-84821428D01*
X55630952Y-84773809D01*
X54726190Y-85202380D02*
X54726190Y-84202380D01*
X54726190Y-85154761D02*
X54821428Y-85202380D01*
X55011904Y-85202380D01*
X55107142Y-85154761D01*
X55154761Y-85107142D01*
X55202380Y-85011904D01*
X55202380Y-84726190D01*
X55154761Y-84630952D01*
X55107142Y-84583333D01*
X55011904Y-84535714D01*
X54821428Y-84535714D01*
X54726190Y-84583333D01*
X53630952Y-84535714D02*
X53250000Y-84535714D01*
X53488095Y-85202380D02*
X53488095Y-84345238D01*
X53440476Y-84250000D01*
X53345238Y-84202380D01*
X53250000Y-84202380D01*
X52773809Y-85202380D02*
X52869047Y-85154761D01*
X52916666Y-85107142D01*
X52964285Y-85011904D01*
X52964285Y-84726190D01*
X52916666Y-84630952D01*
X52869047Y-84583333D01*
X52773809Y-84535714D01*
X52630952Y-84535714D01*
X52535714Y-84583333D01*
X52488095Y-84630952D01*
X52440476Y-84726190D01*
X52440476Y-85011904D01*
X52488095Y-85107142D01*
X52535714Y-85154761D01*
X52630952Y-85202380D01*
X52773809Y-85202380D01*
X52011904Y-85202380D02*
X52011904Y-84535714D01*
X52011904Y-84726190D02*
X51964285Y-84630952D01*
X51916666Y-84583333D01*
X51821428Y-84535714D01*
X51726190Y-84535714D01*
X50630952Y-85202380D02*
X50630952Y-84202380D01*
X50202380Y-85202380D02*
X50202380Y-84678571D01*
X50250000Y-84583333D01*
X50345238Y-84535714D01*
X50488095Y-84535714D01*
X50583333Y-84583333D01*
X50630952Y-84630952D01*
X49297619Y-85202380D02*
X49297619Y-84678571D01*
X49345238Y-84583333D01*
X49440476Y-84535714D01*
X49630952Y-84535714D01*
X49726190Y-84583333D01*
X49297619Y-85154761D02*
X49392857Y-85202380D01*
X49630952Y-85202380D01*
X49726190Y-85154761D01*
X49773809Y-85059523D01*
X49773809Y-84964285D01*
X49726190Y-84869047D01*
X49630952Y-84821428D01*
X49392857Y-84821428D01*
X49297619Y-84773809D01*
X48821428Y-84535714D02*
X48821428Y-85202380D01*
X48821428Y-84630952D02*
X48773809Y-84583333D01*
X48678571Y-84535714D01*
X48535714Y-84535714D01*
X48440476Y-84583333D01*
X48392857Y-84678571D01*
X48392857Y-85202380D01*
X47488095Y-85202380D02*
X47488095Y-84202380D01*
X47488095Y-85154761D02*
X47583333Y-85202380D01*
X47773809Y-85202380D01*
X47869047Y-85154761D01*
X47916666Y-85107142D01*
X47964285Y-85011904D01*
X47964285Y-84726190D01*
X47916666Y-84630952D01*
X47869047Y-84583333D01*
X47773809Y-84535714D01*
X47583333Y-84535714D01*
X47488095Y-84583333D01*
X46297619Y-85154761D02*
X46202380Y-85202380D01*
X46011904Y-85202380D01*
X45916666Y-85154761D01*
X45869047Y-85059523D01*
X45869047Y-85011904D01*
X45916666Y-84916666D01*
X46011904Y-84869047D01*
X46154761Y-84869047D01*
X46250000Y-84821428D01*
X46297619Y-84726190D01*
X46297619Y-84678571D01*
X46250000Y-84583333D01*
X46154761Y-84535714D01*
X46011904Y-84535714D01*
X45916666Y-84583333D01*
X45297619Y-85202380D02*
X45392857Y-85154761D01*
X45440476Y-85107142D01*
X45488095Y-85011904D01*
X45488095Y-84726190D01*
X45440476Y-84630952D01*
X45392857Y-84583333D01*
X45297619Y-84535714D01*
X45154761Y-84535714D01*
X45059523Y-84583333D01*
X45011904Y-84630952D01*
X44964285Y-84726190D01*
X44964285Y-85011904D01*
X45011904Y-85107142D01*
X45059523Y-85154761D01*
X45154761Y-85202380D01*
X45297619Y-85202380D01*
X44392857Y-85202380D02*
X44488095Y-85154761D01*
X44535714Y-85059523D01*
X44535714Y-84202380D01*
X43583333Y-85202380D02*
X43583333Y-84202380D01*
X43583333Y-85154761D02*
X43678571Y-85202380D01*
X43869047Y-85202380D01*
X43964285Y-85154761D01*
X44011904Y-85107142D01*
X44059523Y-85011904D01*
X44059523Y-84726190D01*
X44011904Y-84630952D01*
X43964285Y-84583333D01*
X43869047Y-84535714D01*
X43678571Y-84535714D01*
X43583333Y-84583333D01*
X42726190Y-85154761D02*
X42821428Y-85202380D01*
X43011904Y-85202380D01*
X43107142Y-85154761D01*
X43154761Y-85059523D01*
X43154761Y-84678571D01*
X43107142Y-84583333D01*
X43011904Y-84535714D01*
X42821428Y-84535714D01*
X42726190Y-84583333D01*
X42678571Y-84678571D01*
X42678571Y-84773809D01*
X43154761Y-84869047D01*
X42250000Y-85202380D02*
X42250000Y-84535714D01*
X42250000Y-84726190D02*
X42202380Y-84630952D01*
X42154761Y-84583333D01*
X42059523Y-84535714D01*
X41964285Y-84535714D01*
X41630952Y-85202380D02*
X41630952Y-84535714D01*
X41630952Y-84202380D02*
X41678571Y-84250000D01*
X41630952Y-84297619D01*
X41583333Y-84250000D01*
X41630952Y-84202380D01*
X41630952Y-84297619D01*
X41154761Y-84535714D02*
X41154761Y-85202380D01*
X41154761Y-84630952D02*
X41107142Y-84583333D01*
X41011904Y-84535714D01*
X40869047Y-84535714D01*
X40773809Y-84583333D01*
X40726190Y-84678571D01*
X40726190Y-85202380D01*
X39821428Y-84535714D02*
X39821428Y-85345238D01*
X39869047Y-85440476D01*
X39916666Y-85488095D01*
X40011904Y-85535714D01*
X40154761Y-85535714D01*
X40250000Y-85488095D01*
X39821428Y-85154761D02*
X39916666Y-85202380D01*
X40107142Y-85202380D01*
X40202380Y-85154761D01*
X40250000Y-85107142D01*
X40297619Y-85011904D01*
X40297619Y-84726190D01*
X40250000Y-84630952D01*
X40202380Y-84583333D01*
X40107142Y-84535714D01*
X39916666Y-84535714D01*
X39821428Y-84583333D01*
M02*
