G04 #@! TF.GenerationSoftware,KiCad,Pcbnew,5.0.2+dfsg1-1~bpo9+1*
G04 #@! TF.CreationDate,2019-05-11T00:02:52+03:00*
G04 #@! TF.ProjectId,dled-esp32-controller,646c6564-2d65-4737-9033-322d636f6e74,rev?*
G04 #@! TF.SameCoordinates,Original*
G04 #@! TF.FileFunction,Soldermask,Top*
G04 #@! TF.FilePolarity,Negative*
%FSLAX46Y46*%
G04 Gerber Fmt 4.6, Leading zero omitted, Abs format (unit mm)*
G04 Created by KiCad (PCBNEW 5.0.2+dfsg1-1~bpo9+1) date Sb 11 mai 2019 00:02:52 +0300*
%MOMM*%
%LPD*%
G01*
G04 APERTURE LIST*
%ADD10C,0.100000*%
G04 APERTURE END LIST*
D10*
G36*
X72915049Y-93307618D02*
X72915052Y-93307619D01*
X72915051Y-93307619D01*
X73329985Y-93479490D01*
X73703415Y-93729008D01*
X74020992Y-94046585D01*
X74270510Y-94420015D01*
X74403446Y-94740950D01*
X74442382Y-94834951D01*
X74530000Y-95275438D01*
X74530000Y-95724562D01*
X74442382Y-96165049D01*
X74442381Y-96165051D01*
X74270510Y-96579985D01*
X74020992Y-96953415D01*
X73703415Y-97270992D01*
X73329985Y-97520510D01*
X73009050Y-97653446D01*
X72915049Y-97692382D01*
X72474562Y-97780000D01*
X72025438Y-97780000D01*
X71584951Y-97692382D01*
X71490950Y-97653446D01*
X71170015Y-97520510D01*
X70796585Y-97270992D01*
X70479008Y-96953415D01*
X70229490Y-96579985D01*
X70057619Y-96165051D01*
X70057618Y-96165049D01*
X69970000Y-95724562D01*
X69970000Y-95275438D01*
X70057618Y-94834951D01*
X70096554Y-94740950D01*
X70229490Y-94420015D01*
X70479008Y-94046585D01*
X70796585Y-93729008D01*
X71170015Y-93479490D01*
X71584949Y-93307619D01*
X71584948Y-93307619D01*
X71584951Y-93307618D01*
X72025438Y-93220000D01*
X72474562Y-93220000D01*
X72915049Y-93307618D01*
X72915049Y-93307618D01*
G37*
G36*
X28415049Y-93307618D02*
X28415052Y-93307619D01*
X28415051Y-93307619D01*
X28829985Y-93479490D01*
X29203415Y-93729008D01*
X29520992Y-94046585D01*
X29770510Y-94420015D01*
X29903446Y-94740950D01*
X29942382Y-94834951D01*
X30030000Y-95275438D01*
X30030000Y-95724562D01*
X29942382Y-96165049D01*
X29942381Y-96165051D01*
X29770510Y-96579985D01*
X29520992Y-96953415D01*
X29203415Y-97270992D01*
X28829985Y-97520510D01*
X28509050Y-97653446D01*
X28415049Y-97692382D01*
X27974562Y-97780000D01*
X27525438Y-97780000D01*
X27084951Y-97692382D01*
X26990950Y-97653446D01*
X26670015Y-97520510D01*
X26296585Y-97270992D01*
X25979008Y-96953415D01*
X25729490Y-96579985D01*
X25557619Y-96165051D01*
X25557618Y-96165049D01*
X25470000Y-95724562D01*
X25470000Y-95275438D01*
X25557618Y-94834951D01*
X25596554Y-94740950D01*
X25729490Y-94420015D01*
X25979008Y-94046585D01*
X26296585Y-93729008D01*
X26670015Y-93479490D01*
X27084949Y-93307619D01*
X27084948Y-93307619D01*
X27084951Y-93307618D01*
X27525438Y-93220000D01*
X27974562Y-93220000D01*
X28415049Y-93307618D01*
X28415049Y-93307618D01*
G37*
G36*
X42321660Y-93698130D02*
X42533791Y-93740325D01*
X42866830Y-93878275D01*
X43166557Y-94078546D01*
X43421454Y-94333443D01*
X43621725Y-94633170D01*
X43759675Y-94966209D01*
X43830000Y-95319761D01*
X43830000Y-95680239D01*
X43759675Y-96033791D01*
X43621725Y-96366830D01*
X43421454Y-96666557D01*
X43166557Y-96921454D01*
X42866830Y-97121725D01*
X42533791Y-97259675D01*
X42321660Y-97301870D01*
X42180241Y-97330000D01*
X41819759Y-97330000D01*
X41678340Y-97301870D01*
X41466209Y-97259675D01*
X41133170Y-97121725D01*
X40833443Y-96921454D01*
X40578546Y-96666557D01*
X40378275Y-96366830D01*
X40240325Y-96033791D01*
X40170000Y-95680239D01*
X40170000Y-95319761D01*
X40240325Y-94966209D01*
X40378275Y-94633170D01*
X40578546Y-94333443D01*
X40833443Y-94078546D01*
X41133170Y-93878275D01*
X41466209Y-93740325D01*
X41678340Y-93698130D01*
X41819759Y-93670000D01*
X42180241Y-93670000D01*
X42321660Y-93698130D01*
X42321660Y-93698130D01*
G37*
G36*
X64321660Y-93698130D02*
X64533791Y-93740325D01*
X64866830Y-93878275D01*
X65166557Y-94078546D01*
X65421454Y-94333443D01*
X65621725Y-94633170D01*
X65759675Y-94966209D01*
X65830000Y-95319761D01*
X65830000Y-95680239D01*
X65759675Y-96033791D01*
X65621725Y-96366830D01*
X65421454Y-96666557D01*
X65166557Y-96921454D01*
X64866830Y-97121725D01*
X64533791Y-97259675D01*
X64321660Y-97301870D01*
X64180241Y-97330000D01*
X63819759Y-97330000D01*
X63678340Y-97301870D01*
X63466209Y-97259675D01*
X63133170Y-97121725D01*
X62833443Y-96921454D01*
X62578546Y-96666557D01*
X62378275Y-96366830D01*
X62240325Y-96033791D01*
X62170000Y-95680239D01*
X62170000Y-95319761D01*
X62240325Y-94966209D01*
X62378275Y-94633170D01*
X62578546Y-94333443D01*
X62833443Y-94078546D01*
X63133170Y-93878275D01*
X63466209Y-93740325D01*
X63678340Y-93698130D01*
X63819759Y-93670000D01*
X64180241Y-93670000D01*
X64321660Y-93698130D01*
X64321660Y-93698130D01*
G37*
G36*
X42321660Y-88698130D02*
X42533791Y-88740325D01*
X42866830Y-88878275D01*
X43166557Y-89078546D01*
X43421454Y-89333443D01*
X43621725Y-89633170D01*
X43759675Y-89966209D01*
X43830000Y-90319761D01*
X43830000Y-90680239D01*
X43759675Y-91033791D01*
X43621725Y-91366830D01*
X43421454Y-91666557D01*
X43166557Y-91921454D01*
X42866830Y-92121725D01*
X42533791Y-92259675D01*
X42321660Y-92301870D01*
X42180241Y-92330000D01*
X41819759Y-92330000D01*
X41678340Y-92301870D01*
X41466209Y-92259675D01*
X41133170Y-92121725D01*
X40833443Y-91921454D01*
X40578546Y-91666557D01*
X40378275Y-91366830D01*
X40240325Y-91033791D01*
X40170000Y-90680239D01*
X40170000Y-90319761D01*
X40240325Y-89966209D01*
X40378275Y-89633170D01*
X40578546Y-89333443D01*
X40833443Y-89078546D01*
X41133170Y-88878275D01*
X41466209Y-88740325D01*
X41678340Y-88698130D01*
X41819759Y-88670000D01*
X42180241Y-88670000D01*
X42321660Y-88698130D01*
X42321660Y-88698130D01*
G37*
G36*
X64321660Y-88698130D02*
X64533791Y-88740325D01*
X64866830Y-88878275D01*
X65166557Y-89078546D01*
X65421454Y-89333443D01*
X65621725Y-89633170D01*
X65759675Y-89966209D01*
X65830000Y-90319761D01*
X65830000Y-90680239D01*
X65759675Y-91033791D01*
X65621725Y-91366830D01*
X65421454Y-91666557D01*
X65166557Y-91921454D01*
X64866830Y-92121725D01*
X64533791Y-92259675D01*
X64321660Y-92301870D01*
X64180241Y-92330000D01*
X63819759Y-92330000D01*
X63678340Y-92301870D01*
X63466209Y-92259675D01*
X63133170Y-92121725D01*
X62833443Y-91921454D01*
X62578546Y-91666557D01*
X62378275Y-91366830D01*
X62240325Y-91033791D01*
X62170000Y-90680239D01*
X62170000Y-90319761D01*
X62240325Y-89966209D01*
X62378275Y-89633170D01*
X62578546Y-89333443D01*
X62833443Y-89078546D01*
X63133170Y-88878275D01*
X63466209Y-88740325D01*
X63678340Y-88698130D01*
X63819759Y-88670000D01*
X64180241Y-88670000D01*
X64321660Y-88698130D01*
X64321660Y-88698130D01*
G37*
G36*
X59180000Y-92230000D02*
X52520000Y-92230000D01*
X52520000Y-85770000D01*
X59180000Y-85770000D01*
X59180000Y-92230000D01*
X59180000Y-92230000D01*
G37*
G36*
X50880000Y-92230000D02*
X47320000Y-92230000D01*
X47320000Y-90370000D01*
X50880000Y-90370000D01*
X50880000Y-92230000D01*
X50880000Y-92230000D01*
G37*
G36*
X35046270Y-88224018D02*
X35077242Y-88233414D01*
X35105782Y-88248669D01*
X35130800Y-88269200D01*
X35151331Y-88294218D01*
X35166586Y-88322758D01*
X35175982Y-88353730D01*
X35180000Y-88394529D01*
X35180000Y-89605471D01*
X35175982Y-89646270D01*
X35166586Y-89677242D01*
X35151331Y-89705782D01*
X35130800Y-89730800D01*
X35105782Y-89751331D01*
X35077242Y-89766586D01*
X35046270Y-89775982D01*
X35005471Y-89780000D01*
X33594529Y-89780000D01*
X33553730Y-89775982D01*
X33522758Y-89766586D01*
X33494218Y-89751331D01*
X33469200Y-89730800D01*
X33448669Y-89705782D01*
X33433414Y-89677242D01*
X33424018Y-89646270D01*
X33420000Y-89605471D01*
X33420000Y-88394529D01*
X33424018Y-88353730D01*
X33433414Y-88322758D01*
X33448669Y-88294218D01*
X33469200Y-88269200D01*
X33494218Y-88248669D01*
X33522758Y-88233414D01*
X33553730Y-88224018D01*
X33594529Y-88220000D01*
X35005471Y-88220000D01*
X35046270Y-88224018D01*
X35046270Y-88224018D01*
G37*
G36*
X37446270Y-88224018D02*
X37477242Y-88233414D01*
X37505782Y-88248669D01*
X37530800Y-88269200D01*
X37551331Y-88294218D01*
X37566586Y-88322758D01*
X37575982Y-88353730D01*
X37580000Y-88394529D01*
X37580000Y-89605471D01*
X37575982Y-89646270D01*
X37566586Y-89677242D01*
X37551331Y-89705782D01*
X37530800Y-89730800D01*
X37505782Y-89751331D01*
X37477242Y-89766586D01*
X37446270Y-89775982D01*
X37405471Y-89780000D01*
X35994529Y-89780000D01*
X35953730Y-89775982D01*
X35922758Y-89766586D01*
X35894218Y-89751331D01*
X35869200Y-89730800D01*
X35848669Y-89705782D01*
X35833414Y-89677242D01*
X35824018Y-89646270D01*
X35820000Y-89605471D01*
X35820000Y-88394529D01*
X35824018Y-88353730D01*
X35833414Y-88322758D01*
X35848669Y-88294218D01*
X35869200Y-88269200D01*
X35894218Y-88248669D01*
X35922758Y-88233414D01*
X35953730Y-88224018D01*
X35994529Y-88220000D01*
X37405471Y-88220000D01*
X37446270Y-88224018D01*
X37446270Y-88224018D01*
G37*
G36*
X50880000Y-87630000D02*
X47320000Y-87630000D01*
X47320000Y-85770000D01*
X50880000Y-85770000D01*
X50880000Y-87630000D01*
X50880000Y-87630000D01*
G37*
G36*
X41046270Y-85224018D02*
X41077242Y-85233414D01*
X41105782Y-85248669D01*
X41130800Y-85269200D01*
X41151331Y-85294218D01*
X41166586Y-85322758D01*
X41175982Y-85353730D01*
X41180000Y-85394529D01*
X41180000Y-86605471D01*
X41175982Y-86646270D01*
X41166586Y-86677242D01*
X41151331Y-86705782D01*
X41130800Y-86730800D01*
X41105782Y-86751331D01*
X41077242Y-86766586D01*
X41046270Y-86775982D01*
X41005471Y-86780000D01*
X39594529Y-86780000D01*
X39553730Y-86775982D01*
X39522758Y-86766586D01*
X39494218Y-86751331D01*
X39469200Y-86730800D01*
X39448669Y-86705782D01*
X39433414Y-86677242D01*
X39424018Y-86646270D01*
X39420000Y-86605471D01*
X39420000Y-85394529D01*
X39424018Y-85353730D01*
X39433414Y-85322758D01*
X39448669Y-85294218D01*
X39469200Y-85269200D01*
X39494218Y-85248669D01*
X39522758Y-85233414D01*
X39553730Y-85224018D01*
X39594529Y-85220000D01*
X41005471Y-85220000D01*
X41046270Y-85224018D01*
X41046270Y-85224018D01*
G37*
G36*
X35046270Y-85224018D02*
X35077242Y-85233414D01*
X35105782Y-85248669D01*
X35130800Y-85269200D01*
X35151331Y-85294218D01*
X35166586Y-85322758D01*
X35175982Y-85353730D01*
X35180000Y-85394529D01*
X35180000Y-86605471D01*
X35175982Y-86646270D01*
X35166586Y-86677242D01*
X35151331Y-86705782D01*
X35130800Y-86730800D01*
X35105782Y-86751331D01*
X35077242Y-86766586D01*
X35046270Y-86775982D01*
X35005471Y-86780000D01*
X33594529Y-86780000D01*
X33553730Y-86775982D01*
X33522758Y-86766586D01*
X33494218Y-86751331D01*
X33469200Y-86730800D01*
X33448669Y-86705782D01*
X33433414Y-86677242D01*
X33424018Y-86646270D01*
X33420000Y-86605471D01*
X33420000Y-85394529D01*
X33424018Y-85353730D01*
X33433414Y-85322758D01*
X33448669Y-85294218D01*
X33469200Y-85269200D01*
X33494218Y-85248669D01*
X33522758Y-85233414D01*
X33553730Y-85224018D01*
X33594529Y-85220000D01*
X35005471Y-85220000D01*
X35046270Y-85224018D01*
X35046270Y-85224018D01*
G37*
G36*
X37446270Y-85224018D02*
X37477242Y-85233414D01*
X37505782Y-85248669D01*
X37530800Y-85269200D01*
X37551331Y-85294218D01*
X37566586Y-85322758D01*
X37575982Y-85353730D01*
X37580000Y-85394529D01*
X37580000Y-86605471D01*
X37575982Y-86646270D01*
X37566586Y-86677242D01*
X37551331Y-86705782D01*
X37530800Y-86730800D01*
X37505782Y-86751331D01*
X37477242Y-86766586D01*
X37446270Y-86775982D01*
X37405471Y-86780000D01*
X35994529Y-86780000D01*
X35953730Y-86775982D01*
X35922758Y-86766586D01*
X35894218Y-86751331D01*
X35869200Y-86730800D01*
X35848669Y-86705782D01*
X35833414Y-86677242D01*
X35824018Y-86646270D01*
X35820000Y-86605471D01*
X35820000Y-85394529D01*
X35824018Y-85353730D01*
X35833414Y-85322758D01*
X35848669Y-85294218D01*
X35869200Y-85269200D01*
X35894218Y-85248669D01*
X35922758Y-85233414D01*
X35953730Y-85224018D01*
X35994529Y-85220000D01*
X37405471Y-85220000D01*
X37446270Y-85224018D01*
X37446270Y-85224018D01*
G37*
G36*
X43446270Y-85224018D02*
X43477242Y-85233414D01*
X43505782Y-85248669D01*
X43530800Y-85269200D01*
X43551331Y-85294218D01*
X43566586Y-85322758D01*
X43575982Y-85353730D01*
X43580000Y-85394529D01*
X43580000Y-86605471D01*
X43575982Y-86646270D01*
X43566586Y-86677242D01*
X43551331Y-86705782D01*
X43530800Y-86730800D01*
X43505782Y-86751331D01*
X43477242Y-86766586D01*
X43446270Y-86775982D01*
X43405471Y-86780000D01*
X41994529Y-86780000D01*
X41953730Y-86775982D01*
X41922758Y-86766586D01*
X41894218Y-86751331D01*
X41869200Y-86730800D01*
X41848669Y-86705782D01*
X41833414Y-86677242D01*
X41824018Y-86646270D01*
X41820000Y-86605471D01*
X41820000Y-85394529D01*
X41824018Y-85353730D01*
X41833414Y-85322758D01*
X41848669Y-85294218D01*
X41869200Y-85269200D01*
X41894218Y-85248669D01*
X41922758Y-85233414D01*
X41953730Y-85224018D01*
X41994529Y-85220000D01*
X43405471Y-85220000D01*
X43446270Y-85224018D01*
X43446270Y-85224018D01*
G37*
G36*
X30293496Y-83075278D02*
X30336768Y-83088405D01*
X30376642Y-83109718D01*
X30411596Y-83138404D01*
X30440282Y-83173358D01*
X30461595Y-83213232D01*
X30474722Y-83256504D01*
X30480000Y-83310095D01*
X30480000Y-85189905D01*
X30474722Y-85243496D01*
X30461595Y-85286768D01*
X30440282Y-85326642D01*
X30411596Y-85361596D01*
X30376642Y-85390282D01*
X30336768Y-85411595D01*
X30293496Y-85424722D01*
X30239905Y-85430000D01*
X27760095Y-85430000D01*
X27706504Y-85424722D01*
X27663232Y-85411595D01*
X27623358Y-85390282D01*
X27588404Y-85361596D01*
X27559718Y-85326642D01*
X27538405Y-85286768D01*
X27525278Y-85243496D01*
X27520000Y-85189905D01*
X27520000Y-83310095D01*
X27525278Y-83256504D01*
X27538405Y-83213232D01*
X27559718Y-83173358D01*
X27588404Y-83138404D01*
X27623358Y-83109718D01*
X27663232Y-83088405D01*
X27706504Y-83075278D01*
X27760095Y-83070000D01*
X30239905Y-83070000D01*
X30293496Y-83075278D01*
X30293496Y-83075278D01*
G37*
G36*
X73411713Y-81875626D02*
X73411716Y-81875627D01*
X73411717Y-81875627D01*
X73447260Y-81886409D01*
X73615299Y-81937383D01*
X73802921Y-82037669D01*
X73967371Y-82172629D01*
X74102331Y-82337079D01*
X74202617Y-82524701D01*
X74264374Y-82728287D01*
X74285226Y-82940000D01*
X74264374Y-83151713D01*
X74264373Y-83151716D01*
X74264373Y-83151717D01*
X74240383Y-83230800D01*
X74202617Y-83355299D01*
X74102331Y-83542921D01*
X73967371Y-83707371D01*
X73802921Y-83842331D01*
X73615299Y-83942617D01*
X73495786Y-83978871D01*
X73411717Y-84004373D01*
X73411716Y-84004373D01*
X73411713Y-84004374D01*
X73253056Y-84020000D01*
X72746944Y-84020000D01*
X72588287Y-84004374D01*
X72588284Y-84004373D01*
X72588283Y-84004373D01*
X72504214Y-83978871D01*
X72384701Y-83942617D01*
X72197079Y-83842331D01*
X72032629Y-83707371D01*
X71897669Y-83542921D01*
X71797383Y-83355299D01*
X71759617Y-83230800D01*
X71735627Y-83151717D01*
X71735627Y-83151716D01*
X71735626Y-83151713D01*
X71714774Y-82940000D01*
X71735626Y-82728287D01*
X71797383Y-82524701D01*
X71897669Y-82337079D01*
X72032629Y-82172629D01*
X72197079Y-82037669D01*
X72384701Y-81937383D01*
X72552740Y-81886409D01*
X72588283Y-81875627D01*
X72588284Y-81875627D01*
X72588287Y-81875626D01*
X72746944Y-81860000D01*
X73253056Y-81860000D01*
X73411713Y-81875626D01*
X73411713Y-81875626D01*
G37*
G36*
X37715560Y-83051886D02*
X37725722Y-83054969D01*
X37735087Y-83059975D01*
X37743292Y-83066708D01*
X37750025Y-83074913D01*
X37755031Y-83084278D01*
X37758114Y-83094440D01*
X37760000Y-83113591D01*
X37760000Y-83786409D01*
X37758114Y-83805560D01*
X37755031Y-83815722D01*
X37750025Y-83825087D01*
X37743292Y-83833292D01*
X37735087Y-83840025D01*
X37725722Y-83845031D01*
X37715560Y-83848114D01*
X37696409Y-83850000D01*
X36303591Y-83850000D01*
X36284440Y-83848114D01*
X36274278Y-83845031D01*
X36264913Y-83840025D01*
X36256708Y-83833292D01*
X36249975Y-83825087D01*
X36244969Y-83815722D01*
X36241886Y-83805560D01*
X36240000Y-83786409D01*
X36240000Y-83113591D01*
X36241886Y-83094440D01*
X36244969Y-83084278D01*
X36249975Y-83074913D01*
X36256708Y-83066708D01*
X36264913Y-83059975D01*
X36274278Y-83054969D01*
X36284440Y-83051886D01*
X36303591Y-83050000D01*
X37696409Y-83050000D01*
X37715560Y-83051886D01*
X37715560Y-83051886D01*
G37*
G36*
X34715560Y-81151886D02*
X34725722Y-81154969D01*
X34735087Y-81159975D01*
X34743292Y-81166708D01*
X34750025Y-81174913D01*
X34755031Y-81184278D01*
X34758114Y-81194440D01*
X34760000Y-81213591D01*
X34760000Y-81886409D01*
X34758114Y-81905560D01*
X34755031Y-81915722D01*
X34743250Y-81937763D01*
X34740079Y-81942509D01*
X34726951Y-81974204D01*
X34720259Y-82007851D01*
X34720260Y-82042157D01*
X34726954Y-82075804D01*
X34740083Y-82107498D01*
X34743253Y-82112242D01*
X34755031Y-82134278D01*
X34758114Y-82144440D01*
X34760000Y-82163591D01*
X34760000Y-82836409D01*
X34758114Y-82855560D01*
X34755031Y-82865722D01*
X34743250Y-82887763D01*
X34740079Y-82892509D01*
X34726951Y-82924204D01*
X34720259Y-82957851D01*
X34720260Y-82992157D01*
X34726954Y-83025804D01*
X34740083Y-83057498D01*
X34743253Y-83062242D01*
X34755031Y-83084278D01*
X34758114Y-83094440D01*
X34760000Y-83113591D01*
X34760000Y-83786409D01*
X34758114Y-83805560D01*
X34755031Y-83815722D01*
X34750025Y-83825087D01*
X34743292Y-83833292D01*
X34735087Y-83840025D01*
X34725722Y-83845031D01*
X34715560Y-83848114D01*
X34696409Y-83850000D01*
X33303591Y-83850000D01*
X33284440Y-83848114D01*
X33274278Y-83845031D01*
X33264913Y-83840025D01*
X33256708Y-83833292D01*
X33249975Y-83825087D01*
X33244969Y-83815722D01*
X33241886Y-83805560D01*
X33240000Y-83786409D01*
X33240000Y-83113591D01*
X33241886Y-83094440D01*
X33244969Y-83084278D01*
X33256750Y-83062237D01*
X33259921Y-83057491D01*
X33273049Y-83025796D01*
X33279741Y-82992149D01*
X33279740Y-82957843D01*
X33273046Y-82924196D01*
X33259917Y-82892502D01*
X33256747Y-82887758D01*
X33244969Y-82865722D01*
X33241886Y-82855560D01*
X33240000Y-82836409D01*
X33240000Y-82163591D01*
X33241886Y-82144440D01*
X33244969Y-82134278D01*
X33256750Y-82112237D01*
X33259921Y-82107491D01*
X33273049Y-82075796D01*
X33279741Y-82042149D01*
X33279740Y-82007843D01*
X33273046Y-81974196D01*
X33259917Y-81942502D01*
X33256747Y-81937758D01*
X33244969Y-81915722D01*
X33241886Y-81905560D01*
X33240000Y-81886409D01*
X33240000Y-81213591D01*
X33241886Y-81194440D01*
X33244969Y-81184278D01*
X33249975Y-81174913D01*
X33256708Y-81166708D01*
X33264913Y-81159975D01*
X33274278Y-81154969D01*
X33284440Y-81151886D01*
X33303591Y-81150000D01*
X34696409Y-81150000D01*
X34715560Y-81151886D01*
X34715560Y-81151886D01*
G37*
G36*
X61946270Y-81724018D02*
X61977242Y-81733414D01*
X62005782Y-81748669D01*
X62030800Y-81769200D01*
X62051331Y-81794218D01*
X62066586Y-81822758D01*
X62075982Y-81853730D01*
X62080000Y-81894529D01*
X62080000Y-83105471D01*
X62075982Y-83146270D01*
X62066586Y-83177242D01*
X62051331Y-83205782D01*
X62030800Y-83230800D01*
X62005782Y-83251331D01*
X61977242Y-83266586D01*
X61946270Y-83275982D01*
X61905471Y-83280000D01*
X60494529Y-83280000D01*
X60453730Y-83275982D01*
X60422758Y-83266586D01*
X60394218Y-83251331D01*
X60369200Y-83230800D01*
X60348669Y-83205782D01*
X60333414Y-83177242D01*
X60324018Y-83146270D01*
X60320000Y-83105471D01*
X60320000Y-81894529D01*
X60324018Y-81853730D01*
X60333414Y-81822758D01*
X60348669Y-81794218D01*
X60369200Y-81769200D01*
X60394218Y-81748669D01*
X60422758Y-81733414D01*
X60453730Y-81724018D01*
X60494529Y-81720000D01*
X61905471Y-81720000D01*
X61946270Y-81724018D01*
X61946270Y-81724018D01*
G37*
G36*
X59546270Y-81724018D02*
X59577242Y-81733414D01*
X59605782Y-81748669D01*
X59630800Y-81769200D01*
X59651331Y-81794218D01*
X59666586Y-81822758D01*
X59675982Y-81853730D01*
X59680000Y-81894529D01*
X59680000Y-83105471D01*
X59675982Y-83146270D01*
X59666586Y-83177242D01*
X59651331Y-83205782D01*
X59630800Y-83230800D01*
X59605782Y-83251331D01*
X59577242Y-83266586D01*
X59546270Y-83275982D01*
X59505471Y-83280000D01*
X58094529Y-83280000D01*
X58053730Y-83275982D01*
X58022758Y-83266586D01*
X57994218Y-83251331D01*
X57969200Y-83230800D01*
X57948669Y-83205782D01*
X57933414Y-83177242D01*
X57924018Y-83146270D01*
X57920000Y-83105471D01*
X57920000Y-81894529D01*
X57924018Y-81853730D01*
X57933414Y-81822758D01*
X57948669Y-81794218D01*
X57969200Y-81769200D01*
X57994218Y-81748669D01*
X58022758Y-81733414D01*
X58053730Y-81724018D01*
X58094529Y-81720000D01*
X59505471Y-81720000D01*
X59546270Y-81724018D01*
X59546270Y-81724018D01*
G37*
G36*
X66046270Y-81724018D02*
X66077242Y-81733414D01*
X66105782Y-81748669D01*
X66130800Y-81769200D01*
X66151331Y-81794218D01*
X66166586Y-81822758D01*
X66175982Y-81853730D01*
X66180000Y-81894529D01*
X66180000Y-83105471D01*
X66175982Y-83146270D01*
X66166586Y-83177242D01*
X66151331Y-83205782D01*
X66130800Y-83230800D01*
X66105782Y-83251331D01*
X66077242Y-83266586D01*
X66046270Y-83275982D01*
X66005471Y-83280000D01*
X64594529Y-83280000D01*
X64553730Y-83275982D01*
X64522758Y-83266586D01*
X64494218Y-83251331D01*
X64469200Y-83230800D01*
X64448669Y-83205782D01*
X64433414Y-83177242D01*
X64424018Y-83146270D01*
X64420000Y-83105471D01*
X64420000Y-81894529D01*
X64424018Y-81853730D01*
X64433414Y-81822758D01*
X64448669Y-81794218D01*
X64469200Y-81769200D01*
X64494218Y-81748669D01*
X64522758Y-81733414D01*
X64553730Y-81724018D01*
X64594529Y-81720000D01*
X66005471Y-81720000D01*
X66046270Y-81724018D01*
X66046270Y-81724018D01*
G37*
G36*
X68446270Y-81724018D02*
X68477242Y-81733414D01*
X68505782Y-81748669D01*
X68530800Y-81769200D01*
X68551331Y-81794218D01*
X68566586Y-81822758D01*
X68575982Y-81853730D01*
X68580000Y-81894529D01*
X68580000Y-83105471D01*
X68575982Y-83146270D01*
X68566586Y-83177242D01*
X68551331Y-83205782D01*
X68530800Y-83230800D01*
X68505782Y-83251331D01*
X68477242Y-83266586D01*
X68446270Y-83275982D01*
X68405471Y-83280000D01*
X66994529Y-83280000D01*
X66953730Y-83275982D01*
X66922758Y-83266586D01*
X66894218Y-83251331D01*
X66869200Y-83230800D01*
X66848669Y-83205782D01*
X66833414Y-83177242D01*
X66824018Y-83146270D01*
X66820000Y-83105471D01*
X66820000Y-81894529D01*
X66824018Y-81853730D01*
X66833414Y-81822758D01*
X66848669Y-81794218D01*
X66869200Y-81769200D01*
X66894218Y-81748669D01*
X66922758Y-81733414D01*
X66953730Y-81724018D01*
X66994529Y-81720000D01*
X68405471Y-81720000D01*
X68446270Y-81724018D01*
X68446270Y-81724018D01*
G37*
G36*
X41046270Y-81724018D02*
X41077242Y-81733414D01*
X41105782Y-81748669D01*
X41130800Y-81769200D01*
X41151331Y-81794218D01*
X41166586Y-81822758D01*
X41175982Y-81853730D01*
X41180000Y-81894529D01*
X41180000Y-83105471D01*
X41175982Y-83146270D01*
X41166586Y-83177242D01*
X41151331Y-83205782D01*
X41130800Y-83230800D01*
X41105782Y-83251331D01*
X41077242Y-83266586D01*
X41046270Y-83275982D01*
X41005471Y-83280000D01*
X39594529Y-83280000D01*
X39553730Y-83275982D01*
X39522758Y-83266586D01*
X39494218Y-83251331D01*
X39469200Y-83230800D01*
X39448669Y-83205782D01*
X39433414Y-83177242D01*
X39424018Y-83146270D01*
X39420000Y-83105471D01*
X39420000Y-81894529D01*
X39424018Y-81853730D01*
X39433414Y-81822758D01*
X39448669Y-81794218D01*
X39469200Y-81769200D01*
X39494218Y-81748669D01*
X39522758Y-81733414D01*
X39553730Y-81724018D01*
X39594529Y-81720000D01*
X41005471Y-81720000D01*
X41046270Y-81724018D01*
X41046270Y-81724018D01*
G37*
G36*
X47046270Y-81724018D02*
X47077242Y-81733414D01*
X47105782Y-81748669D01*
X47130800Y-81769200D01*
X47151331Y-81794218D01*
X47166586Y-81822758D01*
X47175982Y-81853730D01*
X47180000Y-81894529D01*
X47180000Y-83105471D01*
X47175982Y-83146270D01*
X47166586Y-83177242D01*
X47151331Y-83205782D01*
X47130800Y-83230800D01*
X47105782Y-83251331D01*
X47077242Y-83266586D01*
X47046270Y-83275982D01*
X47005471Y-83280000D01*
X45594529Y-83280000D01*
X45553730Y-83275982D01*
X45522758Y-83266586D01*
X45494218Y-83251331D01*
X45469200Y-83230800D01*
X45448669Y-83205782D01*
X45433414Y-83177242D01*
X45424018Y-83146270D01*
X45420000Y-83105471D01*
X45420000Y-81894529D01*
X45424018Y-81853730D01*
X45433414Y-81822758D01*
X45448669Y-81794218D01*
X45469200Y-81769200D01*
X45494218Y-81748669D01*
X45522758Y-81733414D01*
X45553730Y-81724018D01*
X45594529Y-81720000D01*
X47005471Y-81720000D01*
X47046270Y-81724018D01*
X47046270Y-81724018D01*
G37*
G36*
X49446270Y-81724018D02*
X49477242Y-81733414D01*
X49505782Y-81748669D01*
X49530800Y-81769200D01*
X49551331Y-81794218D01*
X49566586Y-81822758D01*
X49575982Y-81853730D01*
X49580000Y-81894529D01*
X49580000Y-83105471D01*
X49575982Y-83146270D01*
X49566586Y-83177242D01*
X49551331Y-83205782D01*
X49530800Y-83230800D01*
X49505782Y-83251331D01*
X49477242Y-83266586D01*
X49446270Y-83275982D01*
X49405471Y-83280000D01*
X47994529Y-83280000D01*
X47953730Y-83275982D01*
X47922758Y-83266586D01*
X47894218Y-83251331D01*
X47869200Y-83230800D01*
X47848669Y-83205782D01*
X47833414Y-83177242D01*
X47824018Y-83146270D01*
X47820000Y-83105471D01*
X47820000Y-81894529D01*
X47824018Y-81853730D01*
X47833414Y-81822758D01*
X47848669Y-81794218D01*
X47869200Y-81769200D01*
X47894218Y-81748669D01*
X47922758Y-81733414D01*
X47953730Y-81724018D01*
X47994529Y-81720000D01*
X49405471Y-81720000D01*
X49446270Y-81724018D01*
X49446270Y-81724018D01*
G37*
G36*
X53046270Y-81724018D02*
X53077242Y-81733414D01*
X53105782Y-81748669D01*
X53130800Y-81769200D01*
X53151331Y-81794218D01*
X53166586Y-81822758D01*
X53175982Y-81853730D01*
X53180000Y-81894529D01*
X53180000Y-83105471D01*
X53175982Y-83146270D01*
X53166586Y-83177242D01*
X53151331Y-83205782D01*
X53130800Y-83230800D01*
X53105782Y-83251331D01*
X53077242Y-83266586D01*
X53046270Y-83275982D01*
X53005471Y-83280000D01*
X51594529Y-83280000D01*
X51553730Y-83275982D01*
X51522758Y-83266586D01*
X51494218Y-83251331D01*
X51469200Y-83230800D01*
X51448669Y-83205782D01*
X51433414Y-83177242D01*
X51424018Y-83146270D01*
X51420000Y-83105471D01*
X51420000Y-81894529D01*
X51424018Y-81853730D01*
X51433414Y-81822758D01*
X51448669Y-81794218D01*
X51469200Y-81769200D01*
X51494218Y-81748669D01*
X51522758Y-81733414D01*
X51553730Y-81724018D01*
X51594529Y-81720000D01*
X53005471Y-81720000D01*
X53046270Y-81724018D01*
X53046270Y-81724018D01*
G37*
G36*
X43446270Y-81724018D02*
X43477242Y-81733414D01*
X43505782Y-81748669D01*
X43530800Y-81769200D01*
X43551331Y-81794218D01*
X43566586Y-81822758D01*
X43575982Y-81853730D01*
X43580000Y-81894529D01*
X43580000Y-83105471D01*
X43575982Y-83146270D01*
X43566586Y-83177242D01*
X43551331Y-83205782D01*
X43530800Y-83230800D01*
X43505782Y-83251331D01*
X43477242Y-83266586D01*
X43446270Y-83275982D01*
X43405471Y-83280000D01*
X41994529Y-83280000D01*
X41953730Y-83275982D01*
X41922758Y-83266586D01*
X41894218Y-83251331D01*
X41869200Y-83230800D01*
X41848669Y-83205782D01*
X41833414Y-83177242D01*
X41824018Y-83146270D01*
X41820000Y-83105471D01*
X41820000Y-81894529D01*
X41824018Y-81853730D01*
X41833414Y-81822758D01*
X41848669Y-81794218D01*
X41869200Y-81769200D01*
X41894218Y-81748669D01*
X41922758Y-81733414D01*
X41953730Y-81724018D01*
X41994529Y-81720000D01*
X43405471Y-81720000D01*
X43446270Y-81724018D01*
X43446270Y-81724018D01*
G37*
G36*
X55446270Y-81724018D02*
X55477242Y-81733414D01*
X55505782Y-81748669D01*
X55530800Y-81769200D01*
X55551331Y-81794218D01*
X55566586Y-81822758D01*
X55575982Y-81853730D01*
X55580000Y-81894529D01*
X55580000Y-83105471D01*
X55575982Y-83146270D01*
X55566586Y-83177242D01*
X55551331Y-83205782D01*
X55530800Y-83230800D01*
X55505782Y-83251331D01*
X55477242Y-83266586D01*
X55446270Y-83275982D01*
X55405471Y-83280000D01*
X53994529Y-83280000D01*
X53953730Y-83275982D01*
X53922758Y-83266586D01*
X53894218Y-83251331D01*
X53869200Y-83230800D01*
X53848669Y-83205782D01*
X53833414Y-83177242D01*
X53824018Y-83146270D01*
X53820000Y-83105471D01*
X53820000Y-81894529D01*
X53824018Y-81853730D01*
X53833414Y-81822758D01*
X53848669Y-81794218D01*
X53869200Y-81769200D01*
X53894218Y-81748669D01*
X53922758Y-81733414D01*
X53953730Y-81724018D01*
X53994529Y-81720000D01*
X55405471Y-81720000D01*
X55446270Y-81724018D01*
X55446270Y-81724018D01*
G37*
G36*
X37715560Y-81151886D02*
X37725722Y-81154969D01*
X37735087Y-81159975D01*
X37743292Y-81166708D01*
X37750025Y-81174913D01*
X37755031Y-81184278D01*
X37758114Y-81194440D01*
X37760000Y-81213591D01*
X37760000Y-81886409D01*
X37758114Y-81905560D01*
X37755031Y-81915722D01*
X37750025Y-81925087D01*
X37743292Y-81933292D01*
X37735087Y-81940025D01*
X37725722Y-81945031D01*
X37715560Y-81948114D01*
X37696409Y-81950000D01*
X36303591Y-81950000D01*
X36284440Y-81948114D01*
X36274278Y-81945031D01*
X36264913Y-81940025D01*
X36256708Y-81933292D01*
X36249975Y-81925087D01*
X36244969Y-81915722D01*
X36241886Y-81905560D01*
X36240000Y-81886409D01*
X36240000Y-81213591D01*
X36241886Y-81194440D01*
X36244969Y-81184278D01*
X36249975Y-81174913D01*
X36256708Y-81166708D01*
X36264913Y-81159975D01*
X36274278Y-81154969D01*
X36284440Y-81151886D01*
X36303591Y-81150000D01*
X37696409Y-81150000D01*
X37715560Y-81151886D01*
X37715560Y-81151886D01*
G37*
G36*
X73411713Y-79335626D02*
X73411716Y-79335627D01*
X73411717Y-79335627D01*
X73452505Y-79348000D01*
X73615299Y-79397383D01*
X73802921Y-79497669D01*
X73967371Y-79632629D01*
X74102331Y-79797079D01*
X74202617Y-79984701D01*
X74264374Y-80188287D01*
X74285226Y-80400000D01*
X74264374Y-80611713D01*
X74202617Y-80815299D01*
X74102331Y-81002921D01*
X73967371Y-81167371D01*
X73802921Y-81302331D01*
X73615299Y-81402617D01*
X73495786Y-81438871D01*
X73411717Y-81464373D01*
X73411716Y-81464373D01*
X73411713Y-81464374D01*
X73253056Y-81480000D01*
X72746944Y-81480000D01*
X72588287Y-81464374D01*
X72588284Y-81464373D01*
X72588283Y-81464373D01*
X72504214Y-81438871D01*
X72384701Y-81402617D01*
X72197079Y-81302331D01*
X72032629Y-81167371D01*
X71897669Y-81002921D01*
X71797383Y-80815299D01*
X71735626Y-80611713D01*
X71714774Y-80400000D01*
X71735626Y-80188287D01*
X71797383Y-79984701D01*
X71897669Y-79797079D01*
X72032629Y-79632629D01*
X72197079Y-79497669D01*
X72384701Y-79397383D01*
X72547495Y-79348000D01*
X72588283Y-79335627D01*
X72588284Y-79335627D01*
X72588287Y-79335626D01*
X72746944Y-79320000D01*
X73253056Y-79320000D01*
X73411713Y-79335626D01*
X73411713Y-79335626D01*
G37*
G36*
X46977611Y-79373271D02*
X47001276Y-79380449D01*
X47023086Y-79392107D01*
X47042204Y-79407796D01*
X47057893Y-79426914D01*
X47069551Y-79448724D01*
X47076729Y-79472389D01*
X47080000Y-79505595D01*
X47080000Y-80394405D01*
X47076729Y-80427611D01*
X47069551Y-80451276D01*
X47057893Y-80473086D01*
X47042204Y-80492204D01*
X47023086Y-80507893D01*
X47001276Y-80519551D01*
X46977611Y-80526729D01*
X46944405Y-80530000D01*
X45655595Y-80530000D01*
X45622389Y-80526729D01*
X45598724Y-80519551D01*
X45576914Y-80507893D01*
X45557796Y-80492204D01*
X45542107Y-80473086D01*
X45530449Y-80451276D01*
X45523271Y-80427611D01*
X45520000Y-80394405D01*
X45520000Y-79505595D01*
X45523271Y-79472389D01*
X45530449Y-79448724D01*
X45542107Y-79426914D01*
X45557796Y-79407796D01*
X45576914Y-79392107D01*
X45598724Y-79380449D01*
X45622389Y-79373271D01*
X45655595Y-79370000D01*
X46944405Y-79370000D01*
X46977611Y-79373271D01*
X46977611Y-79373271D01*
G37*
G36*
X30293496Y-78075278D02*
X30336768Y-78088405D01*
X30376642Y-78109718D01*
X30411596Y-78138404D01*
X30440282Y-78173358D01*
X30461595Y-78213232D01*
X30474722Y-78256504D01*
X30480000Y-78310095D01*
X30480000Y-80189905D01*
X30474722Y-80243496D01*
X30461595Y-80286768D01*
X30440282Y-80326642D01*
X30411596Y-80361596D01*
X30376642Y-80390282D01*
X30336768Y-80411595D01*
X30293496Y-80424722D01*
X30239905Y-80430000D01*
X27760095Y-80430000D01*
X27706504Y-80424722D01*
X27663232Y-80411595D01*
X27623358Y-80390282D01*
X27588404Y-80361596D01*
X27559718Y-80326642D01*
X27538405Y-80286768D01*
X27525278Y-80243496D01*
X27520000Y-80189905D01*
X27520000Y-78310095D01*
X27525278Y-78256504D01*
X27538405Y-78213232D01*
X27559718Y-78173358D01*
X27588404Y-78138404D01*
X27623358Y-78109718D01*
X27663232Y-78088405D01*
X27706504Y-78075278D01*
X27760095Y-78070000D01*
X30239905Y-78070000D01*
X30293496Y-78075278D01*
X30293496Y-78075278D01*
G37*
G36*
X55715560Y-79551886D02*
X55725722Y-79554969D01*
X55735087Y-79559975D01*
X55743292Y-79566708D01*
X55750025Y-79574913D01*
X55755031Y-79584278D01*
X55758114Y-79594440D01*
X55760000Y-79613591D01*
X55760000Y-80286409D01*
X55758114Y-80305560D01*
X55755031Y-80315722D01*
X55750025Y-80325087D01*
X55743292Y-80333292D01*
X55735087Y-80340025D01*
X55725722Y-80345031D01*
X55715560Y-80348114D01*
X55696409Y-80350000D01*
X54303591Y-80350000D01*
X54284440Y-80348114D01*
X54274278Y-80345031D01*
X54264913Y-80340025D01*
X54256708Y-80333292D01*
X54249975Y-80325087D01*
X54244969Y-80315722D01*
X54241886Y-80305560D01*
X54240000Y-80286409D01*
X54240000Y-79613591D01*
X54241886Y-79594440D01*
X54244969Y-79584278D01*
X54249975Y-79574913D01*
X54256708Y-79566708D01*
X54264913Y-79559975D01*
X54274278Y-79554969D01*
X54284440Y-79551886D01*
X54303591Y-79550000D01*
X55696409Y-79550000D01*
X55715560Y-79551886D01*
X55715560Y-79551886D01*
G37*
G36*
X62215560Y-79551886D02*
X62225722Y-79554969D01*
X62235087Y-79559975D01*
X62243292Y-79566708D01*
X62250025Y-79574913D01*
X62255031Y-79584278D01*
X62258114Y-79594440D01*
X62260000Y-79613591D01*
X62260000Y-80286409D01*
X62258114Y-80305560D01*
X62255031Y-80315722D01*
X62250025Y-80325087D01*
X62243292Y-80333292D01*
X62235087Y-80340025D01*
X62225722Y-80345031D01*
X62215560Y-80348114D01*
X62196409Y-80350000D01*
X60803591Y-80350000D01*
X60784440Y-80348114D01*
X60774278Y-80345031D01*
X60764913Y-80340025D01*
X60756708Y-80333292D01*
X60749975Y-80325087D01*
X60744969Y-80315722D01*
X60741886Y-80305560D01*
X60740000Y-80286409D01*
X60740000Y-79613591D01*
X60741886Y-79594440D01*
X60744969Y-79584278D01*
X60749975Y-79574913D01*
X60756708Y-79566708D01*
X60764913Y-79559975D01*
X60774278Y-79554969D01*
X60784440Y-79551886D01*
X60803591Y-79550000D01*
X62196409Y-79550000D01*
X62215560Y-79551886D01*
X62215560Y-79551886D01*
G37*
G36*
X52715560Y-77651886D02*
X52725722Y-77654969D01*
X52735087Y-77659975D01*
X52743292Y-77666708D01*
X52750025Y-77674913D01*
X52755031Y-77684278D01*
X52758114Y-77694440D01*
X52760000Y-77713591D01*
X52760000Y-78386409D01*
X52758114Y-78405560D01*
X52755031Y-78415722D01*
X52743250Y-78437763D01*
X52740079Y-78442509D01*
X52726951Y-78474204D01*
X52720259Y-78507851D01*
X52720260Y-78542157D01*
X52726954Y-78575804D01*
X52740083Y-78607498D01*
X52743253Y-78612242D01*
X52755031Y-78634278D01*
X52758114Y-78644440D01*
X52760000Y-78663591D01*
X52760000Y-79336409D01*
X52758114Y-79355560D01*
X52755031Y-79365722D01*
X52743250Y-79387763D01*
X52740079Y-79392509D01*
X52726951Y-79424204D01*
X52720259Y-79457851D01*
X52720260Y-79492157D01*
X52726954Y-79525804D01*
X52740083Y-79557498D01*
X52743253Y-79562242D01*
X52755031Y-79584278D01*
X52758114Y-79594440D01*
X52760000Y-79613591D01*
X52760000Y-80286409D01*
X52758114Y-80305560D01*
X52755031Y-80315722D01*
X52750025Y-80325087D01*
X52743292Y-80333292D01*
X52735087Y-80340025D01*
X52725722Y-80345031D01*
X52715560Y-80348114D01*
X52696409Y-80350000D01*
X51303591Y-80350000D01*
X51284440Y-80348114D01*
X51274278Y-80345031D01*
X51264913Y-80340025D01*
X51256708Y-80333292D01*
X51249975Y-80325087D01*
X51244969Y-80315722D01*
X51241886Y-80305560D01*
X51240000Y-80286409D01*
X51240000Y-79613591D01*
X51241886Y-79594440D01*
X51244969Y-79584278D01*
X51256750Y-79562237D01*
X51259921Y-79557491D01*
X51273049Y-79525796D01*
X51279741Y-79492149D01*
X51279740Y-79457843D01*
X51273046Y-79424196D01*
X51259917Y-79392502D01*
X51256747Y-79387758D01*
X51244969Y-79365722D01*
X51241886Y-79355560D01*
X51240000Y-79336409D01*
X51240000Y-78663591D01*
X51241886Y-78644440D01*
X51244969Y-78634278D01*
X51256750Y-78612237D01*
X51259921Y-78607491D01*
X51273049Y-78575796D01*
X51279741Y-78542149D01*
X51279740Y-78507843D01*
X51273046Y-78474196D01*
X51259917Y-78442502D01*
X51256747Y-78437758D01*
X51244969Y-78415722D01*
X51241886Y-78405560D01*
X51240000Y-78386409D01*
X51240000Y-77713591D01*
X51241886Y-77694440D01*
X51244969Y-77684278D01*
X51249975Y-77674913D01*
X51256708Y-77666708D01*
X51264913Y-77659975D01*
X51274278Y-77654969D01*
X51284440Y-77651886D01*
X51303591Y-77650000D01*
X52696409Y-77650000D01*
X52715560Y-77651886D01*
X52715560Y-77651886D01*
G37*
G36*
X59215560Y-77651886D02*
X59225722Y-77654969D01*
X59235087Y-77659975D01*
X59243292Y-77666708D01*
X59250025Y-77674913D01*
X59255031Y-77684278D01*
X59258114Y-77694440D01*
X59260000Y-77713591D01*
X59260000Y-78386409D01*
X59258114Y-78405560D01*
X59255031Y-78415722D01*
X59243250Y-78437763D01*
X59240079Y-78442509D01*
X59226951Y-78474204D01*
X59220259Y-78507851D01*
X59220260Y-78542157D01*
X59226954Y-78575804D01*
X59240083Y-78607498D01*
X59243253Y-78612242D01*
X59255031Y-78634278D01*
X59258114Y-78644440D01*
X59260000Y-78663591D01*
X59260000Y-79336409D01*
X59258114Y-79355560D01*
X59255031Y-79365722D01*
X59243250Y-79387763D01*
X59240079Y-79392509D01*
X59226951Y-79424204D01*
X59220259Y-79457851D01*
X59220260Y-79492157D01*
X59226954Y-79525804D01*
X59240083Y-79557498D01*
X59243253Y-79562242D01*
X59255031Y-79584278D01*
X59258114Y-79594440D01*
X59260000Y-79613591D01*
X59260000Y-80286409D01*
X59258114Y-80305560D01*
X59255031Y-80315722D01*
X59250025Y-80325087D01*
X59243292Y-80333292D01*
X59235087Y-80340025D01*
X59225722Y-80345031D01*
X59215560Y-80348114D01*
X59196409Y-80350000D01*
X57803591Y-80350000D01*
X57784440Y-80348114D01*
X57774278Y-80345031D01*
X57764913Y-80340025D01*
X57756708Y-80333292D01*
X57749975Y-80325087D01*
X57744969Y-80315722D01*
X57741886Y-80305560D01*
X57740000Y-80286409D01*
X57740000Y-79613591D01*
X57741886Y-79594440D01*
X57744969Y-79584278D01*
X57756750Y-79562237D01*
X57759921Y-79557491D01*
X57773049Y-79525796D01*
X57779741Y-79492149D01*
X57779740Y-79457843D01*
X57773046Y-79424196D01*
X57759917Y-79392502D01*
X57756747Y-79387758D01*
X57744969Y-79365722D01*
X57741886Y-79355560D01*
X57740000Y-79336409D01*
X57740000Y-78663591D01*
X57741886Y-78644440D01*
X57744969Y-78634278D01*
X57756750Y-78612237D01*
X57759921Y-78607491D01*
X57773049Y-78575796D01*
X57779741Y-78542149D01*
X57779740Y-78507843D01*
X57773046Y-78474196D01*
X57759917Y-78442502D01*
X57756747Y-78437758D01*
X57744969Y-78415722D01*
X57741886Y-78405560D01*
X57740000Y-78386409D01*
X57740000Y-77713591D01*
X57741886Y-77694440D01*
X57744969Y-77684278D01*
X57749975Y-77674913D01*
X57756708Y-77666708D01*
X57764913Y-77659975D01*
X57774278Y-77654969D01*
X57784440Y-77651886D01*
X57803591Y-77650000D01*
X59196409Y-77650000D01*
X59215560Y-77651886D01*
X59215560Y-77651886D01*
G37*
G36*
X37446270Y-78224018D02*
X37477242Y-78233414D01*
X37505782Y-78248669D01*
X37530800Y-78269200D01*
X37551331Y-78294218D01*
X37566586Y-78322758D01*
X37575982Y-78353730D01*
X37580000Y-78394529D01*
X37580000Y-79605471D01*
X37575982Y-79646270D01*
X37566586Y-79677242D01*
X37551331Y-79705782D01*
X37530800Y-79730800D01*
X37505782Y-79751331D01*
X37477242Y-79766586D01*
X37446270Y-79775982D01*
X37405471Y-79780000D01*
X35994529Y-79780000D01*
X35953730Y-79775982D01*
X35922758Y-79766586D01*
X35894218Y-79751331D01*
X35869200Y-79730800D01*
X35848669Y-79705782D01*
X35833414Y-79677242D01*
X35824018Y-79646270D01*
X35820000Y-79605471D01*
X35820000Y-78394529D01*
X35824018Y-78353730D01*
X35833414Y-78322758D01*
X35848669Y-78294218D01*
X35869200Y-78269200D01*
X35894218Y-78248669D01*
X35922758Y-78233414D01*
X35953730Y-78224018D01*
X35994529Y-78220000D01*
X37405471Y-78220000D01*
X37446270Y-78224018D01*
X37446270Y-78224018D01*
G37*
G36*
X35046270Y-78224018D02*
X35077242Y-78233414D01*
X35105782Y-78248669D01*
X35130800Y-78269200D01*
X35151331Y-78294218D01*
X35166586Y-78322758D01*
X35175982Y-78353730D01*
X35180000Y-78394529D01*
X35180000Y-79605471D01*
X35175982Y-79646270D01*
X35166586Y-79677242D01*
X35151331Y-79705782D01*
X35130800Y-79730800D01*
X35105782Y-79751331D01*
X35077242Y-79766586D01*
X35046270Y-79775982D01*
X35005471Y-79780000D01*
X33594529Y-79780000D01*
X33553730Y-79775982D01*
X33522758Y-79766586D01*
X33494218Y-79751331D01*
X33469200Y-79730800D01*
X33448669Y-79705782D01*
X33433414Y-79677242D01*
X33424018Y-79646270D01*
X33420000Y-79605471D01*
X33420000Y-78394529D01*
X33424018Y-78353730D01*
X33433414Y-78322758D01*
X33448669Y-78294218D01*
X33469200Y-78269200D01*
X33494218Y-78248669D01*
X33522758Y-78233414D01*
X33553730Y-78224018D01*
X33594529Y-78220000D01*
X35005471Y-78220000D01*
X35046270Y-78224018D01*
X35046270Y-78224018D01*
G37*
G36*
X43446270Y-78224018D02*
X43477242Y-78233414D01*
X43505782Y-78248669D01*
X43530800Y-78269200D01*
X43551331Y-78294218D01*
X43566586Y-78322758D01*
X43575982Y-78353730D01*
X43580000Y-78394529D01*
X43580000Y-79605471D01*
X43575982Y-79646270D01*
X43566586Y-79677242D01*
X43551331Y-79705782D01*
X43530800Y-79730800D01*
X43505782Y-79751331D01*
X43477242Y-79766586D01*
X43446270Y-79775982D01*
X43405471Y-79780000D01*
X41994529Y-79780000D01*
X41953730Y-79775982D01*
X41922758Y-79766586D01*
X41894218Y-79751331D01*
X41869200Y-79730800D01*
X41848669Y-79705782D01*
X41833414Y-79677242D01*
X41824018Y-79646270D01*
X41820000Y-79605471D01*
X41820000Y-78394529D01*
X41824018Y-78353730D01*
X41833414Y-78322758D01*
X41848669Y-78294218D01*
X41869200Y-78269200D01*
X41894218Y-78248669D01*
X41922758Y-78233414D01*
X41953730Y-78224018D01*
X41994529Y-78220000D01*
X43405471Y-78220000D01*
X43446270Y-78224018D01*
X43446270Y-78224018D01*
G37*
G36*
X41046270Y-78224018D02*
X41077242Y-78233414D01*
X41105782Y-78248669D01*
X41130800Y-78269200D01*
X41151331Y-78294218D01*
X41166586Y-78322758D01*
X41175982Y-78353730D01*
X41180000Y-78394529D01*
X41180000Y-79605471D01*
X41175982Y-79646270D01*
X41166586Y-79677242D01*
X41151331Y-79705782D01*
X41130800Y-79730800D01*
X41105782Y-79751331D01*
X41077242Y-79766586D01*
X41046270Y-79775982D01*
X41005471Y-79780000D01*
X39594529Y-79780000D01*
X39553730Y-79775982D01*
X39522758Y-79766586D01*
X39494218Y-79751331D01*
X39469200Y-79730800D01*
X39448669Y-79705782D01*
X39433414Y-79677242D01*
X39424018Y-79646270D01*
X39420000Y-79605471D01*
X39420000Y-78394529D01*
X39424018Y-78353730D01*
X39433414Y-78322758D01*
X39448669Y-78294218D01*
X39469200Y-78269200D01*
X39494218Y-78248669D01*
X39522758Y-78233414D01*
X39553730Y-78224018D01*
X39594529Y-78220000D01*
X41005471Y-78220000D01*
X41046270Y-78224018D01*
X41046270Y-78224018D01*
G37*
G36*
X66046270Y-78224018D02*
X66077242Y-78233414D01*
X66105782Y-78248669D01*
X66130800Y-78269200D01*
X66151331Y-78294218D01*
X66166586Y-78322758D01*
X66175982Y-78353730D01*
X66180000Y-78394529D01*
X66180000Y-79605471D01*
X66175982Y-79646270D01*
X66166586Y-79677242D01*
X66151331Y-79705782D01*
X66130800Y-79730800D01*
X66105782Y-79751331D01*
X66077242Y-79766586D01*
X66046270Y-79775982D01*
X66005471Y-79780000D01*
X64594529Y-79780000D01*
X64553730Y-79775982D01*
X64522758Y-79766586D01*
X64494218Y-79751331D01*
X64469200Y-79730800D01*
X64448669Y-79705782D01*
X64433414Y-79677242D01*
X64424018Y-79646270D01*
X64420000Y-79605471D01*
X64420000Y-78394529D01*
X64424018Y-78353730D01*
X64433414Y-78322758D01*
X64448669Y-78294218D01*
X64469200Y-78269200D01*
X64494218Y-78248669D01*
X64522758Y-78233414D01*
X64553730Y-78224018D01*
X64594529Y-78220000D01*
X66005471Y-78220000D01*
X66046270Y-78224018D01*
X66046270Y-78224018D01*
G37*
G36*
X68446270Y-78224018D02*
X68477242Y-78233414D01*
X68505782Y-78248669D01*
X68530800Y-78269200D01*
X68551331Y-78294218D01*
X68566586Y-78322758D01*
X68575982Y-78353730D01*
X68580000Y-78394529D01*
X68580000Y-79605471D01*
X68575982Y-79646270D01*
X68566586Y-79677242D01*
X68551331Y-79705782D01*
X68530800Y-79730800D01*
X68505782Y-79751331D01*
X68477242Y-79766586D01*
X68446270Y-79775982D01*
X68405471Y-79780000D01*
X66994529Y-79780000D01*
X66953730Y-79775982D01*
X66922758Y-79766586D01*
X66894218Y-79751331D01*
X66869200Y-79730800D01*
X66848669Y-79705782D01*
X66833414Y-79677242D01*
X66824018Y-79646270D01*
X66820000Y-79605471D01*
X66820000Y-78394529D01*
X66824018Y-78353730D01*
X66833414Y-78322758D01*
X66848669Y-78294218D01*
X66869200Y-78269200D01*
X66894218Y-78248669D01*
X66922758Y-78233414D01*
X66953730Y-78224018D01*
X66994529Y-78220000D01*
X68405471Y-78220000D01*
X68446270Y-78224018D01*
X68446270Y-78224018D01*
G37*
G36*
X49377611Y-78423271D02*
X49401276Y-78430449D01*
X49423086Y-78442107D01*
X49442204Y-78457796D01*
X49457893Y-78476914D01*
X49469551Y-78498724D01*
X49476729Y-78522389D01*
X49480000Y-78555595D01*
X49480000Y-79444405D01*
X49476729Y-79477611D01*
X49469551Y-79501276D01*
X49457893Y-79523086D01*
X49442204Y-79542204D01*
X49423086Y-79557893D01*
X49401276Y-79569551D01*
X49377611Y-79576729D01*
X49344405Y-79580000D01*
X48055595Y-79580000D01*
X48022389Y-79576729D01*
X47998724Y-79569551D01*
X47976914Y-79557893D01*
X47957796Y-79542204D01*
X47942107Y-79523086D01*
X47930449Y-79501276D01*
X47923271Y-79477611D01*
X47920000Y-79444405D01*
X47920000Y-78555595D01*
X47923271Y-78522389D01*
X47930449Y-78498724D01*
X47942107Y-78476914D01*
X47957796Y-78457796D01*
X47976914Y-78442107D01*
X47998724Y-78430449D01*
X48022389Y-78423271D01*
X48055595Y-78420000D01*
X49344405Y-78420000D01*
X49377611Y-78423271D01*
X49377611Y-78423271D01*
G37*
G36*
X73411713Y-76795626D02*
X73411716Y-76795627D01*
X73411717Y-76795627D01*
X73495786Y-76821129D01*
X73615299Y-76857383D01*
X73802921Y-76957669D01*
X73967371Y-77092629D01*
X74102331Y-77257079D01*
X74202617Y-77444701D01*
X74264374Y-77648287D01*
X74285226Y-77860000D01*
X74264374Y-78071713D01*
X74264373Y-78071716D01*
X74264373Y-78071717D01*
X74252845Y-78109718D01*
X74202617Y-78275299D01*
X74102331Y-78462921D01*
X73967371Y-78627371D01*
X73802921Y-78762331D01*
X73615299Y-78862617D01*
X73495786Y-78898871D01*
X73411717Y-78924373D01*
X73411716Y-78924373D01*
X73411713Y-78924374D01*
X73253056Y-78940000D01*
X72746944Y-78940000D01*
X72588287Y-78924374D01*
X72588284Y-78924373D01*
X72588283Y-78924373D01*
X72504214Y-78898871D01*
X72384701Y-78862617D01*
X72197079Y-78762331D01*
X72032629Y-78627371D01*
X71897669Y-78462921D01*
X71797383Y-78275299D01*
X71747155Y-78109718D01*
X71735627Y-78071717D01*
X71735627Y-78071716D01*
X71735626Y-78071713D01*
X71714774Y-77860000D01*
X71735626Y-77648287D01*
X71797383Y-77444701D01*
X71897669Y-77257079D01*
X72032629Y-77092629D01*
X72197079Y-76957669D01*
X72384701Y-76857383D01*
X72504214Y-76821129D01*
X72588283Y-76795627D01*
X72588284Y-76795627D01*
X72588287Y-76795626D01*
X72746944Y-76780000D01*
X73253056Y-76780000D01*
X73411713Y-76795626D01*
X73411713Y-76795626D01*
G37*
G36*
X46977611Y-77473271D02*
X47001276Y-77480449D01*
X47023086Y-77492107D01*
X47042204Y-77507796D01*
X47057893Y-77526914D01*
X47069551Y-77548724D01*
X47076729Y-77572389D01*
X47080000Y-77605595D01*
X47080000Y-78494405D01*
X47076729Y-78527611D01*
X47069551Y-78551276D01*
X47057893Y-78573086D01*
X47042204Y-78592204D01*
X47023086Y-78607893D01*
X47001276Y-78619551D01*
X46977611Y-78626729D01*
X46944405Y-78630000D01*
X45655595Y-78630000D01*
X45622389Y-78626729D01*
X45598724Y-78619551D01*
X45576914Y-78607893D01*
X45557796Y-78592204D01*
X45542107Y-78573086D01*
X45530449Y-78551276D01*
X45523271Y-78527611D01*
X45520000Y-78494405D01*
X45520000Y-77605595D01*
X45523271Y-77572389D01*
X45530449Y-77548724D01*
X45542107Y-77526914D01*
X45557796Y-77507796D01*
X45576914Y-77492107D01*
X45598724Y-77480449D01*
X45622389Y-77473271D01*
X45655595Y-77470000D01*
X46944405Y-77470000D01*
X46977611Y-77473271D01*
X46977611Y-77473271D01*
G37*
G36*
X55715560Y-77651886D02*
X55725722Y-77654969D01*
X55735087Y-77659975D01*
X55743292Y-77666708D01*
X55750025Y-77674913D01*
X55755031Y-77684278D01*
X55758114Y-77694440D01*
X55760000Y-77713591D01*
X55760000Y-78386409D01*
X55758114Y-78405560D01*
X55755031Y-78415722D01*
X55750025Y-78425087D01*
X55743292Y-78433292D01*
X55735087Y-78440025D01*
X55725722Y-78445031D01*
X55715560Y-78448114D01*
X55696409Y-78450000D01*
X54303591Y-78450000D01*
X54284440Y-78448114D01*
X54274278Y-78445031D01*
X54264913Y-78440025D01*
X54256708Y-78433292D01*
X54249975Y-78425087D01*
X54244969Y-78415722D01*
X54241886Y-78405560D01*
X54240000Y-78386409D01*
X54240000Y-77713591D01*
X54241886Y-77694440D01*
X54244969Y-77684278D01*
X54249975Y-77674913D01*
X54256708Y-77666708D01*
X54264913Y-77659975D01*
X54274278Y-77654969D01*
X54284440Y-77651886D01*
X54303591Y-77650000D01*
X55696409Y-77650000D01*
X55715560Y-77651886D01*
X55715560Y-77651886D01*
G37*
G36*
X62215560Y-77651886D02*
X62225722Y-77654969D01*
X62235087Y-77659975D01*
X62243292Y-77666708D01*
X62250025Y-77674913D01*
X62255031Y-77684278D01*
X62258114Y-77694440D01*
X62260000Y-77713591D01*
X62260000Y-78386409D01*
X62258114Y-78405560D01*
X62255031Y-78415722D01*
X62250025Y-78425087D01*
X62243292Y-78433292D01*
X62235087Y-78440025D01*
X62225722Y-78445031D01*
X62215560Y-78448114D01*
X62196409Y-78450000D01*
X60803591Y-78450000D01*
X60784440Y-78448114D01*
X60774278Y-78445031D01*
X60764913Y-78440025D01*
X60756708Y-78433292D01*
X60749975Y-78425087D01*
X60744969Y-78415722D01*
X60741886Y-78405560D01*
X60740000Y-78386409D01*
X60740000Y-77713591D01*
X60741886Y-77694440D01*
X60744969Y-77684278D01*
X60749975Y-77674913D01*
X60756708Y-77666708D01*
X60764913Y-77659975D01*
X60774278Y-77654969D01*
X60784440Y-77651886D01*
X60803591Y-77650000D01*
X62196409Y-77650000D01*
X62215560Y-77651886D01*
X62215560Y-77651886D01*
G37*
G36*
X65555746Y-74523792D02*
X65584511Y-74532518D01*
X65611017Y-74546686D01*
X65634249Y-74565751D01*
X65653314Y-74588983D01*
X65667482Y-74615489D01*
X65676208Y-74644254D01*
X65680000Y-74682755D01*
X65680000Y-76317245D01*
X65676208Y-76355746D01*
X65667482Y-76384511D01*
X65653314Y-76411017D01*
X65634249Y-76434249D01*
X65611017Y-76453314D01*
X65584511Y-76467482D01*
X65555746Y-76476208D01*
X65517245Y-76480000D01*
X64082755Y-76480000D01*
X64044254Y-76476208D01*
X64015489Y-76467482D01*
X63988983Y-76453314D01*
X63965751Y-76434249D01*
X63946686Y-76411017D01*
X63932518Y-76384511D01*
X63923792Y-76355746D01*
X63920000Y-76317245D01*
X63920000Y-74682755D01*
X63923792Y-74644254D01*
X63932518Y-74615489D01*
X63946686Y-74588983D01*
X63965751Y-74565751D01*
X63988983Y-74546686D01*
X64015489Y-74532518D01*
X64044254Y-74523792D01*
X64082755Y-74520000D01*
X65517245Y-74520000D01*
X65555746Y-74523792D01*
X65555746Y-74523792D01*
G37*
G36*
X68955746Y-74523792D02*
X68984511Y-74532518D01*
X69011017Y-74546686D01*
X69034249Y-74565751D01*
X69053314Y-74588983D01*
X69067482Y-74615489D01*
X69076208Y-74644254D01*
X69080000Y-74682755D01*
X69080000Y-76317245D01*
X69076208Y-76355746D01*
X69067482Y-76384511D01*
X69053314Y-76411017D01*
X69034249Y-76434249D01*
X69011017Y-76453314D01*
X68984511Y-76467482D01*
X68955746Y-76476208D01*
X68917245Y-76480000D01*
X67482755Y-76480000D01*
X67444254Y-76476208D01*
X67415489Y-76467482D01*
X67388983Y-76453314D01*
X67365751Y-76434249D01*
X67346686Y-76411017D01*
X67332518Y-76384511D01*
X67323792Y-76355746D01*
X67320000Y-76317245D01*
X67320000Y-74682755D01*
X67323792Y-74644254D01*
X67332518Y-74615489D01*
X67346686Y-74588983D01*
X67365751Y-74565751D01*
X67388983Y-74546686D01*
X67415489Y-74532518D01*
X67444254Y-74523792D01*
X67482755Y-74520000D01*
X68917245Y-74520000D01*
X68955746Y-74523792D01*
X68955746Y-74523792D01*
G37*
G36*
X73411713Y-74255626D02*
X73411716Y-74255627D01*
X73411717Y-74255627D01*
X73495786Y-74281129D01*
X73615299Y-74317383D01*
X73802921Y-74417669D01*
X73967371Y-74552629D01*
X74102331Y-74717079D01*
X74202617Y-74904701D01*
X74264374Y-75108287D01*
X74285226Y-75320000D01*
X74264374Y-75531713D01*
X74202617Y-75735299D01*
X74102331Y-75922921D01*
X73967371Y-76087371D01*
X73802921Y-76222331D01*
X73615299Y-76322617D01*
X73506087Y-76355746D01*
X73411717Y-76384373D01*
X73411716Y-76384373D01*
X73411713Y-76384374D01*
X73253056Y-76400000D01*
X72746944Y-76400000D01*
X72588287Y-76384374D01*
X72588284Y-76384373D01*
X72588283Y-76384373D01*
X72493913Y-76355746D01*
X72384701Y-76322617D01*
X72197079Y-76222331D01*
X72032629Y-76087371D01*
X71897669Y-75922921D01*
X71797383Y-75735299D01*
X71735626Y-75531713D01*
X71714774Y-75320000D01*
X71735626Y-75108287D01*
X71797383Y-74904701D01*
X71897669Y-74717079D01*
X72032629Y-74552629D01*
X72197079Y-74417669D01*
X72384701Y-74317383D01*
X72504214Y-74281129D01*
X72588283Y-74255627D01*
X72588284Y-74255627D01*
X72588287Y-74255626D01*
X72746944Y-74240000D01*
X73253056Y-74240000D01*
X73411713Y-74255626D01*
X73411713Y-74255626D01*
G37*
G36*
X59546270Y-74724018D02*
X59577242Y-74733414D01*
X59605782Y-74748669D01*
X59630800Y-74769200D01*
X59651331Y-74794218D01*
X59666586Y-74822758D01*
X59675982Y-74853730D01*
X59680000Y-74894529D01*
X59680000Y-76105471D01*
X59675982Y-76146270D01*
X59666586Y-76177242D01*
X59651331Y-76205782D01*
X59630800Y-76230800D01*
X59605782Y-76251331D01*
X59577242Y-76266586D01*
X59546270Y-76275982D01*
X59505471Y-76280000D01*
X58094529Y-76280000D01*
X58053730Y-76275982D01*
X58022758Y-76266586D01*
X57994218Y-76251331D01*
X57969200Y-76230800D01*
X57948669Y-76205782D01*
X57933414Y-76177242D01*
X57924018Y-76146270D01*
X57920000Y-76105471D01*
X57920000Y-74894529D01*
X57924018Y-74853730D01*
X57933414Y-74822758D01*
X57948669Y-74794218D01*
X57969200Y-74769200D01*
X57994218Y-74748669D01*
X58022758Y-74733414D01*
X58053730Y-74724018D01*
X58094529Y-74720000D01*
X59505471Y-74720000D01*
X59546270Y-74724018D01*
X59546270Y-74724018D01*
G37*
G36*
X61946270Y-74724018D02*
X61977242Y-74733414D01*
X62005782Y-74748669D01*
X62030800Y-74769200D01*
X62051331Y-74794218D01*
X62066586Y-74822758D01*
X62075982Y-74853730D01*
X62080000Y-74894529D01*
X62080000Y-76105471D01*
X62075982Y-76146270D01*
X62066586Y-76177242D01*
X62051331Y-76205782D01*
X62030800Y-76230800D01*
X62005782Y-76251331D01*
X61977242Y-76266586D01*
X61946270Y-76275982D01*
X61905471Y-76280000D01*
X60494529Y-76280000D01*
X60453730Y-76275982D01*
X60422758Y-76266586D01*
X60394218Y-76251331D01*
X60369200Y-76230800D01*
X60348669Y-76205782D01*
X60333414Y-76177242D01*
X60324018Y-76146270D01*
X60320000Y-76105471D01*
X60320000Y-74894529D01*
X60324018Y-74853730D01*
X60333414Y-74822758D01*
X60348669Y-74794218D01*
X60369200Y-74769200D01*
X60394218Y-74748669D01*
X60422758Y-74733414D01*
X60453730Y-74724018D01*
X60494529Y-74720000D01*
X61905471Y-74720000D01*
X61946270Y-74724018D01*
X61946270Y-74724018D01*
G37*
G36*
X30751712Y-72895626D02*
X30751715Y-72895627D01*
X30751716Y-72895627D01*
X30835785Y-72921129D01*
X30955298Y-72957383D01*
X31005440Y-72984185D01*
X31142919Y-73057668D01*
X31207567Y-73110723D01*
X31307371Y-73192629D01*
X31442331Y-73357079D01*
X31542617Y-73544701D01*
X31604374Y-73748287D01*
X31620000Y-73906944D01*
X31620000Y-74413055D01*
X31604374Y-74571712D01*
X31604373Y-74571715D01*
X31604373Y-74571716D01*
X31583045Y-74642023D01*
X31542616Y-74775301D01*
X31442332Y-74962919D01*
X31307371Y-75127371D01*
X31142921Y-75262331D01*
X30955299Y-75362617D01*
X30835786Y-75398871D01*
X30751717Y-75424373D01*
X30751716Y-75424373D01*
X30751713Y-75424374D01*
X30540000Y-75445226D01*
X30328288Y-75424374D01*
X30328285Y-75424373D01*
X30328284Y-75424373D01*
X30244215Y-75398871D01*
X30124702Y-75362617D01*
X29937080Y-75262331D01*
X29772630Y-75127371D01*
X29637670Y-74962921D01*
X29537383Y-74775299D01*
X29475626Y-74571713D01*
X29460000Y-74413056D01*
X29460000Y-73906945D01*
X29475626Y-73748288D01*
X29475628Y-73748283D01*
X29501129Y-73664215D01*
X29537383Y-73544702D01*
X29564185Y-73494560D01*
X29637668Y-73357081D01*
X29690723Y-73292433D01*
X29772629Y-73192629D01*
X29937079Y-73057669D01*
X30124701Y-72957383D01*
X30244214Y-72921129D01*
X30328283Y-72895627D01*
X30328284Y-72895627D01*
X30328287Y-72895626D01*
X30540000Y-72874774D01*
X30751712Y-72895626D01*
X30751712Y-72895626D01*
G37*
G36*
X33291712Y-72895626D02*
X33291715Y-72895627D01*
X33291716Y-72895627D01*
X33375785Y-72921129D01*
X33495298Y-72957383D01*
X33545440Y-72984185D01*
X33682919Y-73057668D01*
X33747567Y-73110723D01*
X33847371Y-73192629D01*
X33982331Y-73357079D01*
X34082617Y-73544701D01*
X34144374Y-73748287D01*
X34160000Y-73906944D01*
X34160000Y-74413055D01*
X34144374Y-74571712D01*
X34144373Y-74571715D01*
X34144373Y-74571716D01*
X34123045Y-74642023D01*
X34082616Y-74775301D01*
X33982332Y-74962919D01*
X33847371Y-75127371D01*
X33682921Y-75262331D01*
X33495299Y-75362617D01*
X33375786Y-75398871D01*
X33291717Y-75424373D01*
X33291716Y-75424373D01*
X33291713Y-75424374D01*
X33080000Y-75445226D01*
X32868288Y-75424374D01*
X32868285Y-75424373D01*
X32868284Y-75424373D01*
X32784215Y-75398871D01*
X32664702Y-75362617D01*
X32477080Y-75262331D01*
X32312630Y-75127371D01*
X32177670Y-74962921D01*
X32077383Y-74775299D01*
X32015626Y-74571713D01*
X32000000Y-74413056D01*
X32000000Y-73906945D01*
X32015626Y-73748288D01*
X32015628Y-73748283D01*
X32041129Y-73664215D01*
X32077383Y-73544702D01*
X32104185Y-73494560D01*
X32177668Y-73357081D01*
X32230723Y-73292433D01*
X32312629Y-73192629D01*
X32477079Y-73057669D01*
X32664701Y-72957383D01*
X32784214Y-72921129D01*
X32868283Y-72895627D01*
X32868284Y-72895627D01*
X32868287Y-72895626D01*
X33080000Y-72874774D01*
X33291712Y-72895626D01*
X33291712Y-72895626D01*
G37*
G36*
X28211712Y-72895626D02*
X28211715Y-72895627D01*
X28211716Y-72895627D01*
X28295785Y-72921129D01*
X28415298Y-72957383D01*
X28465440Y-72984185D01*
X28602919Y-73057668D01*
X28667567Y-73110723D01*
X28767371Y-73192629D01*
X28902331Y-73357079D01*
X29002617Y-73544701D01*
X29064374Y-73748287D01*
X29080000Y-73906944D01*
X29080000Y-74413055D01*
X29064374Y-74571712D01*
X29064373Y-74571715D01*
X29064373Y-74571716D01*
X29043045Y-74642023D01*
X29002616Y-74775301D01*
X28902332Y-74962919D01*
X28767371Y-75127371D01*
X28602921Y-75262331D01*
X28415299Y-75362617D01*
X28295786Y-75398871D01*
X28211717Y-75424373D01*
X28211716Y-75424373D01*
X28211713Y-75424374D01*
X28000000Y-75445226D01*
X27788288Y-75424374D01*
X27788285Y-75424373D01*
X27788284Y-75424373D01*
X27704215Y-75398871D01*
X27584702Y-75362617D01*
X27397080Y-75262331D01*
X27232630Y-75127371D01*
X27097670Y-74962921D01*
X26997383Y-74775299D01*
X26935626Y-74571713D01*
X26920000Y-74413056D01*
X26920000Y-73906945D01*
X26935626Y-73748288D01*
X26935628Y-73748283D01*
X26961129Y-73664215D01*
X26997383Y-73544702D01*
X27024185Y-73494560D01*
X27097668Y-73357081D01*
X27150723Y-73292433D01*
X27232629Y-73192629D01*
X27397079Y-73057669D01*
X27584701Y-72957383D01*
X27704214Y-72921129D01*
X27788283Y-72895627D01*
X27788284Y-72895627D01*
X27788287Y-72895626D01*
X28000000Y-72874774D01*
X28211712Y-72895626D01*
X28211712Y-72895626D01*
G37*
G36*
X35831712Y-72895626D02*
X35831715Y-72895627D01*
X35831716Y-72895627D01*
X35915785Y-72921129D01*
X36035298Y-72957383D01*
X36085440Y-72984185D01*
X36222919Y-73057668D01*
X36287567Y-73110723D01*
X36387371Y-73192629D01*
X36522331Y-73357079D01*
X36622617Y-73544701D01*
X36684374Y-73748287D01*
X36700000Y-73906944D01*
X36700000Y-74413055D01*
X36684374Y-74571712D01*
X36684373Y-74571715D01*
X36684373Y-74571716D01*
X36663045Y-74642023D01*
X36622616Y-74775301D01*
X36522332Y-74962919D01*
X36387371Y-75127371D01*
X36222921Y-75262331D01*
X36035299Y-75362617D01*
X35915786Y-75398871D01*
X35831717Y-75424373D01*
X35831716Y-75424373D01*
X35831713Y-75424374D01*
X35620000Y-75445226D01*
X35408288Y-75424374D01*
X35408285Y-75424373D01*
X35408284Y-75424373D01*
X35324215Y-75398871D01*
X35204702Y-75362617D01*
X35017080Y-75262331D01*
X34852630Y-75127371D01*
X34717670Y-74962921D01*
X34617383Y-74775299D01*
X34555626Y-74571713D01*
X34540000Y-74413056D01*
X34540000Y-73906945D01*
X34555626Y-73748288D01*
X34555628Y-73748283D01*
X34581129Y-73664215D01*
X34617383Y-73544702D01*
X34644185Y-73494560D01*
X34717668Y-73357081D01*
X34770723Y-73292433D01*
X34852629Y-73192629D01*
X35017079Y-73057669D01*
X35204701Y-72957383D01*
X35324214Y-72921129D01*
X35408283Y-72895627D01*
X35408284Y-72895627D01*
X35408287Y-72895626D01*
X35620000Y-72874774D01*
X35831712Y-72895626D01*
X35831712Y-72895626D01*
G37*
G36*
X38371712Y-72895626D02*
X38371715Y-72895627D01*
X38371716Y-72895627D01*
X38455785Y-72921129D01*
X38575298Y-72957383D01*
X38625440Y-72984185D01*
X38762919Y-73057668D01*
X38827567Y-73110723D01*
X38927371Y-73192629D01*
X39062331Y-73357079D01*
X39162617Y-73544701D01*
X39224374Y-73748287D01*
X39240000Y-73906944D01*
X39240000Y-74413055D01*
X39224374Y-74571712D01*
X39224373Y-74571715D01*
X39224373Y-74571716D01*
X39203045Y-74642023D01*
X39162616Y-74775301D01*
X39062332Y-74962919D01*
X38927371Y-75127371D01*
X38762921Y-75262331D01*
X38575299Y-75362617D01*
X38455786Y-75398871D01*
X38371717Y-75424373D01*
X38371716Y-75424373D01*
X38371713Y-75424374D01*
X38160000Y-75445226D01*
X37948288Y-75424374D01*
X37948285Y-75424373D01*
X37948284Y-75424373D01*
X37864215Y-75398871D01*
X37744702Y-75362617D01*
X37557080Y-75262331D01*
X37392630Y-75127371D01*
X37257670Y-74962921D01*
X37157383Y-74775299D01*
X37095626Y-74571713D01*
X37080000Y-74413056D01*
X37080000Y-73906945D01*
X37095626Y-73748288D01*
X37095628Y-73748283D01*
X37121129Y-73664215D01*
X37157383Y-73544702D01*
X37184185Y-73494560D01*
X37257668Y-73357081D01*
X37310723Y-73292433D01*
X37392629Y-73192629D01*
X37557079Y-73057669D01*
X37744701Y-72957383D01*
X37864214Y-72921129D01*
X37948283Y-72895627D01*
X37948284Y-72895627D01*
X37948287Y-72895626D01*
X38160000Y-72874774D01*
X38371712Y-72895626D01*
X38371712Y-72895626D01*
G37*
G36*
X73411713Y-71715626D02*
X73411716Y-71715627D01*
X73411717Y-71715627D01*
X73495786Y-71741129D01*
X73615299Y-71777383D01*
X73802921Y-71877669D01*
X73967371Y-72012629D01*
X74102331Y-72177079D01*
X74202617Y-72364701D01*
X74264374Y-72568287D01*
X74285226Y-72780000D01*
X74264374Y-72991713D01*
X74202617Y-73195299D01*
X74102331Y-73382921D01*
X73967371Y-73547371D01*
X73802921Y-73682331D01*
X73615299Y-73782617D01*
X73495786Y-73818871D01*
X73411717Y-73844373D01*
X73411716Y-73844373D01*
X73411713Y-73844374D01*
X73253056Y-73860000D01*
X72746944Y-73860000D01*
X72588287Y-73844374D01*
X72588284Y-73844373D01*
X72588283Y-73844373D01*
X72504214Y-73818871D01*
X72384701Y-73782617D01*
X72197079Y-73682331D01*
X72032629Y-73547371D01*
X71897669Y-73382921D01*
X71797383Y-73195299D01*
X71735626Y-72991713D01*
X71714774Y-72780000D01*
X71735626Y-72568287D01*
X71797383Y-72364701D01*
X71897669Y-72177079D01*
X72032629Y-72012629D01*
X72197079Y-71877669D01*
X72384701Y-71777383D01*
X72504214Y-71741129D01*
X72588283Y-71715627D01*
X72588284Y-71715627D01*
X72588287Y-71715626D01*
X72746944Y-71700000D01*
X73253056Y-71700000D01*
X73411713Y-71715626D01*
X73411713Y-71715626D01*
G37*
G36*
X68446270Y-71224018D02*
X68477242Y-71233414D01*
X68505782Y-71248669D01*
X68530800Y-71269200D01*
X68551331Y-71294218D01*
X68566586Y-71322758D01*
X68575982Y-71353730D01*
X68580000Y-71394529D01*
X68580000Y-72605471D01*
X68575982Y-72646270D01*
X68566586Y-72677242D01*
X68551331Y-72705782D01*
X68530800Y-72730800D01*
X68505782Y-72751331D01*
X68477242Y-72766586D01*
X68446270Y-72775982D01*
X68405471Y-72780000D01*
X66994529Y-72780000D01*
X66953730Y-72775982D01*
X66922758Y-72766586D01*
X66894218Y-72751331D01*
X66869200Y-72730800D01*
X66848669Y-72705782D01*
X66833414Y-72677242D01*
X66824018Y-72646270D01*
X66820000Y-72605471D01*
X66820000Y-71394529D01*
X66824018Y-71353730D01*
X66833414Y-71322758D01*
X66848669Y-71294218D01*
X66869200Y-71269200D01*
X66894218Y-71248669D01*
X66922758Y-71233414D01*
X66953730Y-71224018D01*
X66994529Y-71220000D01*
X68405471Y-71220000D01*
X68446270Y-71224018D01*
X68446270Y-71224018D01*
G37*
G36*
X66046270Y-71224018D02*
X66077242Y-71233414D01*
X66105782Y-71248669D01*
X66130800Y-71269200D01*
X66151331Y-71294218D01*
X66166586Y-71322758D01*
X66175982Y-71353730D01*
X66180000Y-71394529D01*
X66180000Y-72605471D01*
X66175982Y-72646270D01*
X66166586Y-72677242D01*
X66151331Y-72705782D01*
X66130800Y-72730800D01*
X66105782Y-72751331D01*
X66077242Y-72766586D01*
X66046270Y-72775982D01*
X66005471Y-72780000D01*
X64594529Y-72780000D01*
X64553730Y-72775982D01*
X64522758Y-72766586D01*
X64494218Y-72751331D01*
X64469200Y-72730800D01*
X64448669Y-72705782D01*
X64433414Y-72677242D01*
X64424018Y-72646270D01*
X64420000Y-72605471D01*
X64420000Y-71394529D01*
X64424018Y-71353730D01*
X64433414Y-71322758D01*
X64448669Y-71294218D01*
X64469200Y-71269200D01*
X64494218Y-71248669D01*
X64522758Y-71233414D01*
X64553730Y-71224018D01*
X64594529Y-71220000D01*
X66005471Y-71220000D01*
X66046270Y-71224018D01*
X66046270Y-71224018D01*
G37*
G36*
X56250000Y-72335000D02*
X43760000Y-72335000D01*
X43760000Y-69675000D01*
X56250000Y-69675000D01*
X56250000Y-72335000D01*
X56250000Y-72335000D01*
G37*
G36*
X73411713Y-69175626D02*
X73411716Y-69175627D01*
X73411717Y-69175627D01*
X73495786Y-69201129D01*
X73615299Y-69237383D01*
X73802921Y-69337669D01*
X73967371Y-69472629D01*
X74102331Y-69637079D01*
X74202617Y-69824701D01*
X74264374Y-70028287D01*
X74285226Y-70240000D01*
X74264374Y-70451713D01*
X74202617Y-70655299D01*
X74102331Y-70842921D01*
X73967371Y-71007371D01*
X73802921Y-71142331D01*
X73615299Y-71242617D01*
X73535153Y-71266929D01*
X73411717Y-71304373D01*
X73411716Y-71304373D01*
X73411713Y-71304374D01*
X73253056Y-71320000D01*
X72746944Y-71320000D01*
X72588287Y-71304374D01*
X72588284Y-71304373D01*
X72588283Y-71304373D01*
X72464847Y-71266929D01*
X72384701Y-71242617D01*
X72197079Y-71142331D01*
X72032629Y-71007371D01*
X71897669Y-70842921D01*
X71797383Y-70655299D01*
X71735626Y-70451713D01*
X71714774Y-70240000D01*
X71735626Y-70028287D01*
X71797383Y-69824701D01*
X71897669Y-69637079D01*
X72032629Y-69472629D01*
X72197079Y-69337669D01*
X72384701Y-69237383D01*
X72504214Y-69201129D01*
X72588283Y-69175627D01*
X72588284Y-69175627D01*
X72588287Y-69175626D01*
X72746944Y-69160000D01*
X73253056Y-69160000D01*
X73411713Y-69175626D01*
X73411713Y-69175626D01*
G37*
G36*
X60080000Y-70285000D02*
X57420000Y-70285000D01*
X57420000Y-52715000D01*
X60080000Y-52715000D01*
X60080000Y-70285000D01*
X60080000Y-70285000D01*
G37*
G36*
X42580000Y-70285000D02*
X39920000Y-70285000D01*
X39920000Y-52715000D01*
X42580000Y-52715000D01*
X42580000Y-70285000D01*
X42580000Y-70285000D01*
G37*
G36*
X63251713Y-66635626D02*
X63251716Y-66635627D01*
X63251717Y-66635627D01*
X63335786Y-66661129D01*
X63455299Y-66697383D01*
X63642921Y-66797669D01*
X63807371Y-66932629D01*
X63942331Y-67097079D01*
X64042617Y-67284701D01*
X64104374Y-67488287D01*
X64125226Y-67700000D01*
X64104374Y-67911713D01*
X64042617Y-68115299D01*
X63942331Y-68302921D01*
X63807371Y-68467371D01*
X63642921Y-68602331D01*
X63455299Y-68702617D01*
X63335786Y-68738871D01*
X63251717Y-68764373D01*
X63251716Y-68764373D01*
X63251713Y-68764374D01*
X63093056Y-68780000D01*
X62586944Y-68780000D01*
X62428287Y-68764374D01*
X62428284Y-68764373D01*
X62428283Y-68764373D01*
X62344214Y-68738871D01*
X62224701Y-68702617D01*
X62037079Y-68602331D01*
X61872629Y-68467371D01*
X61737669Y-68302921D01*
X61637383Y-68115299D01*
X61575626Y-67911713D01*
X61554774Y-67700000D01*
X61575626Y-67488287D01*
X61637383Y-67284701D01*
X61737669Y-67097079D01*
X61872629Y-66932629D01*
X62037079Y-66797669D01*
X62224701Y-66697383D01*
X62344214Y-66661129D01*
X62428283Y-66635627D01*
X62428284Y-66635627D01*
X62428287Y-66635626D01*
X62586944Y-66620000D01*
X63093056Y-66620000D01*
X63251713Y-66635626D01*
X63251713Y-66635626D01*
G37*
G36*
X73411713Y-66635626D02*
X73411716Y-66635627D01*
X73411717Y-66635627D01*
X73495786Y-66661129D01*
X73615299Y-66697383D01*
X73802921Y-66797669D01*
X73967371Y-66932629D01*
X74102331Y-67097079D01*
X74202617Y-67284701D01*
X74264374Y-67488287D01*
X74285226Y-67700000D01*
X74264374Y-67911713D01*
X74202617Y-68115299D01*
X74102331Y-68302921D01*
X73967371Y-68467371D01*
X73802921Y-68602331D01*
X73615299Y-68702617D01*
X73495786Y-68738871D01*
X73411717Y-68764373D01*
X73411716Y-68764373D01*
X73411713Y-68764374D01*
X73253056Y-68780000D01*
X72746944Y-68780000D01*
X72588287Y-68764374D01*
X72588284Y-68764373D01*
X72588283Y-68764373D01*
X72504214Y-68738871D01*
X72384701Y-68702617D01*
X72197079Y-68602331D01*
X72032629Y-68467371D01*
X71897669Y-68302921D01*
X71797383Y-68115299D01*
X71735626Y-67911713D01*
X71714774Y-67700000D01*
X71735626Y-67488287D01*
X71797383Y-67284701D01*
X71897669Y-67097079D01*
X72032629Y-66932629D01*
X72197079Y-66797669D01*
X72384701Y-66697383D01*
X72504214Y-66661129D01*
X72588283Y-66635627D01*
X72588284Y-66635627D01*
X72588287Y-66635626D01*
X72746944Y-66620000D01*
X73253056Y-66620000D01*
X73411713Y-66635626D01*
X73411713Y-66635626D01*
G37*
G36*
X63251713Y-64095626D02*
X63251716Y-64095627D01*
X63251717Y-64095627D01*
X63335786Y-64121129D01*
X63455299Y-64157383D01*
X63642921Y-64257669D01*
X63807371Y-64392629D01*
X63942331Y-64557079D01*
X64042617Y-64744701D01*
X64104374Y-64948287D01*
X64125226Y-65160000D01*
X64104374Y-65371713D01*
X64042617Y-65575299D01*
X63942331Y-65762921D01*
X63807371Y-65927371D01*
X63642921Y-66062331D01*
X63455299Y-66162617D01*
X63335786Y-66198871D01*
X63251717Y-66224373D01*
X63251716Y-66224373D01*
X63251713Y-66224374D01*
X63093056Y-66240000D01*
X62586944Y-66240000D01*
X62428287Y-66224374D01*
X62428284Y-66224373D01*
X62428283Y-66224373D01*
X62344214Y-66198871D01*
X62224701Y-66162617D01*
X62037079Y-66062331D01*
X61872629Y-65927371D01*
X61737669Y-65762921D01*
X61637383Y-65575299D01*
X61575626Y-65371713D01*
X61554774Y-65160000D01*
X61575626Y-64948287D01*
X61637383Y-64744701D01*
X61737669Y-64557079D01*
X61872629Y-64392629D01*
X62037079Y-64257669D01*
X62224701Y-64157383D01*
X62344214Y-64121129D01*
X62428283Y-64095627D01*
X62428284Y-64095627D01*
X62428287Y-64095626D01*
X62586944Y-64080000D01*
X63093056Y-64080000D01*
X63251713Y-64095626D01*
X63251713Y-64095626D01*
G37*
G36*
X73411713Y-64095626D02*
X73411716Y-64095627D01*
X73411717Y-64095627D01*
X73495786Y-64121129D01*
X73615299Y-64157383D01*
X73802921Y-64257669D01*
X73967371Y-64392629D01*
X74102331Y-64557079D01*
X74202617Y-64744701D01*
X74264374Y-64948287D01*
X74285226Y-65160000D01*
X74264374Y-65371713D01*
X74202617Y-65575299D01*
X74102331Y-65762921D01*
X73967371Y-65927371D01*
X73802921Y-66062331D01*
X73615299Y-66162617D01*
X73495786Y-66198871D01*
X73411717Y-66224373D01*
X73411716Y-66224373D01*
X73411713Y-66224374D01*
X73253056Y-66240000D01*
X72746944Y-66240000D01*
X72588287Y-66224374D01*
X72588284Y-66224373D01*
X72588283Y-66224373D01*
X72504214Y-66198871D01*
X72384701Y-66162617D01*
X72197079Y-66062331D01*
X72032629Y-65927371D01*
X71897669Y-65762921D01*
X71797383Y-65575299D01*
X71735626Y-65371713D01*
X71714774Y-65160000D01*
X71735626Y-64948287D01*
X71797383Y-64744701D01*
X71897669Y-64557079D01*
X72032629Y-64392629D01*
X72197079Y-64257669D01*
X72384701Y-64157383D01*
X72504214Y-64121129D01*
X72588283Y-64095627D01*
X72588284Y-64095627D01*
X72588287Y-64095626D01*
X72746944Y-64080000D01*
X73253056Y-64080000D01*
X73411713Y-64095626D01*
X73411713Y-64095626D01*
G37*
G36*
X28661713Y-61975626D02*
X28661716Y-61975627D01*
X28661717Y-61975627D01*
X28736924Y-61998441D01*
X28865299Y-62037383D01*
X29052921Y-62137669D01*
X29217371Y-62272629D01*
X29352331Y-62437079D01*
X29452617Y-62624701D01*
X29514374Y-62828287D01*
X29535226Y-63040000D01*
X29514374Y-63251713D01*
X29452617Y-63455299D01*
X29352331Y-63642921D01*
X29217371Y-63807371D01*
X29052921Y-63942331D01*
X28865299Y-64042617D01*
X28745786Y-64078871D01*
X28661717Y-64104373D01*
X28661716Y-64104373D01*
X28661713Y-64104374D01*
X28503056Y-64120000D01*
X27996944Y-64120000D01*
X27838287Y-64104374D01*
X27838284Y-64104373D01*
X27838283Y-64104373D01*
X27754214Y-64078871D01*
X27634701Y-64042617D01*
X27447079Y-63942331D01*
X27282629Y-63807371D01*
X27147669Y-63642921D01*
X27047383Y-63455299D01*
X26985626Y-63251713D01*
X26964774Y-63040000D01*
X26985626Y-62828287D01*
X27047383Y-62624701D01*
X27147669Y-62437079D01*
X27282629Y-62272629D01*
X27447079Y-62137669D01*
X27634701Y-62037383D01*
X27763076Y-61998441D01*
X27838283Y-61975627D01*
X27838284Y-61975627D01*
X27838287Y-61975626D01*
X27996944Y-61960000D01*
X28503056Y-61960000D01*
X28661713Y-61975626D01*
X28661713Y-61975626D01*
G37*
G36*
X73411713Y-61555626D02*
X73411716Y-61555627D01*
X73411717Y-61555627D01*
X73495786Y-61581129D01*
X73615299Y-61617383D01*
X73802921Y-61717669D01*
X73967371Y-61852629D01*
X74102331Y-62017079D01*
X74202617Y-62204701D01*
X74264374Y-62408287D01*
X74285226Y-62620000D01*
X74264374Y-62831713D01*
X74202617Y-63035299D01*
X74102331Y-63222921D01*
X73967371Y-63387371D01*
X73802921Y-63522331D01*
X73615299Y-63622617D01*
X73495786Y-63658871D01*
X73411717Y-63684373D01*
X73411716Y-63684373D01*
X73411713Y-63684374D01*
X73253056Y-63700000D01*
X72746944Y-63700000D01*
X72588287Y-63684374D01*
X72588284Y-63684373D01*
X72588283Y-63684373D01*
X72504214Y-63658871D01*
X72384701Y-63622617D01*
X72197079Y-63522331D01*
X72032629Y-63387371D01*
X71897669Y-63222921D01*
X71797383Y-63035299D01*
X71735626Y-62831713D01*
X71714774Y-62620000D01*
X71735626Y-62408287D01*
X71797383Y-62204701D01*
X71897669Y-62017079D01*
X72032629Y-61852629D01*
X72197079Y-61717669D01*
X72384701Y-61617383D01*
X72504214Y-61581129D01*
X72588283Y-61555627D01*
X72588284Y-61555627D01*
X72588287Y-61555626D01*
X72746944Y-61540000D01*
X73253056Y-61540000D01*
X73411713Y-61555626D01*
X73411713Y-61555626D01*
G37*
G36*
X63251713Y-61555626D02*
X63251716Y-61555627D01*
X63251717Y-61555627D01*
X63335786Y-61581129D01*
X63455299Y-61617383D01*
X63642921Y-61717669D01*
X63807371Y-61852629D01*
X63942331Y-62017079D01*
X64042617Y-62204701D01*
X64104374Y-62408287D01*
X64125226Y-62620000D01*
X64104374Y-62831713D01*
X64042617Y-63035299D01*
X63942331Y-63222921D01*
X63807371Y-63387371D01*
X63642921Y-63522331D01*
X63455299Y-63622617D01*
X63335786Y-63658871D01*
X63251717Y-63684373D01*
X63251716Y-63684373D01*
X63251713Y-63684374D01*
X63093056Y-63700000D01*
X62586944Y-63700000D01*
X62428287Y-63684374D01*
X62428284Y-63684373D01*
X62428283Y-63684373D01*
X62344214Y-63658871D01*
X62224701Y-63622617D01*
X62037079Y-63522331D01*
X61872629Y-63387371D01*
X61737669Y-63222921D01*
X61637383Y-63035299D01*
X61575626Y-62831713D01*
X61554774Y-62620000D01*
X61575626Y-62408287D01*
X61637383Y-62204701D01*
X61737669Y-62017079D01*
X61872629Y-61852629D01*
X62037079Y-61717669D01*
X62224701Y-61617383D01*
X62344214Y-61581129D01*
X62428283Y-61555627D01*
X62428284Y-61555627D01*
X62428287Y-61555626D01*
X62586944Y-61540000D01*
X63093056Y-61540000D01*
X63251713Y-61555626D01*
X63251713Y-61555626D01*
G37*
G36*
X50462546Y-58436534D02*
X50664517Y-58497802D01*
X50850658Y-58597295D01*
X51013809Y-58731191D01*
X51147705Y-58894342D01*
X51247198Y-59080483D01*
X51308466Y-59282454D01*
X51330000Y-59501094D01*
X51330000Y-61988906D01*
X51308466Y-62207546D01*
X51247198Y-62409517D01*
X51147705Y-62595658D01*
X51013809Y-62758809D01*
X50850658Y-62892705D01*
X50664517Y-62992198D01*
X50462546Y-63053466D01*
X50243906Y-63075000D01*
X47756094Y-63075000D01*
X47537454Y-63053466D01*
X47335483Y-62992198D01*
X47149342Y-62892705D01*
X46986191Y-62758809D01*
X46852295Y-62595658D01*
X46752802Y-62409517D01*
X46691534Y-62207546D01*
X46670000Y-61988906D01*
X46670000Y-59501094D01*
X46691534Y-59282454D01*
X46752802Y-59080483D01*
X46852295Y-58894342D01*
X46986191Y-58731191D01*
X47149342Y-58597295D01*
X47335483Y-58497802D01*
X47537454Y-58436534D01*
X47756094Y-58415000D01*
X50243906Y-58415000D01*
X50462546Y-58436534D01*
X50462546Y-58436534D01*
G37*
G36*
X33896270Y-60324018D02*
X33927242Y-60333414D01*
X33955782Y-60348669D01*
X33980800Y-60369200D01*
X34001331Y-60394218D01*
X34016586Y-60422758D01*
X34025982Y-60453730D01*
X34030000Y-60494529D01*
X34030000Y-61905471D01*
X34025982Y-61946270D01*
X34016586Y-61977242D01*
X34001331Y-62005782D01*
X33980800Y-62030800D01*
X33955782Y-62051331D01*
X33927242Y-62066586D01*
X33896270Y-62075982D01*
X33855471Y-62080000D01*
X32644529Y-62080000D01*
X32603730Y-62075982D01*
X32572758Y-62066586D01*
X32544218Y-62051331D01*
X32519200Y-62030800D01*
X32498669Y-62005782D01*
X32483414Y-61977242D01*
X32474018Y-61946270D01*
X32470000Y-61905471D01*
X32470000Y-60494529D01*
X32474018Y-60453730D01*
X32483414Y-60422758D01*
X32498669Y-60394218D01*
X32519200Y-60369200D01*
X32544218Y-60348669D01*
X32572758Y-60333414D01*
X32603730Y-60324018D01*
X32644529Y-60320000D01*
X33855471Y-60320000D01*
X33896270Y-60324018D01*
X33896270Y-60324018D01*
G37*
G36*
X36646270Y-60324018D02*
X36677242Y-60333414D01*
X36705782Y-60348669D01*
X36730800Y-60369200D01*
X36751331Y-60394218D01*
X36766586Y-60422758D01*
X36775982Y-60453730D01*
X36780000Y-60494529D01*
X36780000Y-61905471D01*
X36775982Y-61946270D01*
X36766586Y-61977242D01*
X36751331Y-62005782D01*
X36730800Y-62030800D01*
X36705782Y-62051331D01*
X36677242Y-62066586D01*
X36646270Y-62075982D01*
X36605471Y-62080000D01*
X35394529Y-62080000D01*
X35353730Y-62075982D01*
X35322758Y-62066586D01*
X35294218Y-62051331D01*
X35269200Y-62030800D01*
X35248669Y-62005782D01*
X35233414Y-61977242D01*
X35224018Y-61946270D01*
X35220000Y-61905471D01*
X35220000Y-60494529D01*
X35224018Y-60453730D01*
X35233414Y-60422758D01*
X35248669Y-60394218D01*
X35269200Y-60369200D01*
X35294218Y-60348669D01*
X35322758Y-60333414D01*
X35353730Y-60324018D01*
X35394529Y-60320000D01*
X36605471Y-60320000D01*
X36646270Y-60324018D01*
X36646270Y-60324018D01*
G37*
G36*
X73411713Y-59015626D02*
X73411716Y-59015627D01*
X73411717Y-59015627D01*
X73495786Y-59041129D01*
X73615299Y-59077383D01*
X73802921Y-59177669D01*
X73967371Y-59312629D01*
X74102331Y-59477079D01*
X74202617Y-59664701D01*
X74264374Y-59868287D01*
X74285226Y-60080000D01*
X74264374Y-60291713D01*
X74264373Y-60291716D01*
X74264373Y-60291717D01*
X74254170Y-60325351D01*
X74202617Y-60495299D01*
X74102331Y-60682921D01*
X73967371Y-60847371D01*
X73802921Y-60982331D01*
X73615299Y-61082617D01*
X73495786Y-61118871D01*
X73411717Y-61144373D01*
X73411716Y-61144373D01*
X73411713Y-61144374D01*
X73253056Y-61160000D01*
X72746944Y-61160000D01*
X72588287Y-61144374D01*
X72588284Y-61144373D01*
X72588283Y-61144373D01*
X72504214Y-61118871D01*
X72384701Y-61082617D01*
X72197079Y-60982331D01*
X72032629Y-60847371D01*
X71897669Y-60682921D01*
X71797383Y-60495299D01*
X71745830Y-60325351D01*
X71735627Y-60291717D01*
X71735627Y-60291716D01*
X71735626Y-60291713D01*
X71714774Y-60080000D01*
X71735626Y-59868287D01*
X71797383Y-59664701D01*
X71897669Y-59477079D01*
X72032629Y-59312629D01*
X72197079Y-59177669D01*
X72384701Y-59077383D01*
X72504214Y-59041129D01*
X72588283Y-59015627D01*
X72588284Y-59015627D01*
X72588287Y-59015626D01*
X72746944Y-59000000D01*
X73253056Y-59000000D01*
X73411713Y-59015626D01*
X73411713Y-59015626D01*
G37*
G36*
X28661713Y-58935626D02*
X28661716Y-58935627D01*
X28661717Y-58935627D01*
X28745786Y-58961129D01*
X28865299Y-58997383D01*
X29052921Y-59097669D01*
X29217371Y-59232629D01*
X29352331Y-59397079D01*
X29452617Y-59584701D01*
X29514374Y-59788287D01*
X29535226Y-60000000D01*
X29514374Y-60211713D01*
X29452617Y-60415299D01*
X29352331Y-60602921D01*
X29217371Y-60767371D01*
X29052921Y-60902331D01*
X28865299Y-61002617D01*
X28745786Y-61038871D01*
X28661717Y-61064373D01*
X28661716Y-61064373D01*
X28661713Y-61064374D01*
X28503056Y-61080000D01*
X27996944Y-61080000D01*
X27838287Y-61064374D01*
X27838284Y-61064373D01*
X27838283Y-61064373D01*
X27754214Y-61038871D01*
X27634701Y-61002617D01*
X27447079Y-60902331D01*
X27282629Y-60767371D01*
X27147669Y-60602921D01*
X27047383Y-60415299D01*
X26985626Y-60211713D01*
X26964774Y-60000000D01*
X26985626Y-59788287D01*
X27047383Y-59584701D01*
X27147669Y-59397079D01*
X27282629Y-59232629D01*
X27447079Y-59097669D01*
X27634701Y-58997383D01*
X27754214Y-58961129D01*
X27838283Y-58935627D01*
X27838284Y-58935627D01*
X27838287Y-58935626D01*
X27996944Y-58920000D01*
X28503056Y-58920000D01*
X28661713Y-58935626D01*
X28661713Y-58935626D01*
G37*
G36*
X36646270Y-57924018D02*
X36677242Y-57933414D01*
X36705782Y-57948669D01*
X36730800Y-57969200D01*
X36751331Y-57994218D01*
X36766586Y-58022758D01*
X36775982Y-58053730D01*
X36780000Y-58094529D01*
X36780000Y-59505471D01*
X36775982Y-59546270D01*
X36766586Y-59577242D01*
X36751331Y-59605782D01*
X36730800Y-59630800D01*
X36705782Y-59651331D01*
X36677242Y-59666586D01*
X36646270Y-59675982D01*
X36605471Y-59680000D01*
X35394529Y-59680000D01*
X35353730Y-59675982D01*
X35322758Y-59666586D01*
X35294218Y-59651331D01*
X35269200Y-59630800D01*
X35248669Y-59605782D01*
X35233414Y-59577242D01*
X35224018Y-59546270D01*
X35220000Y-59505471D01*
X35220000Y-58094529D01*
X35224018Y-58053730D01*
X35233414Y-58022758D01*
X35248669Y-57994218D01*
X35269200Y-57969200D01*
X35294218Y-57948669D01*
X35322758Y-57933414D01*
X35353730Y-57924018D01*
X35394529Y-57920000D01*
X36605471Y-57920000D01*
X36646270Y-57924018D01*
X36646270Y-57924018D01*
G37*
G36*
X33896270Y-57924018D02*
X33927242Y-57933414D01*
X33955782Y-57948669D01*
X33980800Y-57969200D01*
X34001331Y-57994218D01*
X34016586Y-58022758D01*
X34025982Y-58053730D01*
X34030000Y-58094529D01*
X34030000Y-59505471D01*
X34025982Y-59546270D01*
X34016586Y-59577242D01*
X34001331Y-59605782D01*
X33980800Y-59630800D01*
X33955782Y-59651331D01*
X33927242Y-59666586D01*
X33896270Y-59675982D01*
X33855471Y-59680000D01*
X32644529Y-59680000D01*
X32603730Y-59675982D01*
X32572758Y-59666586D01*
X32544218Y-59651331D01*
X32519200Y-59630800D01*
X32498669Y-59605782D01*
X32483414Y-59577242D01*
X32474018Y-59546270D01*
X32470000Y-59505471D01*
X32470000Y-58094529D01*
X32474018Y-58053730D01*
X32483414Y-58022758D01*
X32498669Y-57994218D01*
X32519200Y-57969200D01*
X32544218Y-57948669D01*
X32572758Y-57933414D01*
X32603730Y-57924018D01*
X32644529Y-57920000D01*
X33855471Y-57920000D01*
X33896270Y-57924018D01*
X33896270Y-57924018D01*
G37*
G36*
X73411713Y-56475626D02*
X73411716Y-56475627D01*
X73411717Y-56475627D01*
X73495786Y-56501129D01*
X73615299Y-56537383D01*
X73802921Y-56637669D01*
X73967371Y-56772629D01*
X74102331Y-56937079D01*
X74202617Y-57124701D01*
X74264374Y-57328287D01*
X74285226Y-57540000D01*
X74264374Y-57751713D01*
X74202617Y-57955299D01*
X74102331Y-58142921D01*
X73967371Y-58307371D01*
X73802921Y-58442331D01*
X73615299Y-58542617D01*
X73495786Y-58578871D01*
X73411717Y-58604373D01*
X73411716Y-58604373D01*
X73411713Y-58604374D01*
X73253056Y-58620000D01*
X72746944Y-58620000D01*
X72588287Y-58604374D01*
X72588284Y-58604373D01*
X72588283Y-58604373D01*
X72504214Y-58578871D01*
X72384701Y-58542617D01*
X72197079Y-58442331D01*
X72032629Y-58307371D01*
X71897669Y-58142921D01*
X71797383Y-57955299D01*
X71735626Y-57751713D01*
X71714774Y-57540000D01*
X71735626Y-57328287D01*
X71797383Y-57124701D01*
X71897669Y-56937079D01*
X72032629Y-56772629D01*
X72197079Y-56637669D01*
X72384701Y-56537383D01*
X72504214Y-56501129D01*
X72588283Y-56475627D01*
X72588284Y-56475627D01*
X72588287Y-56475626D01*
X72746944Y-56460000D01*
X73253056Y-56460000D01*
X73411713Y-56475626D01*
X73411713Y-56475626D01*
G37*
G36*
X66146270Y-56039018D02*
X66177242Y-56048414D01*
X66205782Y-56063669D01*
X66230800Y-56084200D01*
X66251331Y-56109218D01*
X66266586Y-56137758D01*
X66275982Y-56168730D01*
X66280000Y-56209529D01*
X66280000Y-57620471D01*
X66275982Y-57661270D01*
X66266586Y-57692242D01*
X66251331Y-57720782D01*
X66230800Y-57745800D01*
X66205782Y-57766331D01*
X66177242Y-57781586D01*
X66146270Y-57790982D01*
X66105471Y-57795000D01*
X64894529Y-57795000D01*
X64853730Y-57790982D01*
X64822758Y-57781586D01*
X64794218Y-57766331D01*
X64769200Y-57745800D01*
X64748669Y-57720782D01*
X64733414Y-57692242D01*
X64724018Y-57661270D01*
X64720000Y-57620471D01*
X64720000Y-56209529D01*
X64724018Y-56168730D01*
X64733414Y-56137758D01*
X64748669Y-56109218D01*
X64769200Y-56084200D01*
X64794218Y-56063669D01*
X64822758Y-56048414D01*
X64853730Y-56039018D01*
X64894529Y-56035000D01*
X66105471Y-56035000D01*
X66146270Y-56039018D01*
X66146270Y-56039018D01*
G37*
G36*
X69146270Y-56039018D02*
X69177242Y-56048414D01*
X69205782Y-56063669D01*
X69230800Y-56084200D01*
X69251331Y-56109218D01*
X69266586Y-56137758D01*
X69275982Y-56168730D01*
X69280000Y-56209529D01*
X69280000Y-57620471D01*
X69275982Y-57661270D01*
X69266586Y-57692242D01*
X69251331Y-57720782D01*
X69230800Y-57745800D01*
X69205782Y-57766331D01*
X69177242Y-57781586D01*
X69146270Y-57790982D01*
X69105471Y-57795000D01*
X67894529Y-57795000D01*
X67853730Y-57790982D01*
X67822758Y-57781586D01*
X67794218Y-57766331D01*
X67769200Y-57745800D01*
X67748669Y-57720782D01*
X67733414Y-57692242D01*
X67724018Y-57661270D01*
X67720000Y-57620471D01*
X67720000Y-56209529D01*
X67724018Y-56168730D01*
X67733414Y-56137758D01*
X67748669Y-56109218D01*
X67769200Y-56084200D01*
X67794218Y-56063669D01*
X67822758Y-56048414D01*
X67853730Y-56039018D01*
X67894529Y-56035000D01*
X69105471Y-56035000D01*
X69146270Y-56039018D01*
X69146270Y-56039018D01*
G37*
G36*
X33896270Y-55324018D02*
X33927242Y-55333414D01*
X33955782Y-55348669D01*
X33980800Y-55369200D01*
X34001331Y-55394218D01*
X34016586Y-55422758D01*
X34025982Y-55453730D01*
X34030000Y-55494529D01*
X34030000Y-56905471D01*
X34025982Y-56946270D01*
X34016586Y-56977242D01*
X34001331Y-57005782D01*
X33980800Y-57030800D01*
X33955782Y-57051331D01*
X33927242Y-57066586D01*
X33896270Y-57075982D01*
X33855471Y-57080000D01*
X32644529Y-57080000D01*
X32603730Y-57075982D01*
X32572758Y-57066586D01*
X32544218Y-57051331D01*
X32519200Y-57030800D01*
X32498669Y-57005782D01*
X32483414Y-56977242D01*
X32474018Y-56946270D01*
X32470000Y-56905471D01*
X32470000Y-55494529D01*
X32474018Y-55453730D01*
X32483414Y-55422758D01*
X32498669Y-55394218D01*
X32519200Y-55369200D01*
X32544218Y-55348669D01*
X32572758Y-55333414D01*
X32603730Y-55324018D01*
X32644529Y-55320000D01*
X33855471Y-55320000D01*
X33896270Y-55324018D01*
X33896270Y-55324018D01*
G37*
G36*
X36646270Y-55324018D02*
X36677242Y-55333414D01*
X36705782Y-55348669D01*
X36730800Y-55369200D01*
X36751331Y-55394218D01*
X36766586Y-55422758D01*
X36775982Y-55453730D01*
X36780000Y-55494529D01*
X36780000Y-56905471D01*
X36775982Y-56946270D01*
X36766586Y-56977242D01*
X36751331Y-57005782D01*
X36730800Y-57030800D01*
X36705782Y-57051331D01*
X36677242Y-57066586D01*
X36646270Y-57075982D01*
X36605471Y-57080000D01*
X35394529Y-57080000D01*
X35353730Y-57075982D01*
X35322758Y-57066586D01*
X35294218Y-57051331D01*
X35269200Y-57030800D01*
X35248669Y-57005782D01*
X35233414Y-56977242D01*
X35224018Y-56946270D01*
X35220000Y-56905471D01*
X35220000Y-55494529D01*
X35224018Y-55453730D01*
X35233414Y-55422758D01*
X35248669Y-55394218D01*
X35269200Y-55369200D01*
X35294218Y-55348669D01*
X35322758Y-55333414D01*
X35353730Y-55324018D01*
X35394529Y-55320000D01*
X36605471Y-55320000D01*
X36646270Y-55324018D01*
X36646270Y-55324018D01*
G37*
G36*
X27777611Y-55423271D02*
X27801276Y-55430449D01*
X27823086Y-55442107D01*
X27842204Y-55457796D01*
X27857893Y-55476914D01*
X27869551Y-55498724D01*
X27876729Y-55522389D01*
X27880000Y-55555595D01*
X27880000Y-56844405D01*
X27876729Y-56877611D01*
X27869551Y-56901276D01*
X27857893Y-56923086D01*
X27842204Y-56942204D01*
X27823086Y-56957893D01*
X27801276Y-56969551D01*
X27777611Y-56976729D01*
X27744405Y-56980000D01*
X26855595Y-56980000D01*
X26822389Y-56976729D01*
X26798724Y-56969551D01*
X26776914Y-56957893D01*
X26757796Y-56942204D01*
X26742107Y-56923086D01*
X26730449Y-56901276D01*
X26723271Y-56877611D01*
X26720000Y-56844405D01*
X26720000Y-55555595D01*
X26723271Y-55522389D01*
X26730449Y-55498724D01*
X26742107Y-55476914D01*
X26757796Y-55457796D01*
X26776914Y-55442107D01*
X26798724Y-55430449D01*
X26822389Y-55423271D01*
X26855595Y-55420000D01*
X27744405Y-55420000D01*
X27777611Y-55423271D01*
X27777611Y-55423271D01*
G37*
G36*
X29677611Y-55423271D02*
X29701276Y-55430449D01*
X29723086Y-55442107D01*
X29742204Y-55457796D01*
X29757893Y-55476914D01*
X29769551Y-55498724D01*
X29776729Y-55522389D01*
X29780000Y-55555595D01*
X29780000Y-56844405D01*
X29776729Y-56877611D01*
X29769551Y-56901276D01*
X29757893Y-56923086D01*
X29742204Y-56942204D01*
X29723086Y-56957893D01*
X29701276Y-56969551D01*
X29677611Y-56976729D01*
X29644405Y-56980000D01*
X28755595Y-56980000D01*
X28722389Y-56976729D01*
X28698724Y-56969551D01*
X28676914Y-56957893D01*
X28657796Y-56942204D01*
X28642107Y-56923086D01*
X28630449Y-56901276D01*
X28623271Y-56877611D01*
X28620000Y-56844405D01*
X28620000Y-55555595D01*
X28623271Y-55522389D01*
X28630449Y-55498724D01*
X28642107Y-55476914D01*
X28657796Y-55457796D01*
X28676914Y-55442107D01*
X28698724Y-55430449D01*
X28722389Y-55423271D01*
X28755595Y-55420000D01*
X29644405Y-55420000D01*
X29677611Y-55423271D01*
X29677611Y-55423271D01*
G37*
G36*
X73411713Y-53935626D02*
X73411716Y-53935627D01*
X73411717Y-53935627D01*
X73495786Y-53961129D01*
X73615299Y-53997383D01*
X73802921Y-54097669D01*
X73967371Y-54232629D01*
X74102331Y-54397079D01*
X74202617Y-54584701D01*
X74264374Y-54788287D01*
X74285226Y-55000000D01*
X74264374Y-55211713D01*
X74202617Y-55415299D01*
X74102331Y-55602921D01*
X73967371Y-55767371D01*
X73802921Y-55902331D01*
X73615299Y-56002617D01*
X73508546Y-56035000D01*
X73411717Y-56064373D01*
X73411716Y-56064373D01*
X73411713Y-56064374D01*
X73253056Y-56080000D01*
X72746944Y-56080000D01*
X72588287Y-56064374D01*
X72588284Y-56064373D01*
X72588283Y-56064373D01*
X72491454Y-56035000D01*
X72384701Y-56002617D01*
X72197079Y-55902331D01*
X72032629Y-55767371D01*
X71897669Y-55602921D01*
X71797383Y-55415299D01*
X71735626Y-55211713D01*
X71714774Y-55000000D01*
X71735626Y-54788287D01*
X71797383Y-54584701D01*
X71897669Y-54397079D01*
X72032629Y-54232629D01*
X72197079Y-54097669D01*
X72384701Y-53997383D01*
X72504214Y-53961129D01*
X72588283Y-53935627D01*
X72588284Y-53935627D01*
X72588287Y-53935626D01*
X72746944Y-53920000D01*
X73253056Y-53920000D01*
X73411713Y-53935626D01*
X73411713Y-53935626D01*
G37*
G36*
X66146270Y-53639018D02*
X66177242Y-53648414D01*
X66205782Y-53663669D01*
X66230800Y-53684200D01*
X66251331Y-53709218D01*
X66266586Y-53737758D01*
X66275982Y-53768730D01*
X66280000Y-53809529D01*
X66280000Y-55220471D01*
X66275982Y-55261270D01*
X66266586Y-55292242D01*
X66251331Y-55320782D01*
X66230800Y-55345800D01*
X66205782Y-55366331D01*
X66177242Y-55381586D01*
X66146270Y-55390982D01*
X66105471Y-55395000D01*
X64894529Y-55395000D01*
X64853730Y-55390982D01*
X64822758Y-55381586D01*
X64794218Y-55366331D01*
X64769200Y-55345800D01*
X64748669Y-55320782D01*
X64733414Y-55292242D01*
X64724018Y-55261270D01*
X64720000Y-55220471D01*
X64720000Y-53809529D01*
X64724018Y-53768730D01*
X64733414Y-53737758D01*
X64748669Y-53709218D01*
X64769200Y-53684200D01*
X64794218Y-53663669D01*
X64822758Y-53648414D01*
X64853730Y-53639018D01*
X64894529Y-53635000D01*
X66105471Y-53635000D01*
X66146270Y-53639018D01*
X66146270Y-53639018D01*
G37*
G36*
X69146270Y-53639018D02*
X69177242Y-53648414D01*
X69205782Y-53663669D01*
X69230800Y-53684200D01*
X69251331Y-53709218D01*
X69266586Y-53737758D01*
X69275982Y-53768730D01*
X69280000Y-53809529D01*
X69280000Y-55220471D01*
X69275982Y-55261270D01*
X69266586Y-55292242D01*
X69251331Y-55320782D01*
X69230800Y-55345800D01*
X69205782Y-55366331D01*
X69177242Y-55381586D01*
X69146270Y-55390982D01*
X69105471Y-55395000D01*
X67894529Y-55395000D01*
X67853730Y-55390982D01*
X67822758Y-55381586D01*
X67794218Y-55366331D01*
X67769200Y-55345800D01*
X67748669Y-55320782D01*
X67733414Y-55292242D01*
X67724018Y-55261270D01*
X67720000Y-55220471D01*
X67720000Y-53809529D01*
X67724018Y-53768730D01*
X67733414Y-53737758D01*
X67748669Y-53709218D01*
X67769200Y-53684200D01*
X67794218Y-53663669D01*
X67822758Y-53648414D01*
X67853730Y-53639018D01*
X67894529Y-53635000D01*
X69105471Y-53635000D01*
X69146270Y-53639018D01*
X69146270Y-53639018D01*
G37*
G36*
X33896270Y-52924018D02*
X33927242Y-52933414D01*
X33955782Y-52948669D01*
X33980800Y-52969200D01*
X34001331Y-52994218D01*
X34016586Y-53022758D01*
X34025982Y-53053730D01*
X34030000Y-53094529D01*
X34030000Y-54505471D01*
X34025982Y-54546270D01*
X34016586Y-54577242D01*
X34001331Y-54605782D01*
X33980800Y-54630800D01*
X33955782Y-54651331D01*
X33927242Y-54666586D01*
X33896270Y-54675982D01*
X33855471Y-54680000D01*
X32644529Y-54680000D01*
X32603730Y-54675982D01*
X32572758Y-54666586D01*
X32544218Y-54651331D01*
X32519200Y-54630800D01*
X32498669Y-54605782D01*
X32483414Y-54577242D01*
X32474018Y-54546270D01*
X32470000Y-54505471D01*
X32470000Y-53094529D01*
X32474018Y-53053730D01*
X32483414Y-53022758D01*
X32498669Y-52994218D01*
X32519200Y-52969200D01*
X32544218Y-52948669D01*
X32572758Y-52933414D01*
X32603730Y-52924018D01*
X32644529Y-52920000D01*
X33855471Y-52920000D01*
X33896270Y-52924018D01*
X33896270Y-52924018D01*
G37*
G36*
X36646270Y-52924018D02*
X36677242Y-52933414D01*
X36705782Y-52948669D01*
X36730800Y-52969200D01*
X36751331Y-52994218D01*
X36766586Y-53022758D01*
X36775982Y-53053730D01*
X36780000Y-53094529D01*
X36780000Y-54505471D01*
X36775982Y-54546270D01*
X36766586Y-54577242D01*
X36751331Y-54605782D01*
X36730800Y-54630800D01*
X36705782Y-54651331D01*
X36677242Y-54666586D01*
X36646270Y-54675982D01*
X36605471Y-54680000D01*
X35394529Y-54680000D01*
X35353730Y-54675982D01*
X35322758Y-54666586D01*
X35294218Y-54651331D01*
X35269200Y-54630800D01*
X35248669Y-54605782D01*
X35233414Y-54577242D01*
X35224018Y-54546270D01*
X35220000Y-54505471D01*
X35220000Y-53094529D01*
X35224018Y-53053730D01*
X35233414Y-53022758D01*
X35248669Y-52994218D01*
X35269200Y-52969200D01*
X35294218Y-52948669D01*
X35322758Y-52933414D01*
X35353730Y-52924018D01*
X35394529Y-52920000D01*
X36605471Y-52920000D01*
X36646270Y-52924018D01*
X36646270Y-52924018D01*
G37*
G36*
X28727611Y-53023271D02*
X28751276Y-53030449D01*
X28773086Y-53042107D01*
X28792204Y-53057796D01*
X28807893Y-53076914D01*
X28819551Y-53098724D01*
X28826729Y-53122389D01*
X28830000Y-53155595D01*
X28830000Y-54444405D01*
X28826729Y-54477611D01*
X28819551Y-54501276D01*
X28807893Y-54523086D01*
X28792204Y-54542204D01*
X28773086Y-54557893D01*
X28751276Y-54569551D01*
X28727611Y-54576729D01*
X28694405Y-54580000D01*
X27805595Y-54580000D01*
X27772389Y-54576729D01*
X27748724Y-54569551D01*
X27726914Y-54557893D01*
X27707796Y-54542204D01*
X27692107Y-54523086D01*
X27680449Y-54501276D01*
X27673271Y-54477611D01*
X27670000Y-54444405D01*
X27670000Y-53155595D01*
X27673271Y-53122389D01*
X27680449Y-53098724D01*
X27692107Y-53076914D01*
X27707796Y-53057796D01*
X27726914Y-53042107D01*
X27748724Y-53030449D01*
X27772389Y-53023271D01*
X27805595Y-53020000D01*
X28694405Y-53020000D01*
X28727611Y-53023271D01*
X28727611Y-53023271D01*
G37*
M02*
