M48
;DRILL file {KiCad 5.0.2+dfsg1-1~bpo9+1} date Sb 11 mai 2019 00:03:00 +0300
;FORMAT={-:-/ absolute / metric / decimal}
FMAT,2
METRIC,TZ
T1C0.400
T2C0.800
T3C1.000
T4C1.300
T5C2.000
T6C3.200
%
G90
G05
T1
X27.25Y-77.
X27.25Y-86.5
X29.Y-77.
X29.Y-86.5
X30.75Y-77.
X30.75Y-86.5
X31.5Y-53.8
X31.5Y-56.2
X31.5Y-58.8
X31.5Y-63.25
X32.5Y-79.
X32.5Y-81.55
X34.3Y-91.25
X35.5Y-77.
X35.5Y-82.5
X37.Y-84.5
X38.5Y-84.5
X38.5Y-87.5
X42.Y-71.71
X42.Y-76.5
X42.7Y-80.75
X44.29Y-74.
X44.29Y-80.75
X44.75Y-53.245
X44.75Y-57.5
X44.75Y-64.5
X50.5Y-76.5
X50.5Y-80.75
X53.Y-60.745
X53.Y-74.
X55.25Y-53.245
X55.25Y-57.5
X55.25Y-64.5
X56.5Y-68.5
X56.75Y-80.75
X56.75Y-82.5
X61.Y-54.5
X61.Y-59.595
X62.Y-72.
X63.5Y-55.785
X63.5Y-77.33
X63.5Y-79.
X64.75Y-80.75
X65.5Y-58.5
X67.Y-67.7
X67.5Y-86.75
X68.5Y-58.5
X70.5Y-53.245
X70.5Y-86.75
X70.54Y-57.54
X73.5Y-86.75
T2
X45.5Y-89.5
X45.5Y-91.5
X45.5Y-94.5
X45.5Y-96.5
X48.Y-89.5
X48.Y-94.5
X48.Y-96.5
X50.5Y-89.5
X50.5Y-94.5
X50.5Y-96.5
X53.Y-94.5
X53.Y-96.5
X55.5Y-94.5
X55.5Y-96.5
X58.Y-94.5
X58.Y-96.5
X58.75Y-89.5
X58.75Y-91.5
X60.5Y-89.5
X60.5Y-91.5
X60.5Y-94.5
X60.5Y-96.5
T3
X73.Y-77.86
X73.Y-80.4
X73.Y-82.94
X28.Y-74.16
X30.54Y-74.16
X33.08Y-74.16
X35.62Y-74.16
X38.16Y-74.16
X73.Y-65.16
X73.Y-67.7
X73.Y-70.24
X28.25Y-60.
X28.25Y-63.04
X73.Y-72.78
X73.Y-75.32
X73.Y-55.
X73.Y-57.54
X73.Y-60.08
X73.Y-62.62
X62.84Y-62.62
X62.84Y-65.16
X62.84Y-67.7
T4
X55.85Y-89.
X42.Y-90.5
X42.Y-95.5
X64.Y-90.5
X64.Y-95.5
T5
X49.Y-60.745
T6
X72.25Y-95.5
X27.75Y-95.5
T0
M30
