G04 #@! TF.GenerationSoftware,KiCad,Pcbnew,5.0.2+dfsg1-1~bpo9+1*
G04 #@! TF.CreationDate,2019-05-11T00:02:52+03:00*
G04 #@! TF.ProjectId,dled-esp32-controller,646c6564-2d65-4737-9033-322d636f6e74,rev?*
G04 #@! TF.SameCoordinates,Original*
G04 #@! TF.FileFunction,Soldermask,Bot*
G04 #@! TF.FilePolarity,Negative*
%FSLAX46Y46*%
G04 Gerber Fmt 4.6, Leading zero omitted, Abs format (unit mm)*
G04 Created by KiCad (PCBNEW 5.0.2+dfsg1-1~bpo9+1) date Sb 11 mai 2019 00:02:52 +0300*
%MOMM*%
%LPD*%
G01*
G04 APERTURE LIST*
%ADD10C,0.100000*%
G04 APERTURE END LIST*
D10*
G36*
X72915049Y-93307618D02*
X72915052Y-93307619D01*
X72915051Y-93307619D01*
X73329985Y-93479490D01*
X73703415Y-93729008D01*
X74020992Y-94046585D01*
X74270510Y-94420015D01*
X74403446Y-94740950D01*
X74442382Y-94834951D01*
X74530000Y-95275438D01*
X74530000Y-95724562D01*
X74442382Y-96165049D01*
X74442381Y-96165051D01*
X74270510Y-96579985D01*
X74020992Y-96953415D01*
X73703415Y-97270992D01*
X73329985Y-97520510D01*
X73009050Y-97653446D01*
X72915049Y-97692382D01*
X72474562Y-97780000D01*
X72025438Y-97780000D01*
X71584951Y-97692382D01*
X71490950Y-97653446D01*
X71170015Y-97520510D01*
X70796585Y-97270992D01*
X70479008Y-96953415D01*
X70229490Y-96579985D01*
X70057619Y-96165051D01*
X70057618Y-96165049D01*
X69970000Y-95724562D01*
X69970000Y-95275438D01*
X70057618Y-94834951D01*
X70096554Y-94740950D01*
X70229490Y-94420015D01*
X70479008Y-94046585D01*
X70796585Y-93729008D01*
X71170015Y-93479490D01*
X71584949Y-93307619D01*
X71584948Y-93307619D01*
X71584951Y-93307618D01*
X72025438Y-93220000D01*
X72474562Y-93220000D01*
X72915049Y-93307618D01*
X72915049Y-93307618D01*
G37*
G36*
X28415049Y-93307618D02*
X28415052Y-93307619D01*
X28415051Y-93307619D01*
X28829985Y-93479490D01*
X29203415Y-93729008D01*
X29520992Y-94046585D01*
X29770510Y-94420015D01*
X29903446Y-94740950D01*
X29942382Y-94834951D01*
X30030000Y-95275438D01*
X30030000Y-95724562D01*
X29942382Y-96165049D01*
X29942381Y-96165051D01*
X29770510Y-96579985D01*
X29520992Y-96953415D01*
X29203415Y-97270992D01*
X28829985Y-97520510D01*
X28509050Y-97653446D01*
X28415049Y-97692382D01*
X27974562Y-97780000D01*
X27525438Y-97780000D01*
X27084951Y-97692382D01*
X26990950Y-97653446D01*
X26670015Y-97520510D01*
X26296585Y-97270992D01*
X25979008Y-96953415D01*
X25729490Y-96579985D01*
X25557619Y-96165051D01*
X25557618Y-96165049D01*
X25470000Y-95724562D01*
X25470000Y-95275438D01*
X25557618Y-94834951D01*
X25596554Y-94740950D01*
X25729490Y-94420015D01*
X25979008Y-94046585D01*
X26296585Y-93729008D01*
X26670015Y-93479490D01*
X27084949Y-93307619D01*
X27084948Y-93307619D01*
X27084951Y-93307618D01*
X27525438Y-93220000D01*
X27974562Y-93220000D01*
X28415049Y-93307618D01*
X28415049Y-93307618D01*
G37*
G36*
X64321660Y-93698130D02*
X64533791Y-93740325D01*
X64866830Y-93878275D01*
X65166557Y-94078546D01*
X65421454Y-94333443D01*
X65621725Y-94633170D01*
X65759675Y-94966209D01*
X65830000Y-95319761D01*
X65830000Y-95680239D01*
X65759675Y-96033791D01*
X65621725Y-96366830D01*
X65421454Y-96666557D01*
X65166557Y-96921454D01*
X64866830Y-97121725D01*
X64533791Y-97259675D01*
X64321660Y-97301870D01*
X64180241Y-97330000D01*
X63819759Y-97330000D01*
X63678340Y-97301870D01*
X63466209Y-97259675D01*
X63133170Y-97121725D01*
X62833443Y-96921454D01*
X62578546Y-96666557D01*
X62378275Y-96366830D01*
X62240325Y-96033791D01*
X62170000Y-95680239D01*
X62170000Y-95319761D01*
X62240325Y-94966209D01*
X62378275Y-94633170D01*
X62578546Y-94333443D01*
X62833443Y-94078546D01*
X63133170Y-93878275D01*
X63466209Y-93740325D01*
X63678340Y-93698130D01*
X63819759Y-93670000D01*
X64180241Y-93670000D01*
X64321660Y-93698130D01*
X64321660Y-93698130D01*
G37*
G36*
X42321660Y-93698130D02*
X42533791Y-93740325D01*
X42866830Y-93878275D01*
X43166557Y-94078546D01*
X43421454Y-94333443D01*
X43621725Y-94633170D01*
X43759675Y-94966209D01*
X43830000Y-95319761D01*
X43830000Y-95680239D01*
X43759675Y-96033791D01*
X43621725Y-96366830D01*
X43421454Y-96666557D01*
X43166557Y-96921454D01*
X42866830Y-97121725D01*
X42533791Y-97259675D01*
X42321660Y-97301870D01*
X42180241Y-97330000D01*
X41819759Y-97330000D01*
X41678340Y-97301870D01*
X41466209Y-97259675D01*
X41133170Y-97121725D01*
X40833443Y-96921454D01*
X40578546Y-96666557D01*
X40378275Y-96366830D01*
X40240325Y-96033791D01*
X40170000Y-95680239D01*
X40170000Y-95319761D01*
X40240325Y-94966209D01*
X40378275Y-94633170D01*
X40578546Y-94333443D01*
X40833443Y-94078546D01*
X41133170Y-93878275D01*
X41466209Y-93740325D01*
X41678340Y-93698130D01*
X41819759Y-93670000D01*
X42180241Y-93670000D01*
X42321660Y-93698130D01*
X42321660Y-93698130D01*
G37*
G36*
X64321660Y-88698130D02*
X64533791Y-88740325D01*
X64866830Y-88878275D01*
X65166557Y-89078546D01*
X65421454Y-89333443D01*
X65621725Y-89633170D01*
X65759675Y-89966209D01*
X65830000Y-90319761D01*
X65830000Y-90680239D01*
X65759675Y-91033791D01*
X65621725Y-91366830D01*
X65421454Y-91666557D01*
X65166557Y-91921454D01*
X64866830Y-92121725D01*
X64533791Y-92259675D01*
X64321660Y-92301870D01*
X64180241Y-92330000D01*
X63819759Y-92330000D01*
X63678340Y-92301870D01*
X63466209Y-92259675D01*
X63133170Y-92121725D01*
X62833443Y-91921454D01*
X62578546Y-91666557D01*
X62378275Y-91366830D01*
X62240325Y-91033791D01*
X62170000Y-90680239D01*
X62170000Y-90319761D01*
X62240325Y-89966209D01*
X62378275Y-89633170D01*
X62578546Y-89333443D01*
X62833443Y-89078546D01*
X63133170Y-88878275D01*
X63466209Y-88740325D01*
X63678340Y-88698130D01*
X63819759Y-88670000D01*
X64180241Y-88670000D01*
X64321660Y-88698130D01*
X64321660Y-88698130D01*
G37*
G36*
X42321660Y-88698130D02*
X42533791Y-88740325D01*
X42866830Y-88878275D01*
X43166557Y-89078546D01*
X43421454Y-89333443D01*
X43621725Y-89633170D01*
X43759675Y-89966209D01*
X43830000Y-90319761D01*
X43830000Y-90680239D01*
X43759675Y-91033791D01*
X43621725Y-91366830D01*
X43421454Y-91666557D01*
X43166557Y-91921454D01*
X42866830Y-92121725D01*
X42533791Y-92259675D01*
X42321660Y-92301870D01*
X42180241Y-92330000D01*
X41819759Y-92330000D01*
X41678340Y-92301870D01*
X41466209Y-92259675D01*
X41133170Y-92121725D01*
X40833443Y-91921454D01*
X40578546Y-91666557D01*
X40378275Y-91366830D01*
X40240325Y-91033791D01*
X40170000Y-90680239D01*
X40170000Y-90319761D01*
X40240325Y-89966209D01*
X40378275Y-89633170D01*
X40578546Y-89333443D01*
X40833443Y-89078546D01*
X41133170Y-88878275D01*
X41466209Y-88740325D01*
X41678340Y-88698130D01*
X41819759Y-88670000D01*
X42180241Y-88670000D01*
X42321660Y-88698130D01*
X42321660Y-88698130D01*
G37*
G36*
X73411713Y-81875626D02*
X73411716Y-81875627D01*
X73411717Y-81875627D01*
X73495786Y-81901129D01*
X73615299Y-81937383D01*
X73802921Y-82037669D01*
X73967371Y-82172629D01*
X74102331Y-82337079D01*
X74202617Y-82524701D01*
X74264374Y-82728287D01*
X74285226Y-82940000D01*
X74264374Y-83151713D01*
X74202617Y-83355299D01*
X74102331Y-83542921D01*
X73967371Y-83707371D01*
X73802921Y-83842331D01*
X73615299Y-83942617D01*
X73495786Y-83978871D01*
X73411717Y-84004373D01*
X73411716Y-84004373D01*
X73411713Y-84004374D01*
X73253056Y-84020000D01*
X72746944Y-84020000D01*
X72588287Y-84004374D01*
X72588284Y-84004373D01*
X72588283Y-84004373D01*
X72504214Y-83978871D01*
X72384701Y-83942617D01*
X72197079Y-83842331D01*
X72032629Y-83707371D01*
X71897669Y-83542921D01*
X71797383Y-83355299D01*
X71735626Y-83151713D01*
X71714774Y-82940000D01*
X71735626Y-82728287D01*
X71797383Y-82524701D01*
X71897669Y-82337079D01*
X72032629Y-82172629D01*
X72197079Y-82037669D01*
X72384701Y-81937383D01*
X72504214Y-81901129D01*
X72588283Y-81875627D01*
X72588284Y-81875627D01*
X72588287Y-81875626D01*
X72746944Y-81860000D01*
X73253056Y-81860000D01*
X73411713Y-81875626D01*
X73411713Y-81875626D01*
G37*
G36*
X73411713Y-79335626D02*
X73411716Y-79335627D01*
X73411717Y-79335627D01*
X73495786Y-79361129D01*
X73615299Y-79397383D01*
X73802921Y-79497669D01*
X73967371Y-79632629D01*
X74102331Y-79797079D01*
X74202617Y-79984701D01*
X74264374Y-80188287D01*
X74285226Y-80400000D01*
X74264374Y-80611713D01*
X74202617Y-80815299D01*
X74102331Y-81002921D01*
X73967371Y-81167371D01*
X73802921Y-81302331D01*
X73615299Y-81402617D01*
X73495786Y-81438871D01*
X73411717Y-81464373D01*
X73411716Y-81464373D01*
X73411713Y-81464374D01*
X73253056Y-81480000D01*
X72746944Y-81480000D01*
X72588287Y-81464374D01*
X72588284Y-81464373D01*
X72588283Y-81464373D01*
X72504214Y-81438871D01*
X72384701Y-81402617D01*
X72197079Y-81302331D01*
X72032629Y-81167371D01*
X71897669Y-81002921D01*
X71797383Y-80815299D01*
X71735626Y-80611713D01*
X71714774Y-80400000D01*
X71735626Y-80188287D01*
X71797383Y-79984701D01*
X71897669Y-79797079D01*
X72032629Y-79632629D01*
X72197079Y-79497669D01*
X72384701Y-79397383D01*
X72504214Y-79361129D01*
X72588283Y-79335627D01*
X72588284Y-79335627D01*
X72588287Y-79335626D01*
X72746944Y-79320000D01*
X73253056Y-79320000D01*
X73411713Y-79335626D01*
X73411713Y-79335626D01*
G37*
G36*
X73411713Y-76795626D02*
X73411716Y-76795627D01*
X73411717Y-76795627D01*
X73495786Y-76821129D01*
X73615299Y-76857383D01*
X73802921Y-76957669D01*
X73967371Y-77092629D01*
X74102331Y-77257079D01*
X74202617Y-77444701D01*
X74264374Y-77648287D01*
X74285226Y-77860000D01*
X74264374Y-78071713D01*
X74202617Y-78275299D01*
X74102331Y-78462921D01*
X73967371Y-78627371D01*
X73802921Y-78762331D01*
X73615299Y-78862617D01*
X73495786Y-78898871D01*
X73411717Y-78924373D01*
X73411716Y-78924373D01*
X73411713Y-78924374D01*
X73253056Y-78940000D01*
X72746944Y-78940000D01*
X72588287Y-78924374D01*
X72588284Y-78924373D01*
X72588283Y-78924373D01*
X72504214Y-78898871D01*
X72384701Y-78862617D01*
X72197079Y-78762331D01*
X72032629Y-78627371D01*
X71897669Y-78462921D01*
X71797383Y-78275299D01*
X71735626Y-78071713D01*
X71714774Y-77860000D01*
X71735626Y-77648287D01*
X71797383Y-77444701D01*
X71897669Y-77257079D01*
X72032629Y-77092629D01*
X72197079Y-76957669D01*
X72384701Y-76857383D01*
X72504214Y-76821129D01*
X72588283Y-76795627D01*
X72588284Y-76795627D01*
X72588287Y-76795626D01*
X72746944Y-76780000D01*
X73253056Y-76780000D01*
X73411713Y-76795626D01*
X73411713Y-76795626D01*
G37*
G36*
X73411713Y-74255626D02*
X73411716Y-74255627D01*
X73411717Y-74255627D01*
X73495786Y-74281129D01*
X73615299Y-74317383D01*
X73802921Y-74417669D01*
X73967371Y-74552629D01*
X74102331Y-74717079D01*
X74202617Y-74904701D01*
X74264374Y-75108287D01*
X74285226Y-75320000D01*
X74264374Y-75531713D01*
X74202617Y-75735299D01*
X74102331Y-75922921D01*
X73967371Y-76087371D01*
X73802921Y-76222331D01*
X73615299Y-76322617D01*
X73495786Y-76358871D01*
X73411717Y-76384373D01*
X73411716Y-76384373D01*
X73411713Y-76384374D01*
X73253056Y-76400000D01*
X72746944Y-76400000D01*
X72588287Y-76384374D01*
X72588284Y-76384373D01*
X72588283Y-76384373D01*
X72504214Y-76358871D01*
X72384701Y-76322617D01*
X72197079Y-76222331D01*
X72032629Y-76087371D01*
X71897669Y-75922921D01*
X71797383Y-75735299D01*
X71735626Y-75531713D01*
X71714774Y-75320000D01*
X71735626Y-75108287D01*
X71797383Y-74904701D01*
X71897669Y-74717079D01*
X72032629Y-74552629D01*
X72197079Y-74417669D01*
X72384701Y-74317383D01*
X72504214Y-74281129D01*
X72588283Y-74255627D01*
X72588284Y-74255627D01*
X72588287Y-74255626D01*
X72746944Y-74240000D01*
X73253056Y-74240000D01*
X73411713Y-74255626D01*
X73411713Y-74255626D01*
G37*
G36*
X35831712Y-72895626D02*
X35831715Y-72895627D01*
X35831716Y-72895627D01*
X35915785Y-72921129D01*
X36035298Y-72957383D01*
X36085440Y-72984185D01*
X36222919Y-73057668D01*
X36287567Y-73110723D01*
X36387371Y-73192629D01*
X36522331Y-73357079D01*
X36622617Y-73544701D01*
X36684374Y-73748287D01*
X36700000Y-73906944D01*
X36700000Y-74413055D01*
X36684374Y-74571712D01*
X36684373Y-74571715D01*
X36684373Y-74571716D01*
X36653495Y-74673506D01*
X36622616Y-74775301D01*
X36522332Y-74962919D01*
X36387371Y-75127371D01*
X36222921Y-75262331D01*
X36035299Y-75362617D01*
X35915786Y-75398871D01*
X35831717Y-75424373D01*
X35831716Y-75424373D01*
X35831713Y-75424374D01*
X35620000Y-75445226D01*
X35408288Y-75424374D01*
X35408285Y-75424373D01*
X35408284Y-75424373D01*
X35324215Y-75398871D01*
X35204702Y-75362617D01*
X35017080Y-75262331D01*
X34852630Y-75127371D01*
X34717670Y-74962921D01*
X34617383Y-74775299D01*
X34555626Y-74571713D01*
X34540000Y-74413056D01*
X34540000Y-73906945D01*
X34555626Y-73748288D01*
X34555628Y-73748283D01*
X34581129Y-73664215D01*
X34617383Y-73544702D01*
X34644185Y-73494560D01*
X34717668Y-73357081D01*
X34770723Y-73292433D01*
X34852629Y-73192629D01*
X35017079Y-73057669D01*
X35204701Y-72957383D01*
X35324214Y-72921129D01*
X35408283Y-72895627D01*
X35408284Y-72895627D01*
X35408287Y-72895626D01*
X35620000Y-72874774D01*
X35831712Y-72895626D01*
X35831712Y-72895626D01*
G37*
G36*
X33291712Y-72895626D02*
X33291715Y-72895627D01*
X33291716Y-72895627D01*
X33375785Y-72921129D01*
X33495298Y-72957383D01*
X33545440Y-72984185D01*
X33682919Y-73057668D01*
X33747567Y-73110723D01*
X33847371Y-73192629D01*
X33982331Y-73357079D01*
X34082617Y-73544701D01*
X34144374Y-73748287D01*
X34160000Y-73906944D01*
X34160000Y-74413055D01*
X34144374Y-74571712D01*
X34144373Y-74571715D01*
X34144373Y-74571716D01*
X34113495Y-74673506D01*
X34082616Y-74775301D01*
X33982332Y-74962919D01*
X33847371Y-75127371D01*
X33682921Y-75262331D01*
X33495299Y-75362617D01*
X33375786Y-75398871D01*
X33291717Y-75424373D01*
X33291716Y-75424373D01*
X33291713Y-75424374D01*
X33080000Y-75445226D01*
X32868288Y-75424374D01*
X32868285Y-75424373D01*
X32868284Y-75424373D01*
X32784215Y-75398871D01*
X32664702Y-75362617D01*
X32477080Y-75262331D01*
X32312630Y-75127371D01*
X32177670Y-74962921D01*
X32077383Y-74775299D01*
X32015626Y-74571713D01*
X32000000Y-74413056D01*
X32000000Y-73906945D01*
X32015626Y-73748288D01*
X32015628Y-73748283D01*
X32041129Y-73664215D01*
X32077383Y-73544702D01*
X32104185Y-73494560D01*
X32177668Y-73357081D01*
X32230723Y-73292433D01*
X32312629Y-73192629D01*
X32477079Y-73057669D01*
X32664701Y-72957383D01*
X32784214Y-72921129D01*
X32868283Y-72895627D01*
X32868284Y-72895627D01*
X32868287Y-72895626D01*
X33080000Y-72874774D01*
X33291712Y-72895626D01*
X33291712Y-72895626D01*
G37*
G36*
X28211712Y-72895626D02*
X28211715Y-72895627D01*
X28211716Y-72895627D01*
X28295785Y-72921129D01*
X28415298Y-72957383D01*
X28465440Y-72984185D01*
X28602919Y-73057668D01*
X28667567Y-73110723D01*
X28767371Y-73192629D01*
X28902331Y-73357079D01*
X29002617Y-73544701D01*
X29064374Y-73748287D01*
X29080000Y-73906944D01*
X29080000Y-74413055D01*
X29064374Y-74571712D01*
X29064373Y-74571715D01*
X29064373Y-74571716D01*
X29033495Y-74673506D01*
X29002616Y-74775301D01*
X28902332Y-74962919D01*
X28767371Y-75127371D01*
X28602921Y-75262331D01*
X28415299Y-75362617D01*
X28295786Y-75398871D01*
X28211717Y-75424373D01*
X28211716Y-75424373D01*
X28211713Y-75424374D01*
X28000000Y-75445226D01*
X27788288Y-75424374D01*
X27788285Y-75424373D01*
X27788284Y-75424373D01*
X27704215Y-75398871D01*
X27584702Y-75362617D01*
X27397080Y-75262331D01*
X27232630Y-75127371D01*
X27097670Y-74962921D01*
X26997383Y-74775299D01*
X26935626Y-74571713D01*
X26920000Y-74413056D01*
X26920000Y-73906945D01*
X26935626Y-73748288D01*
X26935628Y-73748283D01*
X26961129Y-73664215D01*
X26997383Y-73544702D01*
X27024185Y-73494560D01*
X27097668Y-73357081D01*
X27150723Y-73292433D01*
X27232629Y-73192629D01*
X27397079Y-73057669D01*
X27584701Y-72957383D01*
X27704214Y-72921129D01*
X27788283Y-72895627D01*
X27788284Y-72895627D01*
X27788287Y-72895626D01*
X28000000Y-72874774D01*
X28211712Y-72895626D01*
X28211712Y-72895626D01*
G37*
G36*
X38371712Y-72895626D02*
X38371715Y-72895627D01*
X38371716Y-72895627D01*
X38455785Y-72921129D01*
X38575298Y-72957383D01*
X38625440Y-72984185D01*
X38762919Y-73057668D01*
X38827567Y-73110723D01*
X38927371Y-73192629D01*
X39062331Y-73357079D01*
X39162617Y-73544701D01*
X39224374Y-73748287D01*
X39240000Y-73906944D01*
X39240000Y-74413055D01*
X39224374Y-74571712D01*
X39224373Y-74571715D01*
X39224373Y-74571716D01*
X39193495Y-74673506D01*
X39162616Y-74775301D01*
X39062332Y-74962919D01*
X38927371Y-75127371D01*
X38762921Y-75262331D01*
X38575299Y-75362617D01*
X38455786Y-75398871D01*
X38371717Y-75424373D01*
X38371716Y-75424373D01*
X38371713Y-75424374D01*
X38160000Y-75445226D01*
X37948288Y-75424374D01*
X37948285Y-75424373D01*
X37948284Y-75424373D01*
X37864215Y-75398871D01*
X37744702Y-75362617D01*
X37557080Y-75262331D01*
X37392630Y-75127371D01*
X37257670Y-74962921D01*
X37157383Y-74775299D01*
X37095626Y-74571713D01*
X37080000Y-74413056D01*
X37080000Y-73906945D01*
X37095626Y-73748288D01*
X37095628Y-73748283D01*
X37121129Y-73664215D01*
X37157383Y-73544702D01*
X37184185Y-73494560D01*
X37257668Y-73357081D01*
X37310723Y-73292433D01*
X37392629Y-73192629D01*
X37557079Y-73057669D01*
X37744701Y-72957383D01*
X37864214Y-72921129D01*
X37948283Y-72895627D01*
X37948284Y-72895627D01*
X37948287Y-72895626D01*
X38160000Y-72874774D01*
X38371712Y-72895626D01*
X38371712Y-72895626D01*
G37*
G36*
X30751712Y-72895626D02*
X30751715Y-72895627D01*
X30751716Y-72895627D01*
X30835785Y-72921129D01*
X30955298Y-72957383D01*
X31005440Y-72984185D01*
X31142919Y-73057668D01*
X31207567Y-73110723D01*
X31307371Y-73192629D01*
X31442331Y-73357079D01*
X31542617Y-73544701D01*
X31604374Y-73748287D01*
X31620000Y-73906944D01*
X31620000Y-74413055D01*
X31604374Y-74571712D01*
X31604373Y-74571715D01*
X31604373Y-74571716D01*
X31573495Y-74673506D01*
X31542616Y-74775301D01*
X31442332Y-74962919D01*
X31307371Y-75127371D01*
X31142921Y-75262331D01*
X30955299Y-75362617D01*
X30835786Y-75398871D01*
X30751717Y-75424373D01*
X30751716Y-75424373D01*
X30751713Y-75424374D01*
X30540000Y-75445226D01*
X30328288Y-75424374D01*
X30328285Y-75424373D01*
X30328284Y-75424373D01*
X30244215Y-75398871D01*
X30124702Y-75362617D01*
X29937080Y-75262331D01*
X29772630Y-75127371D01*
X29637670Y-74962921D01*
X29537383Y-74775299D01*
X29475626Y-74571713D01*
X29460000Y-74413056D01*
X29460000Y-73906945D01*
X29475626Y-73748288D01*
X29475628Y-73748283D01*
X29501129Y-73664215D01*
X29537383Y-73544702D01*
X29564185Y-73494560D01*
X29637668Y-73357081D01*
X29690723Y-73292433D01*
X29772629Y-73192629D01*
X29937079Y-73057669D01*
X30124701Y-72957383D01*
X30244214Y-72921129D01*
X30328283Y-72895627D01*
X30328284Y-72895627D01*
X30328287Y-72895626D01*
X30540000Y-72874774D01*
X30751712Y-72895626D01*
X30751712Y-72895626D01*
G37*
G36*
X73411713Y-71715626D02*
X73411716Y-71715627D01*
X73411717Y-71715627D01*
X73495786Y-71741129D01*
X73615299Y-71777383D01*
X73802921Y-71877669D01*
X73967371Y-72012629D01*
X74102331Y-72177079D01*
X74202617Y-72364701D01*
X74264374Y-72568287D01*
X74285226Y-72780000D01*
X74264374Y-72991713D01*
X74202617Y-73195299D01*
X74102331Y-73382921D01*
X73967371Y-73547371D01*
X73802921Y-73682331D01*
X73615299Y-73782617D01*
X73495786Y-73818871D01*
X73411717Y-73844373D01*
X73411716Y-73844373D01*
X73411713Y-73844374D01*
X73253056Y-73860000D01*
X72746944Y-73860000D01*
X72588287Y-73844374D01*
X72588284Y-73844373D01*
X72588283Y-73844373D01*
X72504214Y-73818871D01*
X72384701Y-73782617D01*
X72197079Y-73682331D01*
X72032629Y-73547371D01*
X71897669Y-73382921D01*
X71797383Y-73195299D01*
X71735626Y-72991713D01*
X71714774Y-72780000D01*
X71735626Y-72568287D01*
X71797383Y-72364701D01*
X71897669Y-72177079D01*
X72032629Y-72012629D01*
X72197079Y-71877669D01*
X72384701Y-71777383D01*
X72504214Y-71741129D01*
X72588283Y-71715627D01*
X72588284Y-71715627D01*
X72588287Y-71715626D01*
X72746944Y-71700000D01*
X73253056Y-71700000D01*
X73411713Y-71715626D01*
X73411713Y-71715626D01*
G37*
G36*
X73411713Y-69175626D02*
X73411716Y-69175627D01*
X73411717Y-69175627D01*
X73495786Y-69201129D01*
X73615299Y-69237383D01*
X73802921Y-69337669D01*
X73967371Y-69472629D01*
X74102331Y-69637079D01*
X74202617Y-69824701D01*
X74264374Y-70028287D01*
X74285226Y-70240000D01*
X74264374Y-70451713D01*
X74202617Y-70655299D01*
X74102331Y-70842921D01*
X73967371Y-71007371D01*
X73802921Y-71142331D01*
X73615299Y-71242617D01*
X73495786Y-71278871D01*
X73411717Y-71304373D01*
X73411716Y-71304373D01*
X73411713Y-71304374D01*
X73253056Y-71320000D01*
X72746944Y-71320000D01*
X72588287Y-71304374D01*
X72588284Y-71304373D01*
X72588283Y-71304373D01*
X72504214Y-71278871D01*
X72384701Y-71242617D01*
X72197079Y-71142331D01*
X72032629Y-71007371D01*
X71897669Y-70842921D01*
X71797383Y-70655299D01*
X71735626Y-70451713D01*
X71714774Y-70240000D01*
X71735626Y-70028287D01*
X71797383Y-69824701D01*
X71897669Y-69637079D01*
X72032629Y-69472629D01*
X72197079Y-69337669D01*
X72384701Y-69237383D01*
X72504214Y-69201129D01*
X72588283Y-69175627D01*
X72588284Y-69175627D01*
X72588287Y-69175626D01*
X72746944Y-69160000D01*
X73253056Y-69160000D01*
X73411713Y-69175626D01*
X73411713Y-69175626D01*
G37*
G36*
X63251713Y-66635626D02*
X63251716Y-66635627D01*
X63251717Y-66635627D01*
X63335786Y-66661129D01*
X63455299Y-66697383D01*
X63642921Y-66797669D01*
X63807371Y-66932629D01*
X63942331Y-67097079D01*
X64042617Y-67284701D01*
X64104374Y-67488287D01*
X64125226Y-67700000D01*
X64104374Y-67911713D01*
X64042617Y-68115299D01*
X63942331Y-68302921D01*
X63807371Y-68467371D01*
X63642921Y-68602331D01*
X63455299Y-68702617D01*
X63335786Y-68738871D01*
X63251717Y-68764373D01*
X63251716Y-68764373D01*
X63251713Y-68764374D01*
X63093056Y-68780000D01*
X62586944Y-68780000D01*
X62428287Y-68764374D01*
X62428284Y-68764373D01*
X62428283Y-68764373D01*
X62344214Y-68738871D01*
X62224701Y-68702617D01*
X62037079Y-68602331D01*
X61872629Y-68467371D01*
X61737669Y-68302921D01*
X61637383Y-68115299D01*
X61575626Y-67911713D01*
X61554774Y-67700000D01*
X61575626Y-67488287D01*
X61637383Y-67284701D01*
X61737669Y-67097079D01*
X61872629Y-66932629D01*
X62037079Y-66797669D01*
X62224701Y-66697383D01*
X62344214Y-66661129D01*
X62428283Y-66635627D01*
X62428284Y-66635627D01*
X62428287Y-66635626D01*
X62586944Y-66620000D01*
X63093056Y-66620000D01*
X63251713Y-66635626D01*
X63251713Y-66635626D01*
G37*
G36*
X73411713Y-66635626D02*
X73411716Y-66635627D01*
X73411717Y-66635627D01*
X73495786Y-66661129D01*
X73615299Y-66697383D01*
X73802921Y-66797669D01*
X73967371Y-66932629D01*
X74102331Y-67097079D01*
X74202617Y-67284701D01*
X74264374Y-67488287D01*
X74285226Y-67700000D01*
X74264374Y-67911713D01*
X74202617Y-68115299D01*
X74102331Y-68302921D01*
X73967371Y-68467371D01*
X73802921Y-68602331D01*
X73615299Y-68702617D01*
X73495786Y-68738871D01*
X73411717Y-68764373D01*
X73411716Y-68764373D01*
X73411713Y-68764374D01*
X73253056Y-68780000D01*
X72746944Y-68780000D01*
X72588287Y-68764374D01*
X72588284Y-68764373D01*
X72588283Y-68764373D01*
X72504214Y-68738871D01*
X72384701Y-68702617D01*
X72197079Y-68602331D01*
X72032629Y-68467371D01*
X71897669Y-68302921D01*
X71797383Y-68115299D01*
X71735626Y-67911713D01*
X71714774Y-67700000D01*
X71735626Y-67488287D01*
X71797383Y-67284701D01*
X71897669Y-67097079D01*
X72032629Y-66932629D01*
X72197079Y-66797669D01*
X72384701Y-66697383D01*
X72504214Y-66661129D01*
X72588283Y-66635627D01*
X72588284Y-66635627D01*
X72588287Y-66635626D01*
X72746944Y-66620000D01*
X73253056Y-66620000D01*
X73411713Y-66635626D01*
X73411713Y-66635626D01*
G37*
G36*
X73411713Y-64095626D02*
X73411716Y-64095627D01*
X73411717Y-64095627D01*
X73495786Y-64121129D01*
X73615299Y-64157383D01*
X73802921Y-64257669D01*
X73967371Y-64392629D01*
X74102331Y-64557079D01*
X74202617Y-64744701D01*
X74264374Y-64948287D01*
X74285226Y-65160000D01*
X74264374Y-65371713D01*
X74202617Y-65575299D01*
X74102331Y-65762921D01*
X73967371Y-65927371D01*
X73802921Y-66062331D01*
X73615299Y-66162617D01*
X73495786Y-66198871D01*
X73411717Y-66224373D01*
X73411716Y-66224373D01*
X73411713Y-66224374D01*
X73253056Y-66240000D01*
X72746944Y-66240000D01*
X72588287Y-66224374D01*
X72588284Y-66224373D01*
X72588283Y-66224373D01*
X72504214Y-66198871D01*
X72384701Y-66162617D01*
X72197079Y-66062331D01*
X72032629Y-65927371D01*
X71897669Y-65762921D01*
X71797383Y-65575299D01*
X71735626Y-65371713D01*
X71714774Y-65160000D01*
X71735626Y-64948287D01*
X71797383Y-64744701D01*
X71897669Y-64557079D01*
X72032629Y-64392629D01*
X72197079Y-64257669D01*
X72384701Y-64157383D01*
X72504214Y-64121129D01*
X72588283Y-64095627D01*
X72588284Y-64095627D01*
X72588287Y-64095626D01*
X72746944Y-64080000D01*
X73253056Y-64080000D01*
X73411713Y-64095626D01*
X73411713Y-64095626D01*
G37*
G36*
X63251713Y-64095626D02*
X63251716Y-64095627D01*
X63251717Y-64095627D01*
X63335786Y-64121129D01*
X63455299Y-64157383D01*
X63642921Y-64257669D01*
X63807371Y-64392629D01*
X63942331Y-64557079D01*
X64042617Y-64744701D01*
X64104374Y-64948287D01*
X64125226Y-65160000D01*
X64104374Y-65371713D01*
X64042617Y-65575299D01*
X63942331Y-65762921D01*
X63807371Y-65927371D01*
X63642921Y-66062331D01*
X63455299Y-66162617D01*
X63335786Y-66198871D01*
X63251717Y-66224373D01*
X63251716Y-66224373D01*
X63251713Y-66224374D01*
X63093056Y-66240000D01*
X62586944Y-66240000D01*
X62428287Y-66224374D01*
X62428284Y-66224373D01*
X62428283Y-66224373D01*
X62344214Y-66198871D01*
X62224701Y-66162617D01*
X62037079Y-66062331D01*
X61872629Y-65927371D01*
X61737669Y-65762921D01*
X61637383Y-65575299D01*
X61575626Y-65371713D01*
X61554774Y-65160000D01*
X61575626Y-64948287D01*
X61637383Y-64744701D01*
X61737669Y-64557079D01*
X61872629Y-64392629D01*
X62037079Y-64257669D01*
X62224701Y-64157383D01*
X62344214Y-64121129D01*
X62428283Y-64095627D01*
X62428284Y-64095627D01*
X62428287Y-64095626D01*
X62586944Y-64080000D01*
X63093056Y-64080000D01*
X63251713Y-64095626D01*
X63251713Y-64095626D01*
G37*
G36*
X28661713Y-61975626D02*
X28661716Y-61975627D01*
X28661717Y-61975627D01*
X28745786Y-62001129D01*
X28865299Y-62037383D01*
X29052921Y-62137669D01*
X29217371Y-62272629D01*
X29352331Y-62437079D01*
X29452617Y-62624701D01*
X29514374Y-62828287D01*
X29535226Y-63040000D01*
X29514374Y-63251713D01*
X29452617Y-63455299D01*
X29352331Y-63642921D01*
X29217371Y-63807371D01*
X29052921Y-63942331D01*
X28865299Y-64042617D01*
X28745786Y-64078871D01*
X28661717Y-64104373D01*
X28661716Y-64104373D01*
X28661713Y-64104374D01*
X28503056Y-64120000D01*
X27996944Y-64120000D01*
X27838287Y-64104374D01*
X27838284Y-64104373D01*
X27838283Y-64104373D01*
X27754214Y-64078871D01*
X27634701Y-64042617D01*
X27447079Y-63942331D01*
X27282629Y-63807371D01*
X27147669Y-63642921D01*
X27047383Y-63455299D01*
X26985626Y-63251713D01*
X26964774Y-63040000D01*
X26985626Y-62828287D01*
X27047383Y-62624701D01*
X27147669Y-62437079D01*
X27282629Y-62272629D01*
X27447079Y-62137669D01*
X27634701Y-62037383D01*
X27754214Y-62001129D01*
X27838283Y-61975627D01*
X27838284Y-61975627D01*
X27838287Y-61975626D01*
X27996944Y-61960000D01*
X28503056Y-61960000D01*
X28661713Y-61975626D01*
X28661713Y-61975626D01*
G37*
G36*
X73411713Y-61555626D02*
X73411716Y-61555627D01*
X73411717Y-61555627D01*
X73495786Y-61581129D01*
X73615299Y-61617383D01*
X73802921Y-61717669D01*
X73967371Y-61852629D01*
X74102331Y-62017079D01*
X74202617Y-62204701D01*
X74264374Y-62408287D01*
X74285226Y-62620000D01*
X74264374Y-62831713D01*
X74202617Y-63035299D01*
X74102331Y-63222921D01*
X73967371Y-63387371D01*
X73802921Y-63522331D01*
X73615299Y-63622617D01*
X73495786Y-63658871D01*
X73411717Y-63684373D01*
X73411716Y-63684373D01*
X73411713Y-63684374D01*
X73253056Y-63700000D01*
X72746944Y-63700000D01*
X72588287Y-63684374D01*
X72588284Y-63684373D01*
X72588283Y-63684373D01*
X72504214Y-63658871D01*
X72384701Y-63622617D01*
X72197079Y-63522331D01*
X72032629Y-63387371D01*
X71897669Y-63222921D01*
X71797383Y-63035299D01*
X71735626Y-62831713D01*
X71714774Y-62620000D01*
X71735626Y-62408287D01*
X71797383Y-62204701D01*
X71897669Y-62017079D01*
X72032629Y-61852629D01*
X72197079Y-61717669D01*
X72384701Y-61617383D01*
X72504214Y-61581129D01*
X72588283Y-61555627D01*
X72588284Y-61555627D01*
X72588287Y-61555626D01*
X72746944Y-61540000D01*
X73253056Y-61540000D01*
X73411713Y-61555626D01*
X73411713Y-61555626D01*
G37*
G36*
X63251713Y-61555626D02*
X63251716Y-61555627D01*
X63251717Y-61555627D01*
X63335786Y-61581129D01*
X63455299Y-61617383D01*
X63642921Y-61717669D01*
X63807371Y-61852629D01*
X63942331Y-62017079D01*
X64042617Y-62204701D01*
X64104374Y-62408287D01*
X64125226Y-62620000D01*
X64104374Y-62831713D01*
X64042617Y-63035299D01*
X63942331Y-63222921D01*
X63807371Y-63387371D01*
X63642921Y-63522331D01*
X63455299Y-63622617D01*
X63335786Y-63658871D01*
X63251717Y-63684373D01*
X63251716Y-63684373D01*
X63251713Y-63684374D01*
X63093056Y-63700000D01*
X62586944Y-63700000D01*
X62428287Y-63684374D01*
X62428284Y-63684373D01*
X62428283Y-63684373D01*
X62344214Y-63658871D01*
X62224701Y-63622617D01*
X62037079Y-63522331D01*
X61872629Y-63387371D01*
X61737669Y-63222921D01*
X61637383Y-63035299D01*
X61575626Y-62831713D01*
X61554774Y-62620000D01*
X61575626Y-62408287D01*
X61637383Y-62204701D01*
X61737669Y-62017079D01*
X61872629Y-61852629D01*
X62037079Y-61717669D01*
X62224701Y-61617383D01*
X62344214Y-61581129D01*
X62428283Y-61555627D01*
X62428284Y-61555627D01*
X62428287Y-61555626D01*
X62586944Y-61540000D01*
X63093056Y-61540000D01*
X63251713Y-61555626D01*
X63251713Y-61555626D01*
G37*
G36*
X50462546Y-58436534D02*
X50664517Y-58497802D01*
X50850658Y-58597295D01*
X51013809Y-58731191D01*
X51147705Y-58894342D01*
X51247198Y-59080483D01*
X51308466Y-59282454D01*
X51330000Y-59501094D01*
X51330000Y-61988906D01*
X51308466Y-62207546D01*
X51247198Y-62409517D01*
X51147705Y-62595658D01*
X51013809Y-62758809D01*
X50850658Y-62892705D01*
X50664517Y-62992198D01*
X50462546Y-63053466D01*
X50243906Y-63075000D01*
X47756094Y-63075000D01*
X47537454Y-63053466D01*
X47335483Y-62992198D01*
X47149342Y-62892705D01*
X46986191Y-62758809D01*
X46852295Y-62595658D01*
X46752802Y-62409517D01*
X46691534Y-62207546D01*
X46670000Y-61988906D01*
X46670000Y-59501094D01*
X46691534Y-59282454D01*
X46752802Y-59080483D01*
X46852295Y-58894342D01*
X46986191Y-58731191D01*
X47149342Y-58597295D01*
X47335483Y-58497802D01*
X47537454Y-58436534D01*
X47756094Y-58415000D01*
X50243906Y-58415000D01*
X50462546Y-58436534D01*
X50462546Y-58436534D01*
G37*
G36*
X73411713Y-59015626D02*
X73411716Y-59015627D01*
X73411717Y-59015627D01*
X73495786Y-59041129D01*
X73615299Y-59077383D01*
X73802921Y-59177669D01*
X73967371Y-59312629D01*
X74102331Y-59477079D01*
X74202617Y-59664701D01*
X74264374Y-59868287D01*
X74285226Y-60080000D01*
X74264374Y-60291713D01*
X74202617Y-60495299D01*
X74102331Y-60682921D01*
X73967371Y-60847371D01*
X73802921Y-60982331D01*
X73615299Y-61082617D01*
X73495786Y-61118871D01*
X73411717Y-61144373D01*
X73411716Y-61144373D01*
X73411713Y-61144374D01*
X73253056Y-61160000D01*
X72746944Y-61160000D01*
X72588287Y-61144374D01*
X72588284Y-61144373D01*
X72588283Y-61144373D01*
X72504214Y-61118871D01*
X72384701Y-61082617D01*
X72197079Y-60982331D01*
X72032629Y-60847371D01*
X71897669Y-60682921D01*
X71797383Y-60495299D01*
X71735626Y-60291713D01*
X71714774Y-60080000D01*
X71735626Y-59868287D01*
X71797383Y-59664701D01*
X71897669Y-59477079D01*
X72032629Y-59312629D01*
X72197079Y-59177669D01*
X72384701Y-59077383D01*
X72504214Y-59041129D01*
X72588283Y-59015627D01*
X72588284Y-59015627D01*
X72588287Y-59015626D01*
X72746944Y-59000000D01*
X73253056Y-59000000D01*
X73411713Y-59015626D01*
X73411713Y-59015626D01*
G37*
G36*
X28661713Y-58935626D02*
X28661716Y-58935627D01*
X28661717Y-58935627D01*
X28745786Y-58961129D01*
X28865299Y-58997383D01*
X29052921Y-59097669D01*
X29217371Y-59232629D01*
X29352331Y-59397079D01*
X29452617Y-59584701D01*
X29514374Y-59788287D01*
X29535226Y-60000000D01*
X29514374Y-60211713D01*
X29452617Y-60415299D01*
X29352331Y-60602921D01*
X29217371Y-60767371D01*
X29052921Y-60902331D01*
X28865299Y-61002617D01*
X28745786Y-61038871D01*
X28661717Y-61064373D01*
X28661716Y-61064373D01*
X28661713Y-61064374D01*
X28503056Y-61080000D01*
X27996944Y-61080000D01*
X27838287Y-61064374D01*
X27838284Y-61064373D01*
X27838283Y-61064373D01*
X27754214Y-61038871D01*
X27634701Y-61002617D01*
X27447079Y-60902331D01*
X27282629Y-60767371D01*
X27147669Y-60602921D01*
X27047383Y-60415299D01*
X26985626Y-60211713D01*
X26964774Y-60000000D01*
X26985626Y-59788287D01*
X27047383Y-59584701D01*
X27147669Y-59397079D01*
X27282629Y-59232629D01*
X27447079Y-59097669D01*
X27634701Y-58997383D01*
X27754214Y-58961129D01*
X27838283Y-58935627D01*
X27838284Y-58935627D01*
X27838287Y-58935626D01*
X27996944Y-58920000D01*
X28503056Y-58920000D01*
X28661713Y-58935626D01*
X28661713Y-58935626D01*
G37*
G36*
X73411713Y-56475626D02*
X73411716Y-56475627D01*
X73411717Y-56475627D01*
X73495786Y-56501129D01*
X73615299Y-56537383D01*
X73802921Y-56637669D01*
X73967371Y-56772629D01*
X74102331Y-56937079D01*
X74202617Y-57124701D01*
X74264374Y-57328287D01*
X74285226Y-57540000D01*
X74264374Y-57751713D01*
X74202617Y-57955299D01*
X74102331Y-58142921D01*
X73967371Y-58307371D01*
X73802921Y-58442331D01*
X73615299Y-58542617D01*
X73495786Y-58578871D01*
X73411717Y-58604373D01*
X73411716Y-58604373D01*
X73411713Y-58604374D01*
X73253056Y-58620000D01*
X72746944Y-58620000D01*
X72588287Y-58604374D01*
X72588284Y-58604373D01*
X72588283Y-58604373D01*
X72504214Y-58578871D01*
X72384701Y-58542617D01*
X72197079Y-58442331D01*
X72032629Y-58307371D01*
X71897669Y-58142921D01*
X71797383Y-57955299D01*
X71735626Y-57751713D01*
X71714774Y-57540000D01*
X71735626Y-57328287D01*
X71797383Y-57124701D01*
X71897669Y-56937079D01*
X72032629Y-56772629D01*
X72197079Y-56637669D01*
X72384701Y-56537383D01*
X72504214Y-56501129D01*
X72588283Y-56475627D01*
X72588284Y-56475627D01*
X72588287Y-56475626D01*
X72746944Y-56460000D01*
X73253056Y-56460000D01*
X73411713Y-56475626D01*
X73411713Y-56475626D01*
G37*
G36*
X73411713Y-53935626D02*
X73411716Y-53935627D01*
X73411717Y-53935627D01*
X73495786Y-53961129D01*
X73615299Y-53997383D01*
X73802921Y-54097669D01*
X73967371Y-54232629D01*
X74102331Y-54397079D01*
X74202617Y-54584701D01*
X74264374Y-54788287D01*
X74285226Y-55000000D01*
X74264374Y-55211713D01*
X74202617Y-55415299D01*
X74102331Y-55602921D01*
X73967371Y-55767371D01*
X73802921Y-55902331D01*
X73615299Y-56002617D01*
X73495786Y-56038871D01*
X73411717Y-56064373D01*
X73411716Y-56064373D01*
X73411713Y-56064374D01*
X73253056Y-56080000D01*
X72746944Y-56080000D01*
X72588287Y-56064374D01*
X72588284Y-56064373D01*
X72588283Y-56064373D01*
X72504214Y-56038871D01*
X72384701Y-56002617D01*
X72197079Y-55902331D01*
X72032629Y-55767371D01*
X71897669Y-55602921D01*
X71797383Y-55415299D01*
X71735626Y-55211713D01*
X71714774Y-55000000D01*
X71735626Y-54788287D01*
X71797383Y-54584701D01*
X71897669Y-54397079D01*
X72032629Y-54232629D01*
X72197079Y-54097669D01*
X72384701Y-53997383D01*
X72504214Y-53961129D01*
X72588283Y-53935627D01*
X72588284Y-53935627D01*
X72588287Y-53935626D01*
X72746944Y-53920000D01*
X73253056Y-53920000D01*
X73411713Y-53935626D01*
X73411713Y-53935626D01*
G37*
M02*
