G04 #@! TF.GenerationSoftware,KiCad,Pcbnew,5.0.2+dfsg1-1~bpo9+1*
G04 #@! TF.CreationDate,2019-05-11T00:02:52+03:00*
G04 #@! TF.ProjectId,dled-esp32-controller,646c6564-2d65-4737-9033-322d636f6e74,rev?*
G04 #@! TF.SameCoordinates,Original*
G04 #@! TF.FileFunction,Copper,L2,Bot*
G04 #@! TF.FilePolarity,Positive*
%FSLAX46Y46*%
G04 Gerber Fmt 4.6, Leading zero omitted, Abs format (unit mm)*
G04 Created by KiCad (PCBNEW 5.0.2+dfsg1-1~bpo9+1) date Sb 11 mai 2019 00:02:52 +0300*
%MOMM*%
%LPD*%
G01*
G04 APERTURE LIST*
G04 #@! TA.AperFunction,ComponentPad*
%ADD10O,2.400000X2.000000*%
G04 #@! TD*
G04 #@! TA.AperFunction,ComponentPad*
%ADD11C,3.500000*%
G04 #@! TD*
G04 #@! TA.AperFunction,ComponentPad*
%ADD12O,2.000000X2.400000*%
G04 #@! TD*
G04 #@! TA.AperFunction,Conductor*
%ADD13C,0.100000*%
G04 #@! TD*
G04 #@! TA.AperFunction,ComponentPad*
%ADD14C,4.500000*%
G04 #@! TD*
G04 #@! TA.AperFunction,WasherPad*
%ADD15C,4.400000*%
G04 #@! TD*
G04 #@! TA.AperFunction,ViaPad*
%ADD16C,0.800000*%
G04 #@! TD*
G04 #@! TA.AperFunction,ViaPad*
%ADD17C,1.200000*%
G04 #@! TD*
G04 #@! TA.AperFunction,ViaPad*
%ADD18C,2.300000*%
G04 #@! TD*
G04 #@! TA.AperFunction,Conductor*
%ADD19C,3.000000*%
G04 #@! TD*
G04 #@! TA.AperFunction,Conductor*
%ADD20C,4.000000*%
G04 #@! TD*
G04 #@! TA.AperFunction,Conductor*
%ADD21C,1.000000*%
G04 #@! TD*
G04 #@! TA.AperFunction,Conductor*
%ADD22C,0.900000*%
G04 #@! TD*
G04 #@! TA.AperFunction,Conductor*
%ADD23C,0.640000*%
G04 #@! TD*
G04 #@! TA.AperFunction,Conductor*
%ADD24C,1.200000*%
G04 #@! TD*
G04 #@! TA.AperFunction,Conductor*
%ADD25C,0.700000*%
G04 #@! TD*
G04 #@! TA.AperFunction,Conductor*
%ADD26C,0.254000*%
G04 #@! TD*
G04 APERTURE END LIST*
D10*
G04 #@! TO.P,J5,3*
G04 #@! TO.N,/LEDo2*
X73000000Y-82940000D03*
G04 #@! TO.P,J5,2*
G04 #@! TO.N,GND*
X73000000Y-80400000D03*
G04 #@! TO.P,J5,1*
G04 #@! TO.N,/LEDo1*
X73000000Y-77860000D03*
G04 #@! TD*
G04 #@! TO.P,J2,3*
G04 #@! TO.N,GND*
X73000000Y-70240000D03*
G04 #@! TO.P,J2,2*
G04 #@! TO.N,/U0RXD*
X73000000Y-67700000D03*
G04 #@! TO.P,J2,1*
G04 #@! TO.N,/U0TXD*
X73000000Y-65160000D03*
G04 #@! TD*
D11*
G04 #@! TO.P,J8,2*
G04 #@! TO.N,+5VL*
X64000000Y-90500000D03*
G04 #@! TO.P,J8,1*
G04 #@! TO.N,GND*
X64000000Y-95500000D03*
G04 #@! TD*
G04 #@! TO.P,J9,2*
G04 #@! TO.N,GND*
X42000000Y-95500000D03*
G04 #@! TO.P,J9,1*
G04 #@! TO.N,+5V*
X42000000Y-90500000D03*
G04 #@! TD*
D12*
G04 #@! TO.P,J6,1*
G04 #@! TO.N,GND*
X28000000Y-74160000D03*
G04 #@! TO.P,J6,2*
G04 #@! TO.N,/32*
X30540000Y-74160000D03*
G04 #@! TO.P,J6,3*
G04 #@! TO.N,/33*
X33080000Y-74160000D03*
G04 #@! TO.P,J6,4*
G04 #@! TO.N,/25*
X35620000Y-74160000D03*
G04 #@! TO.P,J6,5*
G04 #@! TO.N,+3V3*
X38160000Y-74160000D03*
G04 #@! TD*
D13*
G04 #@! TO.N,GND*
G04 #@! TO.C,U1*
G36*
X50235269Y-58500417D02*
X50344477Y-58516617D01*
X50451570Y-58543442D01*
X50555519Y-58580636D01*
X50655321Y-58627839D01*
X50750017Y-58684597D01*
X50838692Y-58750363D01*
X50920495Y-58824505D01*
X50994637Y-58906308D01*
X51060403Y-58994983D01*
X51117161Y-59089679D01*
X51164364Y-59189481D01*
X51201558Y-59293430D01*
X51228383Y-59400523D01*
X51244583Y-59509731D01*
X51250000Y-59620000D01*
X51250000Y-61870000D01*
X51244583Y-61980269D01*
X51228383Y-62089477D01*
X51201558Y-62196570D01*
X51164364Y-62300519D01*
X51117161Y-62400321D01*
X51060403Y-62495017D01*
X50994637Y-62583692D01*
X50920495Y-62665495D01*
X50838692Y-62739637D01*
X50750017Y-62805403D01*
X50655321Y-62862161D01*
X50555519Y-62909364D01*
X50451570Y-62946558D01*
X50344477Y-62973383D01*
X50235269Y-62989583D01*
X50125000Y-62995000D01*
X47875000Y-62995000D01*
X47764731Y-62989583D01*
X47655523Y-62973383D01*
X47548430Y-62946558D01*
X47444481Y-62909364D01*
X47344679Y-62862161D01*
X47249983Y-62805403D01*
X47161308Y-62739637D01*
X47079505Y-62665495D01*
X47005363Y-62583692D01*
X46939597Y-62495017D01*
X46882839Y-62400321D01*
X46835636Y-62300519D01*
X46798442Y-62196570D01*
X46771617Y-62089477D01*
X46755417Y-61980269D01*
X46750000Y-61870000D01*
X46750000Y-59620000D01*
X46755417Y-59509731D01*
X46771617Y-59400523D01*
X46798442Y-59293430D01*
X46835636Y-59189481D01*
X46882839Y-59089679D01*
X46939597Y-58994983D01*
X47005363Y-58906308D01*
X47079505Y-58824505D01*
X47161308Y-58750363D01*
X47249983Y-58684597D01*
X47344679Y-58627839D01*
X47444481Y-58580636D01*
X47548430Y-58543442D01*
X47655523Y-58516617D01*
X47764731Y-58500417D01*
X47875000Y-58495000D01*
X50125000Y-58495000D01*
X50235269Y-58500417D01*
X50235269Y-58500417D01*
G37*
D14*
G04 #@! TD*
G04 #@! TO.P,U1,39*
G04 #@! TO.N,GND*
X49000000Y-60745000D03*
D15*
G04 #@! TO.P,H1,*
G04 #@! TO.N,*
X27750000Y-95500000D03*
G04 #@! TD*
G04 #@! TO.P,H2,*
G04 #@! TO.N,*
X72250000Y-95500000D03*
G04 #@! TD*
D10*
G04 #@! TO.P,J1,1*
G04 #@! TO.N,+3V3*
X73000000Y-55000000D03*
G04 #@! TO.P,J1,2*
G04 #@! TO.N,GND*
X73000000Y-57540000D03*
G04 #@! TO.P,J1,3*
G04 #@! TO.N,/SCL*
X73000000Y-60080000D03*
G04 #@! TO.P,J1,4*
G04 #@! TO.N,/SDA*
X73000000Y-62620000D03*
G04 #@! TD*
G04 #@! TO.P,J3,1*
G04 #@! TO.N,/Boot*
X73000000Y-72780000D03*
G04 #@! TO.P,J3,2*
G04 #@! TO.N,GND*
X73000000Y-75320000D03*
G04 #@! TD*
G04 #@! TO.P,J4,1*
G04 #@! TO.N,/Reset*
X28250000Y-60000000D03*
G04 #@! TO.P,J4,2*
G04 #@! TO.N,GND*
X28250000Y-63040000D03*
G04 #@! TD*
G04 #@! TO.P,J7,1*
G04 #@! TO.N,+3V3*
X62840000Y-62620000D03*
G04 #@! TO.P,J7,2*
G04 #@! TO.N,/IO4*
X62840000Y-65160000D03*
G04 #@! TO.P,J7,3*
G04 #@! TO.N,GND*
X62840000Y-67700000D03*
G04 #@! TD*
D16*
G04 #@! TO.N,GND*
X31500000Y-53800000D03*
X44290000Y-74000000D03*
X44290000Y-80750000D03*
X30750000Y-77000000D03*
X53000000Y-60745000D03*
X55250000Y-64500000D03*
X44750000Y-64500000D03*
D17*
X48000000Y-94500000D03*
X53000000Y-94500000D03*
X50500000Y-94500000D03*
X55500000Y-94500000D03*
X58000000Y-94500000D03*
X60500000Y-94500000D03*
X58000000Y-96500000D03*
X55500000Y-96500000D03*
X53000000Y-96500000D03*
X50500000Y-96500000D03*
X48000000Y-96500000D03*
X45500000Y-96500000D03*
X45500000Y-94500000D03*
X60500000Y-96500000D03*
D16*
X70500000Y-53245000D03*
X38500000Y-87500000D03*
X27250000Y-86500000D03*
X30750000Y-86500000D03*
X27250000Y-77000000D03*
X29000000Y-77000000D03*
X34300000Y-91250000D03*
X29000000Y-86500000D03*
X50500000Y-80750000D03*
X56750000Y-82500000D03*
X70500000Y-86750000D03*
X67500000Y-86750000D03*
X73500000Y-86750000D03*
X62000000Y-72000000D03*
X53000000Y-74000000D03*
X50500000Y-76500000D03*
X42000000Y-71710000D03*
X42000000Y-76500000D03*
X70540000Y-57540000D03*
X64750000Y-80750000D03*
X63500000Y-77330000D03*
X35500000Y-82500000D03*
X35500000Y-77000000D03*
X38500000Y-84500000D03*
X67000000Y-67700000D03*
X31500000Y-58800000D03*
X44750000Y-53245000D03*
X55250000Y-53245000D03*
X31500000Y-63250000D03*
X44750000Y-57500000D03*
X55250000Y-57500000D03*
G04 #@! TO.N,+3V3*
X31500000Y-56200000D03*
X42700000Y-80750000D03*
X61000000Y-54500000D03*
X32500000Y-79000000D03*
D17*
G04 #@! TO.N,+5VL*
X60500000Y-91500000D03*
X60500000Y-89500000D03*
D18*
X55850000Y-89000000D03*
D17*
X58750000Y-91500000D03*
X58750000Y-89500000D03*
D16*
G04 #@! TO.N,+5V*
X37000000Y-84500000D03*
D17*
X48000000Y-89500000D03*
X50500000Y-89500000D03*
X45500000Y-91500000D03*
X45500000Y-89500000D03*
D16*
X32500000Y-81550000D03*
G04 #@! TO.N,/SCL*
X63500000Y-55785000D03*
X68500000Y-58500000D03*
G04 #@! TO.N,/SDA*
X61000000Y-59595000D03*
X65500000Y-58500000D03*
G04 #@! TO.N,Net-(R5-Pad2)*
X56750000Y-80750000D03*
X63500000Y-79000000D03*
G04 #@! TO.N,/IO4*
X56500000Y-68500000D03*
G04 #@! TD*
D19*
G04 #@! TO.N,GND*
X49000000Y-60745000D02*
X53000000Y-60745000D01*
D20*
X64000000Y-95500000D02*
X42000000Y-95500000D01*
D21*
X70510000Y-70240000D02*
X70500000Y-70250000D01*
X73000000Y-70240000D02*
X70510000Y-70240000D01*
X70500000Y-75350000D02*
X70500000Y-74000000D01*
X73000000Y-57540000D02*
X70540000Y-57540000D01*
X70500000Y-57500000D02*
X70500000Y-53245000D01*
X70500000Y-74000000D02*
X70500000Y-70250000D01*
X70500000Y-75320000D02*
X70500000Y-80400000D01*
X73000000Y-75320000D02*
X70500000Y-75320000D01*
X73000000Y-80400000D02*
X70500000Y-80400000D01*
X27250000Y-77000000D02*
X27250000Y-86500000D01*
X38500000Y-82500000D02*
X38500000Y-84500000D01*
X36500000Y-91250000D02*
X34300000Y-91250000D01*
X38500000Y-89250000D02*
X36500000Y-91250000D01*
X44290000Y-81960000D02*
X44290000Y-80750000D01*
X43750000Y-82500000D02*
X44290000Y-81960000D01*
X38500000Y-82500000D02*
X43750000Y-82500000D01*
D22*
X50500000Y-80750000D02*
X44290000Y-80750000D01*
D23*
X52250000Y-82500000D02*
X50500000Y-80750000D01*
X56750000Y-82500000D02*
X52250000Y-82500000D01*
D22*
X62000000Y-74000000D02*
X70500000Y-74000000D01*
X70500000Y-80400000D02*
X70500000Y-86750000D01*
X70500000Y-86750000D02*
X73500000Y-86750000D01*
X70500000Y-86750000D02*
X67500000Y-86750000D01*
X53000000Y-74000000D02*
X54000000Y-74000000D01*
X44290000Y-74000000D02*
X53000000Y-74000000D01*
X54000000Y-74000000D02*
X62000000Y-74000000D01*
D23*
X42000000Y-76500000D02*
X44290000Y-76500000D01*
D21*
X44290000Y-76500000D02*
X44290000Y-80750000D01*
X44290000Y-74000000D02*
X44290000Y-76500000D01*
X70540000Y-57540000D02*
X70500000Y-57500000D01*
D24*
X28000000Y-74160000D02*
X28000000Y-75750000D01*
X27250000Y-76500000D02*
X27250000Y-77000000D01*
X28000000Y-75750000D02*
X27250000Y-76500000D01*
D21*
X38500000Y-84500000D02*
X38500000Y-89250000D01*
D22*
X62000000Y-72000000D02*
X62000000Y-74000000D01*
X70450000Y-67700000D02*
X70500000Y-67750000D01*
X62840000Y-67700000D02*
X65500000Y-67700000D01*
D21*
X70500000Y-67750000D02*
X70500000Y-57500000D01*
X70500000Y-70250000D02*
X70500000Y-67750000D01*
D22*
X65500000Y-67700000D02*
X70450000Y-67700000D01*
X44750000Y-53245000D02*
X55250000Y-53245000D01*
X61442070Y-53245000D02*
X70500000Y-53245000D01*
X55250000Y-53245000D02*
X61442070Y-53245000D01*
X40495000Y-53245000D02*
X40490000Y-53250000D01*
X44750000Y-53245000D02*
X40495000Y-53245000D01*
X32050000Y-53250000D02*
X31500000Y-53800000D01*
X40490000Y-53250000D02*
X32050000Y-53250000D01*
X31500000Y-53800000D02*
X31450000Y-53800000D01*
X31450000Y-53800000D02*
X29500000Y-55750000D01*
X29500000Y-56800000D02*
X31500000Y-58800000D01*
X29500000Y-55750000D02*
X29500000Y-56800000D01*
X28000000Y-74160000D02*
X28000000Y-69750000D01*
X31500000Y-66250000D02*
X31500000Y-63250000D01*
X28000000Y-69750000D02*
X31500000Y-66250000D01*
X31500000Y-63250000D02*
X31500000Y-58800000D01*
X28290000Y-63040000D02*
X31500000Y-66250000D01*
X28250000Y-63040000D02*
X28290000Y-63040000D01*
X53000000Y-66750000D02*
X55250000Y-64500000D01*
X53000000Y-74000000D02*
X53000000Y-66750000D01*
G04 #@! TO.N,+3V3*
X38160000Y-76210000D02*
X42700000Y-80750000D01*
X38160000Y-74160000D02*
X38160000Y-76210000D01*
X35370000Y-79000000D02*
X38160000Y-76210000D01*
X32500000Y-79000000D02*
X35370000Y-79000000D01*
X62840000Y-62620000D02*
X60620000Y-62620000D01*
X60620000Y-62620000D02*
X58750000Y-60750000D01*
X61000000Y-56500000D02*
X58750000Y-58750000D01*
X61000000Y-54500000D02*
X61000000Y-56500000D01*
X58750000Y-60750000D02*
X58750000Y-58750000D01*
X38160000Y-62860000D02*
X31500000Y-56200000D01*
X38160000Y-74160000D02*
X38160000Y-62860000D01*
X61000000Y-54500000D02*
X43000000Y-54500000D01*
X38160000Y-59340000D02*
X38160000Y-62860000D01*
X43000000Y-54500000D02*
X38160000Y-59340000D01*
D20*
G04 #@! TO.N,+5VL*
X57350000Y-90500000D02*
X55850000Y-89000000D01*
X64000000Y-90500000D02*
X57350000Y-90500000D01*
G04 #@! TO.N,+5V*
X42000000Y-90500000D02*
X49500000Y-90500000D01*
D23*
X35450000Y-84500000D02*
X32500000Y-81550000D01*
X37000000Y-84500000D02*
X35450000Y-84500000D01*
D22*
G04 #@! TO.N,/SCL*
X65785000Y-55785000D02*
X68500000Y-58500000D01*
X63500000Y-55785000D02*
X65785000Y-55785000D01*
G04 #@! TO.N,/SDA*
X62095000Y-58500000D02*
X61000000Y-59595000D01*
X65500000Y-58500000D02*
X62095000Y-58500000D01*
D23*
G04 #@! TO.N,Net-(R5-Pad2)*
X58500000Y-79000000D02*
X56750000Y-80750000D01*
X63500000Y-79000000D02*
X58500000Y-79000000D01*
D22*
G04 #@! TO.N,/IO4*
X59840000Y-65160000D02*
X62840000Y-65160000D01*
X56500000Y-68500000D02*
X59840000Y-65160000D01*
G04 #@! TD*
D25*
G04 #@! TO.N,GND*
G36*
X71655570Y-53287240D02*
X71343417Y-53543417D01*
X71087240Y-53855570D01*
X70896883Y-54211703D01*
X70779662Y-54598130D01*
X70740081Y-55000000D01*
X70779662Y-55401870D01*
X70896883Y-55788297D01*
X71087240Y-56144430D01*
X71190292Y-56270000D01*
X71087240Y-56395570D01*
X70896883Y-56751703D01*
X70779662Y-57138130D01*
X70740081Y-57540000D01*
X70779662Y-57941870D01*
X70896883Y-58328297D01*
X71087240Y-58684430D01*
X71190292Y-58810000D01*
X71087240Y-58935570D01*
X70896883Y-59291703D01*
X70779662Y-59678130D01*
X70740081Y-60080000D01*
X70779662Y-60481870D01*
X70896883Y-60868297D01*
X71087240Y-61224430D01*
X71190292Y-61350000D01*
X71087240Y-61475570D01*
X70896883Y-61831703D01*
X70779662Y-62218130D01*
X70740081Y-62620000D01*
X70779662Y-63021870D01*
X70896883Y-63408297D01*
X71087240Y-63764430D01*
X71190292Y-63890000D01*
X71087240Y-64015570D01*
X70896883Y-64371703D01*
X70779662Y-64758130D01*
X70740081Y-65160000D01*
X70779662Y-65561870D01*
X70896883Y-65948297D01*
X71087240Y-66304430D01*
X71190292Y-66430000D01*
X71087240Y-66555570D01*
X70896883Y-66911703D01*
X70779662Y-67298130D01*
X70740081Y-67700000D01*
X70779662Y-68101870D01*
X70896883Y-68488297D01*
X71087240Y-68844430D01*
X71190292Y-68970000D01*
X71087240Y-69095570D01*
X70896883Y-69451703D01*
X70779662Y-69838130D01*
X70740081Y-70240000D01*
X70779662Y-70641870D01*
X70896883Y-71028297D01*
X71087240Y-71384430D01*
X71190292Y-71510000D01*
X71087240Y-71635570D01*
X70896883Y-71991703D01*
X70779662Y-72378130D01*
X70740081Y-72780000D01*
X70779662Y-73181870D01*
X70896883Y-73568297D01*
X71087240Y-73924430D01*
X71190292Y-74050000D01*
X71087240Y-74175570D01*
X70896883Y-74531703D01*
X70779662Y-74918130D01*
X70740081Y-75320000D01*
X70779662Y-75721870D01*
X70896883Y-76108297D01*
X71087240Y-76464430D01*
X71190292Y-76590000D01*
X71087240Y-76715570D01*
X70896883Y-77071703D01*
X70779662Y-77458130D01*
X70740081Y-77860000D01*
X70779662Y-78261870D01*
X70896883Y-78648297D01*
X71087240Y-79004430D01*
X71190292Y-79130000D01*
X71087240Y-79255570D01*
X70896883Y-79611703D01*
X70779662Y-79998130D01*
X70740081Y-80400000D01*
X70779662Y-80801870D01*
X70896883Y-81188297D01*
X71087240Y-81544430D01*
X71190292Y-81670000D01*
X71087240Y-81795570D01*
X70896883Y-82151703D01*
X70779662Y-82538130D01*
X70740081Y-82940000D01*
X70779662Y-83341870D01*
X70896883Y-83728297D01*
X71087240Y-84084430D01*
X71343417Y-84396583D01*
X71655570Y-84652760D01*
X72011703Y-84843117D01*
X72398130Y-84960338D01*
X72699291Y-84990000D01*
X73300709Y-84990000D01*
X73601870Y-84960338D01*
X73875000Y-84877485D01*
X73875000Y-91248212D01*
X73577186Y-91124853D01*
X72698136Y-90950000D01*
X71801864Y-90950000D01*
X70922814Y-91124853D01*
X70094767Y-91467842D01*
X69349544Y-91965784D01*
X68715784Y-92599544D01*
X68217842Y-93344767D01*
X67874853Y-94172814D01*
X67700000Y-95051864D01*
X67700000Y-95948136D01*
X67874853Y-96827186D01*
X68217842Y-97655233D01*
X68715784Y-98400456D01*
X69190328Y-98875000D01*
X30809672Y-98875000D01*
X31284216Y-98400456D01*
X31782158Y-97655233D01*
X32125147Y-96827186D01*
X32300000Y-95948136D01*
X32300000Y-95051864D01*
X32125147Y-94172814D01*
X31782158Y-93344767D01*
X31284216Y-92599544D01*
X30650456Y-91965784D01*
X29905233Y-91467842D01*
X29077186Y-91124853D01*
X28198136Y-90950000D01*
X27301864Y-90950000D01*
X26422814Y-91124853D01*
X26125000Y-91248212D01*
X26125000Y-90500000D01*
X38935243Y-90500000D01*
X38994131Y-91097904D01*
X39168534Y-91672832D01*
X39451748Y-92202688D01*
X39832890Y-92667110D01*
X40297312Y-93048252D01*
X40481829Y-93146878D01*
X40215104Y-93325098D01*
X39825098Y-93715104D01*
X39518672Y-94173703D01*
X39307602Y-94683270D01*
X39200000Y-95224224D01*
X39200000Y-95775776D01*
X39307602Y-96316730D01*
X39518672Y-96826297D01*
X39825098Y-97284896D01*
X40215104Y-97674902D01*
X40673703Y-97981328D01*
X41183270Y-98192398D01*
X41724224Y-98300000D01*
X42275776Y-98300000D01*
X42816730Y-98192398D01*
X43326297Y-97981328D01*
X43784896Y-97674902D01*
X44174902Y-97284896D01*
X44481328Y-96826297D01*
X44692398Y-96316730D01*
X44800000Y-95775776D01*
X44800000Y-95224224D01*
X44692398Y-94683270D01*
X44481328Y-94173703D01*
X44174902Y-93715104D01*
X44109798Y-93650000D01*
X50500000Y-93650000D01*
X50724353Y-93627903D01*
X51107036Y-93551783D01*
X51521588Y-93380070D01*
X51742481Y-93232474D01*
X51752513Y-93247487D01*
X51866061Y-93323358D01*
X52000000Y-93350000D01*
X55750000Y-93350000D01*
X55893628Y-93319173D01*
X56004837Y-93239913D01*
X56005099Y-93239493D01*
X56177168Y-93331466D01*
X56752096Y-93505869D01*
X57200169Y-93550000D01*
X57200178Y-93550000D01*
X57349999Y-93564756D01*
X57499820Y-93550000D01*
X61990202Y-93550000D01*
X61825098Y-93715104D01*
X61518672Y-94173703D01*
X61307602Y-94683270D01*
X61200000Y-95224224D01*
X61200000Y-95775776D01*
X61307602Y-96316730D01*
X61518672Y-96826297D01*
X61825098Y-97284896D01*
X62215104Y-97674902D01*
X62673703Y-97981328D01*
X63183270Y-98192398D01*
X63724224Y-98300000D01*
X64275776Y-98300000D01*
X64816730Y-98192398D01*
X65326297Y-97981328D01*
X65784896Y-97674902D01*
X66174902Y-97284896D01*
X66481328Y-96826297D01*
X66692398Y-96316730D01*
X66800000Y-95775776D01*
X66800000Y-95224224D01*
X66692398Y-94683270D01*
X66481328Y-94173703D01*
X66174902Y-93715104D01*
X65784896Y-93325098D01*
X65518171Y-93146878D01*
X65702688Y-93048252D01*
X66167110Y-92667110D01*
X66548252Y-92202688D01*
X66831466Y-91672832D01*
X67005869Y-91097904D01*
X67064757Y-90500000D01*
X67005869Y-89902096D01*
X66831466Y-89327168D01*
X66548252Y-88797312D01*
X66167110Y-88332890D01*
X65702688Y-87951748D01*
X65172832Y-87668534D01*
X64597904Y-87494131D01*
X64149831Y-87450000D01*
X58613351Y-87450000D01*
X57900729Y-86737378D01*
X57552688Y-86451748D01*
X57022831Y-86168534D01*
X56447904Y-85994132D01*
X55850000Y-85935244D01*
X55252096Y-85994132D01*
X54677169Y-86168534D01*
X54147312Y-86451748D01*
X53682890Y-86832890D01*
X53301748Y-87297312D01*
X53113233Y-87650000D01*
X52000000Y-87650000D01*
X51866061Y-87676642D01*
X51752513Y-87752513D01*
X51742481Y-87767526D01*
X51521588Y-87619930D01*
X51107036Y-87448217D01*
X50724353Y-87372097D01*
X50500000Y-87350000D01*
X43000000Y-87350000D01*
X42775647Y-87372097D01*
X42392964Y-87448217D01*
X42388659Y-87450000D01*
X41850169Y-87450000D01*
X41402096Y-87494131D01*
X40827168Y-87668534D01*
X40297312Y-87951748D01*
X39832890Y-88332890D01*
X39451748Y-88797312D01*
X39168534Y-89327168D01*
X38994131Y-89902096D01*
X38935243Y-90500000D01*
X26125000Y-90500000D01*
X26125000Y-75200900D01*
X26287240Y-75504430D01*
X26543417Y-75816583D01*
X26855571Y-76072760D01*
X27211704Y-76263117D01*
X27598131Y-76380338D01*
X28000000Y-76419919D01*
X28401870Y-76380338D01*
X28788297Y-76263117D01*
X29144430Y-76072760D01*
X29270000Y-75969707D01*
X29395571Y-76072760D01*
X29751704Y-76263117D01*
X30138131Y-76380338D01*
X30540000Y-76419919D01*
X30941870Y-76380338D01*
X31328297Y-76263117D01*
X31684430Y-76072760D01*
X31810000Y-75969707D01*
X31935571Y-76072760D01*
X32291704Y-76263117D01*
X32678131Y-76380338D01*
X33080000Y-76419919D01*
X33481870Y-76380338D01*
X33868297Y-76263117D01*
X34224430Y-76072760D01*
X34350000Y-75969707D01*
X34475571Y-76072760D01*
X34831704Y-76263117D01*
X35218131Y-76380338D01*
X35620000Y-76419919D01*
X35851569Y-76397111D01*
X34748681Y-77500000D01*
X32426320Y-77500000D01*
X32205949Y-77521705D01*
X31923198Y-77607476D01*
X31662613Y-77746762D01*
X31434208Y-77934208D01*
X31246762Y-78162613D01*
X31107476Y-78423198D01*
X31021705Y-78705949D01*
X30992743Y-79000000D01*
X31021705Y-79294051D01*
X31107476Y-79576802D01*
X31246762Y-79837387D01*
X31434208Y-80065792D01*
X31662613Y-80253238D01*
X31756058Y-80303186D01*
X31575679Y-80423711D01*
X31373711Y-80625679D01*
X31215027Y-80863167D01*
X31105723Y-81127051D01*
X31050000Y-81407187D01*
X31050000Y-81692813D01*
X31105723Y-81972949D01*
X31215027Y-82236833D01*
X31373711Y-82474321D01*
X31575679Y-82676289D01*
X31813167Y-82834973D01*
X31871778Y-82859251D01*
X34433680Y-85421153D01*
X34476577Y-85473423D01*
X34528846Y-85516319D01*
X34528847Y-85516320D01*
X34685186Y-85644624D01*
X34923187Y-85771838D01*
X35181433Y-85850176D01*
X35449999Y-85876628D01*
X35517293Y-85870000D01*
X36518441Y-85870000D01*
X36577051Y-85894277D01*
X36857187Y-85950000D01*
X37142813Y-85950000D01*
X37422949Y-85894277D01*
X37686833Y-85784973D01*
X37924321Y-85626289D01*
X38126289Y-85424321D01*
X38284973Y-85186833D01*
X38394277Y-84922949D01*
X38450000Y-84642813D01*
X38450000Y-84357187D01*
X38394277Y-84077051D01*
X38284973Y-83813167D01*
X38126289Y-83575679D01*
X37924321Y-83373711D01*
X37686833Y-83215027D01*
X37422949Y-83105723D01*
X37142813Y-83050000D01*
X36857187Y-83050000D01*
X36577051Y-83105723D01*
X36518441Y-83130000D01*
X36017473Y-83130000D01*
X33809251Y-80921778D01*
X33784973Y-80863167D01*
X33626289Y-80625679D01*
X33500610Y-80500000D01*
X35296320Y-80500000D01*
X35370000Y-80507257D01*
X35443680Y-80500000D01*
X35664051Y-80478295D01*
X35946802Y-80392524D01*
X36207387Y-80253238D01*
X36435792Y-80065792D01*
X36482769Y-80008550D01*
X38160000Y-78331320D01*
X41691439Y-81862760D01*
X41862613Y-82003238D01*
X42123197Y-82142524D01*
X42405949Y-82228295D01*
X42700000Y-82257257D01*
X42994051Y-82228295D01*
X43276802Y-82142524D01*
X43537387Y-82003238D01*
X43765791Y-81815791D01*
X43953238Y-81587387D01*
X44092524Y-81326802D01*
X44178295Y-81044051D01*
X44207257Y-80750000D01*
X44193191Y-80607187D01*
X55300000Y-80607187D01*
X55300000Y-80892813D01*
X55355723Y-81172949D01*
X55465027Y-81436833D01*
X55623711Y-81674321D01*
X55825679Y-81876289D01*
X56063167Y-82034973D01*
X56327051Y-82144277D01*
X56607187Y-82200000D01*
X56892813Y-82200000D01*
X57172949Y-82144277D01*
X57436833Y-82034973D01*
X57674321Y-81876289D01*
X57876289Y-81674321D01*
X58034973Y-81436833D01*
X58059251Y-81378222D01*
X59067473Y-80370000D01*
X63018441Y-80370000D01*
X63077051Y-80394277D01*
X63357187Y-80450000D01*
X63642813Y-80450000D01*
X63922949Y-80394277D01*
X64186833Y-80284973D01*
X64424321Y-80126289D01*
X64626289Y-79924321D01*
X64784973Y-79686833D01*
X64894277Y-79422949D01*
X64950000Y-79142813D01*
X64950000Y-78857187D01*
X64894277Y-78577051D01*
X64784973Y-78313167D01*
X64626289Y-78075679D01*
X64424321Y-77873711D01*
X64186833Y-77715027D01*
X63922949Y-77605723D01*
X63642813Y-77550000D01*
X63357187Y-77550000D01*
X63077051Y-77605723D01*
X63018441Y-77630000D01*
X58567294Y-77630000D01*
X58500000Y-77623372D01*
X58432706Y-77630000D01*
X58231433Y-77649824D01*
X57973187Y-77728162D01*
X57735186Y-77855376D01*
X57526577Y-78026577D01*
X57483680Y-78078847D01*
X56121778Y-79440749D01*
X56063167Y-79465027D01*
X55825679Y-79623711D01*
X55623711Y-79825679D01*
X55465027Y-80063167D01*
X55355723Y-80327051D01*
X55300000Y-80607187D01*
X44193191Y-80607187D01*
X44178295Y-80455949D01*
X44092524Y-80173197D01*
X43953238Y-79912613D01*
X43812760Y-79741439D01*
X39738881Y-75667562D01*
X39872760Y-75504430D01*
X40063117Y-75148296D01*
X40180338Y-74761869D01*
X40210000Y-74460708D01*
X40210000Y-73859291D01*
X40180338Y-73558130D01*
X40063117Y-73171703D01*
X39872760Y-72815570D01*
X39660000Y-72556321D01*
X39660000Y-62933677D01*
X39667257Y-62859999D01*
X39660000Y-62786320D01*
X39660000Y-59961319D01*
X40001319Y-59620000D01*
X45694920Y-59620000D01*
X45694920Y-61870000D01*
X45736810Y-62295313D01*
X45860869Y-62704280D01*
X46062330Y-63081188D01*
X46333451Y-63411549D01*
X46663812Y-63682670D01*
X47040720Y-63884131D01*
X47449687Y-64008190D01*
X47875000Y-64050080D01*
X50125000Y-64050080D01*
X50550313Y-64008190D01*
X50959280Y-63884131D01*
X51336188Y-63682670D01*
X51666549Y-63411549D01*
X51937670Y-63081188D01*
X52139131Y-62704280D01*
X52263190Y-62295313D01*
X52305080Y-61870000D01*
X52305080Y-59620000D01*
X52263190Y-59194687D01*
X52139131Y-58785720D01*
X51937670Y-58408812D01*
X51666549Y-58078451D01*
X51336188Y-57807330D01*
X50959280Y-57605869D01*
X50550313Y-57481810D01*
X50125000Y-57439920D01*
X47875000Y-57439920D01*
X47449687Y-57481810D01*
X47040720Y-57605869D01*
X46663812Y-57807330D01*
X46333451Y-58078451D01*
X46062330Y-58408812D01*
X45860869Y-58785720D01*
X45736810Y-59194687D01*
X45694920Y-59620000D01*
X40001319Y-59620000D01*
X43621321Y-56000000D01*
X59378680Y-56000000D01*
X57741445Y-57637236D01*
X57684209Y-57684208D01*
X57496763Y-57912613D01*
X57403678Y-58086762D01*
X57357477Y-58173198D01*
X57271705Y-58455949D01*
X57242743Y-58750000D01*
X57250001Y-58823690D01*
X57250000Y-60676319D01*
X57242743Y-60750000D01*
X57258230Y-60907240D01*
X57271705Y-61044050D01*
X57357476Y-61326801D01*
X57496762Y-61587386D01*
X57684208Y-61815792D01*
X57741450Y-61862769D01*
X59507235Y-63628555D01*
X59550487Y-63681258D01*
X59545949Y-63681705D01*
X59263198Y-63767476D01*
X59002613Y-63906762D01*
X58774208Y-64094208D01*
X58727235Y-64151445D01*
X55387241Y-67491440D01*
X55246763Y-67662614D01*
X55107477Y-67923198D01*
X55021705Y-68205949D01*
X54992743Y-68500000D01*
X55021705Y-68794051D01*
X55107477Y-69076802D01*
X55246763Y-69337386D01*
X55434209Y-69565791D01*
X55662614Y-69753237D01*
X55923198Y-69892523D01*
X56205949Y-69978295D01*
X56500000Y-70007257D01*
X56794051Y-69978295D01*
X57076802Y-69892523D01*
X57337386Y-69753237D01*
X57508560Y-69612759D01*
X60461320Y-66660000D01*
X60871421Y-66660000D01*
X60736883Y-66911703D01*
X60619662Y-67298130D01*
X60580081Y-67700000D01*
X60619662Y-68101870D01*
X60736883Y-68488297D01*
X60927240Y-68844430D01*
X61183417Y-69156583D01*
X61495570Y-69412760D01*
X61851703Y-69603117D01*
X62238130Y-69720338D01*
X62539291Y-69750000D01*
X63140709Y-69750000D01*
X63441870Y-69720338D01*
X63828297Y-69603117D01*
X64184430Y-69412760D01*
X64496583Y-69156583D01*
X64752760Y-68844430D01*
X64943117Y-68488297D01*
X65060338Y-68101870D01*
X65099919Y-67700000D01*
X65060338Y-67298130D01*
X64943117Y-66911703D01*
X64752760Y-66555570D01*
X64649708Y-66430000D01*
X64752760Y-66304430D01*
X64943117Y-65948297D01*
X65060338Y-65561870D01*
X65099919Y-65160000D01*
X65060338Y-64758130D01*
X64943117Y-64371703D01*
X64752760Y-64015570D01*
X64649708Y-63890000D01*
X64752760Y-63764430D01*
X64943117Y-63408297D01*
X65060338Y-63021870D01*
X65099919Y-62620000D01*
X65060338Y-62218130D01*
X64943117Y-61831703D01*
X64752760Y-61475570D01*
X64496583Y-61163417D01*
X64184430Y-60907240D01*
X63828297Y-60716883D01*
X63441870Y-60599662D01*
X63140709Y-60570000D01*
X62539291Y-60570000D01*
X62238130Y-60599662D01*
X62063764Y-60652555D01*
X62716320Y-60000000D01*
X65573680Y-60000000D01*
X65794051Y-59978295D01*
X66076802Y-59892524D01*
X66337387Y-59753238D01*
X66565792Y-59565792D01*
X66753238Y-59337387D01*
X66892524Y-59076802D01*
X66907177Y-59028497D01*
X67491439Y-59612759D01*
X67662613Y-59753238D01*
X67923197Y-59892523D01*
X68205949Y-59978295D01*
X68500000Y-60007257D01*
X68794051Y-59978295D01*
X69076802Y-59892523D01*
X69337387Y-59753238D01*
X69565791Y-59565791D01*
X69753238Y-59337387D01*
X69892523Y-59076802D01*
X69978295Y-58794051D01*
X70007257Y-58500000D01*
X69978295Y-58205949D01*
X69892523Y-57923197D01*
X69753238Y-57662613D01*
X69612759Y-57491439D01*
X66897769Y-54776450D01*
X66850792Y-54719208D01*
X66622387Y-54531762D01*
X66361802Y-54392476D01*
X66079051Y-54306705D01*
X65858680Y-54285000D01*
X65785000Y-54277743D01*
X65711320Y-54285000D01*
X63426320Y-54285000D01*
X63205949Y-54306705D01*
X62923198Y-54392476D01*
X62662613Y-54531762D01*
X62500000Y-54665214D01*
X62500000Y-54573680D01*
X62507257Y-54500000D01*
X62478295Y-54205949D01*
X62392524Y-53923198D01*
X62253238Y-53662613D01*
X62065792Y-53434208D01*
X61837387Y-53246762D01*
X61609587Y-53125000D01*
X71959100Y-53125000D01*
X71655570Y-53287240D01*
X71655570Y-53287240D01*
G37*
X71655570Y-53287240D02*
X71343417Y-53543417D01*
X71087240Y-53855570D01*
X70896883Y-54211703D01*
X70779662Y-54598130D01*
X70740081Y-55000000D01*
X70779662Y-55401870D01*
X70896883Y-55788297D01*
X71087240Y-56144430D01*
X71190292Y-56270000D01*
X71087240Y-56395570D01*
X70896883Y-56751703D01*
X70779662Y-57138130D01*
X70740081Y-57540000D01*
X70779662Y-57941870D01*
X70896883Y-58328297D01*
X71087240Y-58684430D01*
X71190292Y-58810000D01*
X71087240Y-58935570D01*
X70896883Y-59291703D01*
X70779662Y-59678130D01*
X70740081Y-60080000D01*
X70779662Y-60481870D01*
X70896883Y-60868297D01*
X71087240Y-61224430D01*
X71190292Y-61350000D01*
X71087240Y-61475570D01*
X70896883Y-61831703D01*
X70779662Y-62218130D01*
X70740081Y-62620000D01*
X70779662Y-63021870D01*
X70896883Y-63408297D01*
X71087240Y-63764430D01*
X71190292Y-63890000D01*
X71087240Y-64015570D01*
X70896883Y-64371703D01*
X70779662Y-64758130D01*
X70740081Y-65160000D01*
X70779662Y-65561870D01*
X70896883Y-65948297D01*
X71087240Y-66304430D01*
X71190292Y-66430000D01*
X71087240Y-66555570D01*
X70896883Y-66911703D01*
X70779662Y-67298130D01*
X70740081Y-67700000D01*
X70779662Y-68101870D01*
X70896883Y-68488297D01*
X71087240Y-68844430D01*
X71190292Y-68970000D01*
X71087240Y-69095570D01*
X70896883Y-69451703D01*
X70779662Y-69838130D01*
X70740081Y-70240000D01*
X70779662Y-70641870D01*
X70896883Y-71028297D01*
X71087240Y-71384430D01*
X71190292Y-71510000D01*
X71087240Y-71635570D01*
X70896883Y-71991703D01*
X70779662Y-72378130D01*
X70740081Y-72780000D01*
X70779662Y-73181870D01*
X70896883Y-73568297D01*
X71087240Y-73924430D01*
X71190292Y-74050000D01*
X71087240Y-74175570D01*
X70896883Y-74531703D01*
X70779662Y-74918130D01*
X70740081Y-75320000D01*
X70779662Y-75721870D01*
X70896883Y-76108297D01*
X71087240Y-76464430D01*
X71190292Y-76590000D01*
X71087240Y-76715570D01*
X70896883Y-77071703D01*
X70779662Y-77458130D01*
X70740081Y-77860000D01*
X70779662Y-78261870D01*
X70896883Y-78648297D01*
X71087240Y-79004430D01*
X71190292Y-79130000D01*
X71087240Y-79255570D01*
X70896883Y-79611703D01*
X70779662Y-79998130D01*
X70740081Y-80400000D01*
X70779662Y-80801870D01*
X70896883Y-81188297D01*
X71087240Y-81544430D01*
X71190292Y-81670000D01*
X71087240Y-81795570D01*
X70896883Y-82151703D01*
X70779662Y-82538130D01*
X70740081Y-82940000D01*
X70779662Y-83341870D01*
X70896883Y-83728297D01*
X71087240Y-84084430D01*
X71343417Y-84396583D01*
X71655570Y-84652760D01*
X72011703Y-84843117D01*
X72398130Y-84960338D01*
X72699291Y-84990000D01*
X73300709Y-84990000D01*
X73601870Y-84960338D01*
X73875000Y-84877485D01*
X73875000Y-91248212D01*
X73577186Y-91124853D01*
X72698136Y-90950000D01*
X71801864Y-90950000D01*
X70922814Y-91124853D01*
X70094767Y-91467842D01*
X69349544Y-91965784D01*
X68715784Y-92599544D01*
X68217842Y-93344767D01*
X67874853Y-94172814D01*
X67700000Y-95051864D01*
X67700000Y-95948136D01*
X67874853Y-96827186D01*
X68217842Y-97655233D01*
X68715784Y-98400456D01*
X69190328Y-98875000D01*
X30809672Y-98875000D01*
X31284216Y-98400456D01*
X31782158Y-97655233D01*
X32125147Y-96827186D01*
X32300000Y-95948136D01*
X32300000Y-95051864D01*
X32125147Y-94172814D01*
X31782158Y-93344767D01*
X31284216Y-92599544D01*
X30650456Y-91965784D01*
X29905233Y-91467842D01*
X29077186Y-91124853D01*
X28198136Y-90950000D01*
X27301864Y-90950000D01*
X26422814Y-91124853D01*
X26125000Y-91248212D01*
X26125000Y-90500000D01*
X38935243Y-90500000D01*
X38994131Y-91097904D01*
X39168534Y-91672832D01*
X39451748Y-92202688D01*
X39832890Y-92667110D01*
X40297312Y-93048252D01*
X40481829Y-93146878D01*
X40215104Y-93325098D01*
X39825098Y-93715104D01*
X39518672Y-94173703D01*
X39307602Y-94683270D01*
X39200000Y-95224224D01*
X39200000Y-95775776D01*
X39307602Y-96316730D01*
X39518672Y-96826297D01*
X39825098Y-97284896D01*
X40215104Y-97674902D01*
X40673703Y-97981328D01*
X41183270Y-98192398D01*
X41724224Y-98300000D01*
X42275776Y-98300000D01*
X42816730Y-98192398D01*
X43326297Y-97981328D01*
X43784896Y-97674902D01*
X44174902Y-97284896D01*
X44481328Y-96826297D01*
X44692398Y-96316730D01*
X44800000Y-95775776D01*
X44800000Y-95224224D01*
X44692398Y-94683270D01*
X44481328Y-94173703D01*
X44174902Y-93715104D01*
X44109798Y-93650000D01*
X50500000Y-93650000D01*
X50724353Y-93627903D01*
X51107036Y-93551783D01*
X51521588Y-93380070D01*
X51742481Y-93232474D01*
X51752513Y-93247487D01*
X51866061Y-93323358D01*
X52000000Y-93350000D01*
X55750000Y-93350000D01*
X55893628Y-93319173D01*
X56004837Y-93239913D01*
X56005099Y-93239493D01*
X56177168Y-93331466D01*
X56752096Y-93505869D01*
X57200169Y-93550000D01*
X57200178Y-93550000D01*
X57349999Y-93564756D01*
X57499820Y-93550000D01*
X61990202Y-93550000D01*
X61825098Y-93715104D01*
X61518672Y-94173703D01*
X61307602Y-94683270D01*
X61200000Y-95224224D01*
X61200000Y-95775776D01*
X61307602Y-96316730D01*
X61518672Y-96826297D01*
X61825098Y-97284896D01*
X62215104Y-97674902D01*
X62673703Y-97981328D01*
X63183270Y-98192398D01*
X63724224Y-98300000D01*
X64275776Y-98300000D01*
X64816730Y-98192398D01*
X65326297Y-97981328D01*
X65784896Y-97674902D01*
X66174902Y-97284896D01*
X66481328Y-96826297D01*
X66692398Y-96316730D01*
X66800000Y-95775776D01*
X66800000Y-95224224D01*
X66692398Y-94683270D01*
X66481328Y-94173703D01*
X66174902Y-93715104D01*
X65784896Y-93325098D01*
X65518171Y-93146878D01*
X65702688Y-93048252D01*
X66167110Y-92667110D01*
X66548252Y-92202688D01*
X66831466Y-91672832D01*
X67005869Y-91097904D01*
X67064757Y-90500000D01*
X67005869Y-89902096D01*
X66831466Y-89327168D01*
X66548252Y-88797312D01*
X66167110Y-88332890D01*
X65702688Y-87951748D01*
X65172832Y-87668534D01*
X64597904Y-87494131D01*
X64149831Y-87450000D01*
X58613351Y-87450000D01*
X57900729Y-86737378D01*
X57552688Y-86451748D01*
X57022831Y-86168534D01*
X56447904Y-85994132D01*
X55850000Y-85935244D01*
X55252096Y-85994132D01*
X54677169Y-86168534D01*
X54147312Y-86451748D01*
X53682890Y-86832890D01*
X53301748Y-87297312D01*
X53113233Y-87650000D01*
X52000000Y-87650000D01*
X51866061Y-87676642D01*
X51752513Y-87752513D01*
X51742481Y-87767526D01*
X51521588Y-87619930D01*
X51107036Y-87448217D01*
X50724353Y-87372097D01*
X50500000Y-87350000D01*
X43000000Y-87350000D01*
X42775647Y-87372097D01*
X42392964Y-87448217D01*
X42388659Y-87450000D01*
X41850169Y-87450000D01*
X41402096Y-87494131D01*
X40827168Y-87668534D01*
X40297312Y-87951748D01*
X39832890Y-88332890D01*
X39451748Y-88797312D01*
X39168534Y-89327168D01*
X38994131Y-89902096D01*
X38935243Y-90500000D01*
X26125000Y-90500000D01*
X26125000Y-75200900D01*
X26287240Y-75504430D01*
X26543417Y-75816583D01*
X26855571Y-76072760D01*
X27211704Y-76263117D01*
X27598131Y-76380338D01*
X28000000Y-76419919D01*
X28401870Y-76380338D01*
X28788297Y-76263117D01*
X29144430Y-76072760D01*
X29270000Y-75969707D01*
X29395571Y-76072760D01*
X29751704Y-76263117D01*
X30138131Y-76380338D01*
X30540000Y-76419919D01*
X30941870Y-76380338D01*
X31328297Y-76263117D01*
X31684430Y-76072760D01*
X31810000Y-75969707D01*
X31935571Y-76072760D01*
X32291704Y-76263117D01*
X32678131Y-76380338D01*
X33080000Y-76419919D01*
X33481870Y-76380338D01*
X33868297Y-76263117D01*
X34224430Y-76072760D01*
X34350000Y-75969707D01*
X34475571Y-76072760D01*
X34831704Y-76263117D01*
X35218131Y-76380338D01*
X35620000Y-76419919D01*
X35851569Y-76397111D01*
X34748681Y-77500000D01*
X32426320Y-77500000D01*
X32205949Y-77521705D01*
X31923198Y-77607476D01*
X31662613Y-77746762D01*
X31434208Y-77934208D01*
X31246762Y-78162613D01*
X31107476Y-78423198D01*
X31021705Y-78705949D01*
X30992743Y-79000000D01*
X31021705Y-79294051D01*
X31107476Y-79576802D01*
X31246762Y-79837387D01*
X31434208Y-80065792D01*
X31662613Y-80253238D01*
X31756058Y-80303186D01*
X31575679Y-80423711D01*
X31373711Y-80625679D01*
X31215027Y-80863167D01*
X31105723Y-81127051D01*
X31050000Y-81407187D01*
X31050000Y-81692813D01*
X31105723Y-81972949D01*
X31215027Y-82236833D01*
X31373711Y-82474321D01*
X31575679Y-82676289D01*
X31813167Y-82834973D01*
X31871778Y-82859251D01*
X34433680Y-85421153D01*
X34476577Y-85473423D01*
X34528846Y-85516319D01*
X34528847Y-85516320D01*
X34685186Y-85644624D01*
X34923187Y-85771838D01*
X35181433Y-85850176D01*
X35449999Y-85876628D01*
X35517293Y-85870000D01*
X36518441Y-85870000D01*
X36577051Y-85894277D01*
X36857187Y-85950000D01*
X37142813Y-85950000D01*
X37422949Y-85894277D01*
X37686833Y-85784973D01*
X37924321Y-85626289D01*
X38126289Y-85424321D01*
X38284973Y-85186833D01*
X38394277Y-84922949D01*
X38450000Y-84642813D01*
X38450000Y-84357187D01*
X38394277Y-84077051D01*
X38284973Y-83813167D01*
X38126289Y-83575679D01*
X37924321Y-83373711D01*
X37686833Y-83215027D01*
X37422949Y-83105723D01*
X37142813Y-83050000D01*
X36857187Y-83050000D01*
X36577051Y-83105723D01*
X36518441Y-83130000D01*
X36017473Y-83130000D01*
X33809251Y-80921778D01*
X33784973Y-80863167D01*
X33626289Y-80625679D01*
X33500610Y-80500000D01*
X35296320Y-80500000D01*
X35370000Y-80507257D01*
X35443680Y-80500000D01*
X35664051Y-80478295D01*
X35946802Y-80392524D01*
X36207387Y-80253238D01*
X36435792Y-80065792D01*
X36482769Y-80008550D01*
X38160000Y-78331320D01*
X41691439Y-81862760D01*
X41862613Y-82003238D01*
X42123197Y-82142524D01*
X42405949Y-82228295D01*
X42700000Y-82257257D01*
X42994051Y-82228295D01*
X43276802Y-82142524D01*
X43537387Y-82003238D01*
X43765791Y-81815791D01*
X43953238Y-81587387D01*
X44092524Y-81326802D01*
X44178295Y-81044051D01*
X44207257Y-80750000D01*
X44193191Y-80607187D01*
X55300000Y-80607187D01*
X55300000Y-80892813D01*
X55355723Y-81172949D01*
X55465027Y-81436833D01*
X55623711Y-81674321D01*
X55825679Y-81876289D01*
X56063167Y-82034973D01*
X56327051Y-82144277D01*
X56607187Y-82200000D01*
X56892813Y-82200000D01*
X57172949Y-82144277D01*
X57436833Y-82034973D01*
X57674321Y-81876289D01*
X57876289Y-81674321D01*
X58034973Y-81436833D01*
X58059251Y-81378222D01*
X59067473Y-80370000D01*
X63018441Y-80370000D01*
X63077051Y-80394277D01*
X63357187Y-80450000D01*
X63642813Y-80450000D01*
X63922949Y-80394277D01*
X64186833Y-80284973D01*
X64424321Y-80126289D01*
X64626289Y-79924321D01*
X64784973Y-79686833D01*
X64894277Y-79422949D01*
X64950000Y-79142813D01*
X64950000Y-78857187D01*
X64894277Y-78577051D01*
X64784973Y-78313167D01*
X64626289Y-78075679D01*
X64424321Y-77873711D01*
X64186833Y-77715027D01*
X63922949Y-77605723D01*
X63642813Y-77550000D01*
X63357187Y-77550000D01*
X63077051Y-77605723D01*
X63018441Y-77630000D01*
X58567294Y-77630000D01*
X58500000Y-77623372D01*
X58432706Y-77630000D01*
X58231433Y-77649824D01*
X57973187Y-77728162D01*
X57735186Y-77855376D01*
X57526577Y-78026577D01*
X57483680Y-78078847D01*
X56121778Y-79440749D01*
X56063167Y-79465027D01*
X55825679Y-79623711D01*
X55623711Y-79825679D01*
X55465027Y-80063167D01*
X55355723Y-80327051D01*
X55300000Y-80607187D01*
X44193191Y-80607187D01*
X44178295Y-80455949D01*
X44092524Y-80173197D01*
X43953238Y-79912613D01*
X43812760Y-79741439D01*
X39738881Y-75667562D01*
X39872760Y-75504430D01*
X40063117Y-75148296D01*
X40180338Y-74761869D01*
X40210000Y-74460708D01*
X40210000Y-73859291D01*
X40180338Y-73558130D01*
X40063117Y-73171703D01*
X39872760Y-72815570D01*
X39660000Y-72556321D01*
X39660000Y-62933677D01*
X39667257Y-62859999D01*
X39660000Y-62786320D01*
X39660000Y-59961319D01*
X40001319Y-59620000D01*
X45694920Y-59620000D01*
X45694920Y-61870000D01*
X45736810Y-62295313D01*
X45860869Y-62704280D01*
X46062330Y-63081188D01*
X46333451Y-63411549D01*
X46663812Y-63682670D01*
X47040720Y-63884131D01*
X47449687Y-64008190D01*
X47875000Y-64050080D01*
X50125000Y-64050080D01*
X50550313Y-64008190D01*
X50959280Y-63884131D01*
X51336188Y-63682670D01*
X51666549Y-63411549D01*
X51937670Y-63081188D01*
X52139131Y-62704280D01*
X52263190Y-62295313D01*
X52305080Y-61870000D01*
X52305080Y-59620000D01*
X52263190Y-59194687D01*
X52139131Y-58785720D01*
X51937670Y-58408812D01*
X51666549Y-58078451D01*
X51336188Y-57807330D01*
X50959280Y-57605869D01*
X50550313Y-57481810D01*
X50125000Y-57439920D01*
X47875000Y-57439920D01*
X47449687Y-57481810D01*
X47040720Y-57605869D01*
X46663812Y-57807330D01*
X46333451Y-58078451D01*
X46062330Y-58408812D01*
X45860869Y-58785720D01*
X45736810Y-59194687D01*
X45694920Y-59620000D01*
X40001319Y-59620000D01*
X43621321Y-56000000D01*
X59378680Y-56000000D01*
X57741445Y-57637236D01*
X57684209Y-57684208D01*
X57496763Y-57912613D01*
X57403678Y-58086762D01*
X57357477Y-58173198D01*
X57271705Y-58455949D01*
X57242743Y-58750000D01*
X57250001Y-58823690D01*
X57250000Y-60676319D01*
X57242743Y-60750000D01*
X57258230Y-60907240D01*
X57271705Y-61044050D01*
X57357476Y-61326801D01*
X57496762Y-61587386D01*
X57684208Y-61815792D01*
X57741450Y-61862769D01*
X59507235Y-63628555D01*
X59550487Y-63681258D01*
X59545949Y-63681705D01*
X59263198Y-63767476D01*
X59002613Y-63906762D01*
X58774208Y-64094208D01*
X58727235Y-64151445D01*
X55387241Y-67491440D01*
X55246763Y-67662614D01*
X55107477Y-67923198D01*
X55021705Y-68205949D01*
X54992743Y-68500000D01*
X55021705Y-68794051D01*
X55107477Y-69076802D01*
X55246763Y-69337386D01*
X55434209Y-69565791D01*
X55662614Y-69753237D01*
X55923198Y-69892523D01*
X56205949Y-69978295D01*
X56500000Y-70007257D01*
X56794051Y-69978295D01*
X57076802Y-69892523D01*
X57337386Y-69753237D01*
X57508560Y-69612759D01*
X60461320Y-66660000D01*
X60871421Y-66660000D01*
X60736883Y-66911703D01*
X60619662Y-67298130D01*
X60580081Y-67700000D01*
X60619662Y-68101870D01*
X60736883Y-68488297D01*
X60927240Y-68844430D01*
X61183417Y-69156583D01*
X61495570Y-69412760D01*
X61851703Y-69603117D01*
X62238130Y-69720338D01*
X62539291Y-69750000D01*
X63140709Y-69750000D01*
X63441870Y-69720338D01*
X63828297Y-69603117D01*
X64184430Y-69412760D01*
X64496583Y-69156583D01*
X64752760Y-68844430D01*
X64943117Y-68488297D01*
X65060338Y-68101870D01*
X65099919Y-67700000D01*
X65060338Y-67298130D01*
X64943117Y-66911703D01*
X64752760Y-66555570D01*
X64649708Y-66430000D01*
X64752760Y-66304430D01*
X64943117Y-65948297D01*
X65060338Y-65561870D01*
X65099919Y-65160000D01*
X65060338Y-64758130D01*
X64943117Y-64371703D01*
X64752760Y-64015570D01*
X64649708Y-63890000D01*
X64752760Y-63764430D01*
X64943117Y-63408297D01*
X65060338Y-63021870D01*
X65099919Y-62620000D01*
X65060338Y-62218130D01*
X64943117Y-61831703D01*
X64752760Y-61475570D01*
X64496583Y-61163417D01*
X64184430Y-60907240D01*
X63828297Y-60716883D01*
X63441870Y-60599662D01*
X63140709Y-60570000D01*
X62539291Y-60570000D01*
X62238130Y-60599662D01*
X62063764Y-60652555D01*
X62716320Y-60000000D01*
X65573680Y-60000000D01*
X65794051Y-59978295D01*
X66076802Y-59892524D01*
X66337387Y-59753238D01*
X66565792Y-59565792D01*
X66753238Y-59337387D01*
X66892524Y-59076802D01*
X66907177Y-59028497D01*
X67491439Y-59612759D01*
X67662613Y-59753238D01*
X67923197Y-59892523D01*
X68205949Y-59978295D01*
X68500000Y-60007257D01*
X68794051Y-59978295D01*
X69076802Y-59892523D01*
X69337387Y-59753238D01*
X69565791Y-59565791D01*
X69753238Y-59337387D01*
X69892523Y-59076802D01*
X69978295Y-58794051D01*
X70007257Y-58500000D01*
X69978295Y-58205949D01*
X69892523Y-57923197D01*
X69753238Y-57662613D01*
X69612759Y-57491439D01*
X66897769Y-54776450D01*
X66850792Y-54719208D01*
X66622387Y-54531762D01*
X66361802Y-54392476D01*
X66079051Y-54306705D01*
X65858680Y-54285000D01*
X65785000Y-54277743D01*
X65711320Y-54285000D01*
X63426320Y-54285000D01*
X63205949Y-54306705D01*
X62923198Y-54392476D01*
X62662613Y-54531762D01*
X62500000Y-54665214D01*
X62500000Y-54573680D01*
X62507257Y-54500000D01*
X62478295Y-54205949D01*
X62392524Y-53923198D01*
X62253238Y-53662613D01*
X62065792Y-53434208D01*
X61837387Y-53246762D01*
X61609587Y-53125000D01*
X71959100Y-53125000D01*
X71655570Y-53287240D01*
G36*
X42221985Y-53215027D02*
X42162613Y-53246762D01*
X41934208Y-53434208D01*
X41887240Y-53491439D01*
X37151450Y-58227231D01*
X37094208Y-58274208D01*
X36906762Y-58502614D01*
X36767476Y-58763199D01*
X36739456Y-58855570D01*
X36681705Y-59045949D01*
X36662478Y-59241159D01*
X32508560Y-55087241D01*
X32337386Y-54946763D01*
X32076802Y-54807477D01*
X31794051Y-54721705D01*
X31500000Y-54692743D01*
X31205949Y-54721705D01*
X30923198Y-54807477D01*
X30662614Y-54946763D01*
X30434209Y-55134209D01*
X30246763Y-55362614D01*
X30107477Y-55623198D01*
X30021705Y-55905949D01*
X29992743Y-56200000D01*
X30021705Y-56494051D01*
X30107477Y-56776802D01*
X30246763Y-57037386D01*
X30387241Y-57208560D01*
X36660001Y-63481321D01*
X36660000Y-72191421D01*
X36408296Y-72056883D01*
X36021869Y-71939662D01*
X35620000Y-71900081D01*
X35218130Y-71939662D01*
X34831703Y-72056883D01*
X34475570Y-72247240D01*
X34350000Y-72350292D01*
X34224430Y-72247240D01*
X33868296Y-72056883D01*
X33481869Y-71939662D01*
X33080000Y-71900081D01*
X32678130Y-71939662D01*
X32291703Y-72056883D01*
X31935570Y-72247240D01*
X31810000Y-72350292D01*
X31684430Y-72247240D01*
X31328296Y-72056883D01*
X30941869Y-71939662D01*
X30540000Y-71900081D01*
X30138130Y-71939662D01*
X29751703Y-72056883D01*
X29395570Y-72247240D01*
X29270000Y-72350292D01*
X29144430Y-72247240D01*
X28788296Y-72056883D01*
X28401869Y-71939662D01*
X28000000Y-71900081D01*
X27598130Y-71939662D01*
X27211703Y-72056883D01*
X26855570Y-72247240D01*
X26543417Y-72503417D01*
X26287240Y-72815570D01*
X26125000Y-73119101D01*
X26125000Y-63756158D01*
X26146883Y-63828297D01*
X26337240Y-64184430D01*
X26593417Y-64496583D01*
X26905570Y-64752760D01*
X27261703Y-64943117D01*
X27648130Y-65060338D01*
X27949291Y-65090000D01*
X28550709Y-65090000D01*
X28851870Y-65060338D01*
X29238297Y-64943117D01*
X29594430Y-64752760D01*
X29906583Y-64496583D01*
X30162760Y-64184430D01*
X30353117Y-63828297D01*
X30470338Y-63441870D01*
X30509919Y-63040000D01*
X30470338Y-62638130D01*
X30353117Y-62251703D01*
X30162760Y-61895570D01*
X29906583Y-61583417D01*
X29829309Y-61520000D01*
X29906583Y-61456583D01*
X30162760Y-61144430D01*
X30353117Y-60788297D01*
X30470338Y-60401870D01*
X30509919Y-60000000D01*
X30470338Y-59598130D01*
X30353117Y-59211703D01*
X30162760Y-58855570D01*
X29906583Y-58543417D01*
X29594430Y-58287240D01*
X29238297Y-58096883D01*
X28851870Y-57979662D01*
X28550709Y-57950000D01*
X27949291Y-57950000D01*
X27648130Y-57979662D01*
X27261703Y-58096883D01*
X26905570Y-58287240D01*
X26593417Y-58543417D01*
X26337240Y-58855570D01*
X26146883Y-59211703D01*
X26125000Y-59283842D01*
X26125000Y-53125000D01*
X42390412Y-53125000D01*
X42221985Y-53215027D01*
X42221985Y-53215027D01*
G37*
X42221985Y-53215027D02*
X42162613Y-53246762D01*
X41934208Y-53434208D01*
X41887240Y-53491439D01*
X37151450Y-58227231D01*
X37094208Y-58274208D01*
X36906762Y-58502614D01*
X36767476Y-58763199D01*
X36739456Y-58855570D01*
X36681705Y-59045949D01*
X36662478Y-59241159D01*
X32508560Y-55087241D01*
X32337386Y-54946763D01*
X32076802Y-54807477D01*
X31794051Y-54721705D01*
X31500000Y-54692743D01*
X31205949Y-54721705D01*
X30923198Y-54807477D01*
X30662614Y-54946763D01*
X30434209Y-55134209D01*
X30246763Y-55362614D01*
X30107477Y-55623198D01*
X30021705Y-55905949D01*
X29992743Y-56200000D01*
X30021705Y-56494051D01*
X30107477Y-56776802D01*
X30246763Y-57037386D01*
X30387241Y-57208560D01*
X36660001Y-63481321D01*
X36660000Y-72191421D01*
X36408296Y-72056883D01*
X36021869Y-71939662D01*
X35620000Y-71900081D01*
X35218130Y-71939662D01*
X34831703Y-72056883D01*
X34475570Y-72247240D01*
X34350000Y-72350292D01*
X34224430Y-72247240D01*
X33868296Y-72056883D01*
X33481869Y-71939662D01*
X33080000Y-71900081D01*
X32678130Y-71939662D01*
X32291703Y-72056883D01*
X31935570Y-72247240D01*
X31810000Y-72350292D01*
X31684430Y-72247240D01*
X31328296Y-72056883D01*
X30941869Y-71939662D01*
X30540000Y-71900081D01*
X30138130Y-71939662D01*
X29751703Y-72056883D01*
X29395570Y-72247240D01*
X29270000Y-72350292D01*
X29144430Y-72247240D01*
X28788296Y-72056883D01*
X28401869Y-71939662D01*
X28000000Y-71900081D01*
X27598130Y-71939662D01*
X27211703Y-72056883D01*
X26855570Y-72247240D01*
X26543417Y-72503417D01*
X26287240Y-72815570D01*
X26125000Y-73119101D01*
X26125000Y-63756158D01*
X26146883Y-63828297D01*
X26337240Y-64184430D01*
X26593417Y-64496583D01*
X26905570Y-64752760D01*
X27261703Y-64943117D01*
X27648130Y-65060338D01*
X27949291Y-65090000D01*
X28550709Y-65090000D01*
X28851870Y-65060338D01*
X29238297Y-64943117D01*
X29594430Y-64752760D01*
X29906583Y-64496583D01*
X30162760Y-64184430D01*
X30353117Y-63828297D01*
X30470338Y-63441870D01*
X30509919Y-63040000D01*
X30470338Y-62638130D01*
X30353117Y-62251703D01*
X30162760Y-61895570D01*
X29906583Y-61583417D01*
X29829309Y-61520000D01*
X29906583Y-61456583D01*
X30162760Y-61144430D01*
X30353117Y-60788297D01*
X30470338Y-60401870D01*
X30509919Y-60000000D01*
X30470338Y-59598130D01*
X30353117Y-59211703D01*
X30162760Y-58855570D01*
X29906583Y-58543417D01*
X29594430Y-58287240D01*
X29238297Y-58096883D01*
X28851870Y-57979662D01*
X28550709Y-57950000D01*
X27949291Y-57950000D01*
X27648130Y-57979662D01*
X27261703Y-58096883D01*
X26905570Y-58287240D01*
X26593417Y-58543417D01*
X26337240Y-58855570D01*
X26146883Y-59211703D01*
X26125000Y-59283842D01*
X26125000Y-53125000D01*
X42390412Y-53125000D01*
X42221985Y-53215027D01*
D26*
G04 #@! TO.N,+5V*
G36*
X50833130Y-88695752D02*
X51115545Y-88884455D01*
X51304248Y-89166870D01*
X51373000Y-89512509D01*
X51373000Y-91487491D01*
X51304248Y-91833130D01*
X51115545Y-92115545D01*
X50833130Y-92304248D01*
X50487491Y-92373000D01*
X43012509Y-92373000D01*
X42666870Y-92304248D01*
X42384455Y-92115545D01*
X42195752Y-91833130D01*
X42127000Y-91487491D01*
X42127000Y-89512509D01*
X42195752Y-89166870D01*
X42384455Y-88884455D01*
X42666870Y-88695752D01*
X43012509Y-88627000D01*
X50487491Y-88627000D01*
X50833130Y-88695752D01*
X50833130Y-88695752D01*
G37*
X50833130Y-88695752D02*
X51115545Y-88884455D01*
X51304248Y-89166870D01*
X51373000Y-89512509D01*
X51373000Y-91487491D01*
X51304248Y-91833130D01*
X51115545Y-92115545D01*
X50833130Y-92304248D01*
X50487491Y-92373000D01*
X43012509Y-92373000D01*
X42666870Y-92304248D01*
X42384455Y-92115545D01*
X42195752Y-91833130D01*
X42127000Y-91487491D01*
X42127000Y-89512509D01*
X42195752Y-89166870D01*
X42384455Y-88884455D01*
X42666870Y-88695752D01*
X43012509Y-88627000D01*
X50487491Y-88627000D01*
X50833130Y-88695752D01*
G04 #@! TD*
M02*
